<svg width="57" height="54" viewBox="0 0 57 54" fill="none" xmlns="http://www.w3.org/2000/svg">
<g clip-path="url(#clip0_2_584)">
<path d="M10.6246 0.363743H46.485C47.7766 0.36254 49.0557 0.613027 50.2492 1.10087C51.4427 1.58871 52.5272 2.30433 53.4405 3.20677C54.3538 4.1092 55.078 5.18075 55.5717 6.36007C56.0654 7.53939 56.3189 8.80335 56.3177 10.0796V44.1422C56.3189 45.4184 56.0654 46.6824 55.5717 47.8617C55.078 49.041 54.3538 50.1126 53.4405 51.015C52.5272 51.9174 51.4427 52.6331 50.2492 53.1209C49.0557 53.6087 47.7766 53.8592 46.485 53.858H10.6246C9.33306 53.8592 8.05391 53.6087 6.8604 53.1209C5.6669 52.6331 4.58247 51.9174 3.66918 51.015C2.75589 50.1126 2.03166 49.041 1.53795 47.8617C1.04425 46.6824 0.790749 45.4184 0.791966 44.1422V10.0796C0.790749 8.80335 1.04425 7.53939 1.53795 6.36007C2.03166 5.18075 2.75589 4.1092 3.66918 3.20677C4.58247 2.30433 5.6669 1.58871 6.8604 1.10087C8.05391 0.613027 9.33306 0.36254 10.6246 0.363743Z" fill="#470137"/>
<path d="M29.9894 14.423L23.0487 25.7391L30.4521 37.741C30.5008 37.8239 30.5173 37.9214 30.4984 38.0154C30.4752 38.1068 30.3827 38.0382 30.2439 38.0611H24.9458C24.5756 38.0611 24.3211 38.0382 24.1592 37.8096C23.6733 36.8495 23.1644 35.9122 22.6785 34.952C22.1927 33.9919 21.6605 33.0546 21.1053 32.0716C20.55 31.0885 19.9948 30.1055 19.4395 29.0996H19.3932C18.9074 30.0827 18.3753 31.0657 17.8431 32.0487C17.311 33.0317 16.7789 34.0147 16.2699 34.9749C15.7609 35.935 15.2057 36.918 14.6736 37.8553C14.581 38.0839 14.3959 38.1068 14.1414 38.1068H9.05158C8.95903 38.1068 8.88963 38.1525 8.88963 38.0382C8.8793 37.9954 8.87808 37.951 8.88605 37.9077C8.89401 37.8644 8.91099 37.8232 8.9359 37.7868L16.1311 26.1277L9.12098 14.4002C9.05158 14.3087 9.02844 14.2173 9.07471 14.1715C9.10292 14.139 9.1387 14.1136 9.179 14.0977C9.21929 14.0818 9.2629 14.0757 9.30607 14.0801H14.5579C14.6673 14.0825 14.7761 14.0978 14.8818 14.1258C14.9745 14.1751 15.0538 14.2457 15.1131 14.3316C15.5527 15.3146 16.0617 16.2976 16.5938 17.2806C17.1259 18.2636 17.6812 19.2238 18.2596 20.1839C18.838 21.1441 19.3238 22.1042 19.8097 23.0873H19.856C20.3418 22.0814 20.8508 21.0984 21.3598 20.1382C21.8688 19.1781 22.4009 18.2179 22.933 17.2578C23.4651 16.2976 23.9741 15.3146 24.4831 14.3773C24.5006 14.2873 24.5498 14.2063 24.6219 14.1487C24.7135 14.0987 24.8201 14.0825 24.9227 14.103H29.8043C29.8317 14.0969 29.8599 14.0962 29.8876 14.101C29.9152 14.1058 29.9416 14.1159 29.9652 14.1307C29.9888 14.1456 30.0093 14.1649 30.0254 14.1876C30.0414 14.2103 30.0528 14.2359 30.0588 14.263C30.0819 14.2859 30.0357 14.3773 29.9894 14.423ZM40.6781 38.5412C38.9632 38.569 37.2636 38.2175 35.7039 37.5124C34.2528 36.8419 33.0366 35.7595 32.2104 34.4034C31.3544 33.0088 30.938 31.2714 30.938 29.1911C30.9145 27.4993 31.3542 25.8327 32.2104 24.3675C33.0884 22.8783 34.3601 21.6534 35.889 20.824C37.5085 19.9325 39.4519 19.4981 41.7423 19.4981C41.9046 19.4963 42.0668 19.5039 42.2282 19.521C42.4364 19.5438 42.6678 19.5438 42.9454 19.5667V12.3427C42.9454 12.1827 43.0148 12.0912 43.1768 12.0912H47.8733C47.9252 12.0843 47.9778 12.0969 48.0206 12.1265C48.0635 12.1562 48.0935 12.2007 48.1047 12.2512V34.0604C48.1047 34.4719 48.1278 34.9292 48.1509 35.4321C48.1741 35.935 48.2203 36.3694 48.2435 36.758C48.2484 36.8352 48.2287 36.912 48.1873 36.9776C48.1458 37.0432 48.0845 37.0943 48.0121 37.1238C46.8003 37.627 45.5354 37.9951 44.241 38.2211C43.0651 38.4306 41.8729 38.5377 40.6781 38.5412ZM42.9454 33.969V23.9102C42.7394 23.8611 42.5309 23.823 42.3207 23.7959C42.0662 23.7731 41.8117 23.7502 41.5573 23.7502C40.6504 23.7401 39.7541 23.9439 38.9429 24.3446C38.1523 24.7339 37.4754 25.3162 36.9764 26.0363C36.4674 26.7678 36.2129 27.7509 36.2129 28.9396C36.1927 29.742 36.3262 30.5409 36.6062 31.2943C36.83 31.9036 37.1852 32.4574 37.6473 32.9174C38.0934 33.338 38.6318 33.651 39.2205 33.8318C39.8403 34.0324 40.4887 34.1328 41.1408 34.129C41.4878 34.129 41.8117 34.1062 42.1125 34.0833C42.3952 34.1032 42.6789 34.0643 42.9454 33.969Z" fill="#FF61F6"/>
</g>
<defs>
<clipPath id="clip0_2_584">
<rect width="55.5257" height="53.4943" fill="white" transform="translate(0.791992 0.36377)"/>
</clipPath>
</defs>
</svg>
