<svg width="99" height="60" viewBox="0 0 99 60" fill="none" xmlns="http://www.w3.org/2000/svg">
<g clip-path="url(#clip0_17_93)">
<path d="M27.992 22.0592C27.992 23.2604 28.1218 24.2348 28.3488 24.9488C28.6372 25.7525 28.9844 26.5338 29.3876 27.2864C29.55 27.5461 29.6147 27.8062 29.6147 28.0333C29.6147 28.3581 29.4202 28.6826 28.9982 29.0074L26.9536 30.371C26.6611 30.5659 26.3689 30.6632 26.1093 30.6632C25.785 30.6632 25.4603 30.5008 25.1356 30.2085C24.6983 29.7384 24.3072 29.2274 23.9674 28.6826C23.6427 28.131 23.318 27.5139 22.9612 26.767C20.4295 29.7543 17.2485 31.2477 13.4188 31.2477C10.6926 31.2477 8.51779 30.4686 6.92726 28.9101C5.33712 27.3511 4.52539 25.2736 4.52539 22.6759C4.52539 19.9161 5.49908 17.6758 7.47901 15.9874C9.45893 14.299 12.0879 13.4548 15.4313 13.4548C16.5347 13.4548 17.6708 13.5521 18.8715 13.7145C20.0723 13.8769 21.3059 14.1366 22.6039 14.4288V12.0587C22.6039 9.59117 22.0847 7.87022 21.0785 6.86362C20.0401 5.85701 18.2872 5.3698 15.7881 5.3698C14.6521 5.3698 13.4835 5.50003 12.2828 5.79228C11.082 6.08453 9.91342 6.44152 8.77739 6.89617C8.25819 7.12331 7.86879 7.25316 7.64135 7.31827C7.4143 7.38339 7.25195 7.41556 7.12215 7.41556C6.66766 7.41556 6.44061 7.09075 6.44061 6.40896V4.81823C6.44061 4.29846 6.5057 3.90892 6.66766 3.68178C6.83001 3.45426 7.12215 3.22713 7.57664 2.99999C8.7123 2.41548 10.0758 1.92827 11.6659 1.53873C13.2564 1.11663 14.9446 0.922049 16.7293 0.922049C20.5919 0.922049 23.4153 1.79842 25.2333 3.55193C27.0183 5.30506 27.9269 7.96751 27.9269 11.5393V22.0592H27.992ZM14.8144 26.9942C15.8854 26.9942 16.9892 26.7996 18.1574 26.41C19.326 26.0201 20.3644 25.3058 21.2409 24.3317C21.7601 23.715 22.1498 23.0332 22.3443 22.2538C22.5392 21.4747 22.669 20.5332 22.669 19.4289V18.0653C21.6847 17.8258 20.6878 17.6417 19.6829 17.5138C18.671 17.3851 17.652 17.3198 16.632 17.3184C14.4572 17.3184 12.867 17.7405 11.7961 18.6173C10.7248 19.494 10.2056 20.7278 10.2056 22.3514C10.2056 23.8774 10.595 25.0135 11.4063 25.793C12.1855 26.605 13.3215 26.9942 14.814 26.9942H14.8144ZM40.8774 30.5008C40.2931 30.5008 39.9037 30.4035 39.6441 30.1764C39.3841 29.9814 39.1571 29.5268 38.9626 28.9101L31.3346 3.81163C31.1397 3.16239 31.0425 2.74029 31.0425 2.51316C31.0425 1.99338 31.3021 1.70113 31.8213 1.70113H35.0023C35.6188 1.70113 36.0407 1.79842 36.2682 2.02594C36.5278 2.22052 36.7223 2.67518 36.9172 3.29224L42.3699 24.7864L47.4332 3.29224C47.5956 2.64262 47.7901 2.22052 48.0497 2.02594C48.3097 1.83098 48.7638 1.70113 49.3481 1.70113H51.9448C52.5613 1.70113 52.9832 1.79842 53.2428 2.02594C53.5028 2.22052 53.7299 2.67518 53.8597 3.29224L58.9877 25.0461L64.6028 3.29224C64.7977 2.64262 65.0248 2.22052 65.2522 2.02594C65.5118 1.83098 65.9337 1.70113 66.518 1.70113H69.5364C70.0556 1.70113 70.3481 1.96083 70.3481 2.51316C70.3481 2.67518 70.3155 2.83758 70.283 3.03216C70.2505 3.22751 70.1854 3.48682 70.0556 3.84419L62.2335 28.9426C62.039 29.5919 61.8115 30.014 61.5519 30.2085C61.2923 30.4039 60.8704 30.5334 60.3187 30.5334H57.5274C56.9109 30.5334 56.4886 30.4361 56.2294 30.2085C55.9694 29.9814 55.7423 29.5593 55.6125 28.9101L50.5814 7.96751L45.5831 28.8775C45.4208 29.5268 45.2263 29.9489 44.9667 30.176C44.7067 30.4035 44.2526 30.5008 43.6683 30.5008H40.8774ZM82.5845 31.3779C80.8967 31.3779 79.2089 31.1826 77.5863 30.7931C75.9632 30.4035 74.6973 29.9814 73.8534 29.4946C73.3343 29.2023 72.9774 28.8775 72.8472 28.5853C72.721 28.2988 72.6548 27.9894 72.6527 27.6763V26.0201C72.6527 25.3383 72.9123 25.0139 73.3993 25.0139C73.598 25.0145 73.7952 25.0474 73.9832 25.1112C74.1781 25.1763 74.4703 25.3058 74.795 25.436C75.9414 25.9403 77.1381 26.3211 78.3651 26.5721C79.6363 26.8303 80.9301 26.9609 82.2273 26.962C84.2719 26.962 85.8628 26.6046 86.9663 25.8903C88.0698 25.1759 88.6541 24.1371 88.6541 22.8057C88.6541 21.8968 88.3619 21.1499 87.7773 20.5332C87.1934 19.9161 86.0899 19.3642 84.4997 18.8448L79.7932 17.3835C77.4239 16.6366 75.671 15.5327 74.6001 14.0719C73.5291 12.6432 72.9774 11.0521 72.9774 9.36365C72.9774 8.00007 73.2692 6.79888 73.8534 5.75972C74.4377 4.72056 75.2165 3.81163 76.1906 3.09728C77.1643 2.35037 78.2678 1.79881 79.5662 1.40888C80.8642 1.01934 82.2273 0.856934 83.6554 0.856934C84.3695 0.856934 85.1162 0.889491 85.8303 0.987164C86.5769 1.08407 87.2584 1.21392 87.94 1.34415C88.589 1.50617 89.2058 1.66857 89.7897 1.86354C90.374 2.05812 90.8285 2.25308 91.1528 2.44804C91.6077 2.70774 91.932 2.96743 92.1269 3.25968C92.3214 3.51938 92.419 3.87636 92.419 4.33102V5.85701C92.419 6.53881 92.1594 6.89617 91.6724 6.89617C91.4128 6.89617 90.9909 6.76594 90.4391 6.50663C88.589 5.66243 86.5118 5.24033 84.2072 5.24033C82.3574 5.24033 80.8967 5.53259 79.8905 6.14926C78.8842 6.76594 78.3651 7.7082 78.3651 9.03923C78.3651 9.94816 78.6897 10.7276 79.3387 11.3443C79.9877 11.961 81.1889 12.578 82.9092 13.13L87.518 14.5913C89.8548 15.3382 91.5426 16.3769 92.5488 17.7084C93.5551 19.0394 94.0421 20.5658 94.0421 22.2538C94.0421 23.6499 93.7496 24.9162 93.1978 26.0201C92.6135 27.124 91.8347 28.0984 90.8285 28.8775C89.8223 29.6895 88.6215 30.2737 87.2255 30.6958C85.7652 31.1504 84.2397 31.3776 82.5845 31.3776V31.3779Z" fill="#252F3E"/>
<path d="M88.7185 47.1577C78.0401 55.0473 62.5258 59.2357 49.1859 59.2357C30.4909 59.2357 13.646 52.3201 0.922516 40.8262C-0.0837205 39.9168 0.825262 38.6831 2.02601 39.3975C15.7879 47.3848 32.7629 52.2225 50.3219 52.2225C62.1685 52.2225 75.1841 49.755 87.1606 44.6898C88.946 43.8778 90.4714 45.8588 88.7189 47.1573L88.7185 47.1577ZM93.165 42.0925C91.802 40.3389 84.1422 41.2483 80.6694 41.6704C79.6306 41.8002 79.4683 40.8909 80.4094 40.2091C86.5116 35.923 96.5406 37.1571 97.7092 38.5858C98.8778 40.0467 97.3845 50.0798 91.6722 54.8849C90.7957 55.6318 89.9518 55.2423 90.3416 54.2682C91.6396 51.0538 94.5285 43.813 93.165 42.0925Z" fill="#FF9900"/>
</g>
<defs>
<clipPath id="clip0_17_93">
<rect width="97.5884" height="58.3788" fill="white" transform="translate(0.490234 0.856934)"/>
</clipPath>
</defs>
</svg>
