<svg width="117" height="51" viewBox="0 0 117 51" fill="none" xmlns="http://www.w3.org/2000/svg">
<g clip-path="url(#clip0_17_65)">
<path fill-rule="evenodd" clip-rule="evenodd" d="M40.0778 10.2895L24.5351 0.930533C22.6946 -0.175656 20.406 -0.175656 18.5655 0.930533L3.0228 10.2895C1.14285 11.427 -0.00615717 13.4861 2.98154e-07 15.7066V34.4245C-0.0118628 36.6395 1.12613 38.6974 2.99566 39.8417L18.5384 49.2006C20.3788 50.3068 22.6675 50.3068 24.508 49.2006L40.0507 39.8417C41.9202 38.6974 43.0582 36.6395 43.0464 34.4245V15.7066C43.0639 13.4972 41.937 11.4406 40.0778 10.2895ZM28.0409 39.5169V40.8602C28.0388 41.0281 27.953 41.1835 27.813 41.2731L27.0261 41.73C26.9013 41.7961 26.7981 41.73 26.7981 41.5538V40.2326C26.242 40.5095 25.6055 40.5721 25.0073 40.4087C24.9114 40.3439 24.8749 40.2188 24.9204 40.1115L25.2026 38.8948C25.2267 38.7922 25.2817 38.6999 25.36 38.6305C25.3825 38.6085 25.4081 38.5899 25.436 38.5755C25.4758 38.558 25.521 38.558 25.5608 38.5755C26.1096 38.7245 26.6941 38.6494 27.1889 38.3663C27.9052 38.0111 28.3719 37.2861 28.4045 36.478C28.4045 35.7953 28.0355 35.5091 27.1455 35.5036C26.0167 35.5036 24.9747 35.2833 24.9476 33.5932C24.9738 32.1317 25.6426 30.7587 26.771 29.8497V28.4899C26.7702 28.3197 26.8565 28.1613 26.9989 28.0715L27.7587 27.5815C27.8835 27.5154 27.9866 27.5815 27.9866 27.7632V29.123C28.4519 28.908 28.9714 28.8446 29.4736 28.9413C29.582 29.004 29.6245 29.1407 29.5713 29.2551L29.3054 30.4607C29.2828 30.5525 29.2359 30.6363 29.1697 30.703C29.1476 30.727 29.122 30.7474 29.0937 30.7635C29.0568 30.7761 29.0167 30.7761 28.9798 30.7635C28.4899 30.6546 27.9775 30.7392 27.5471 31.0002C26.9069 31.2812 26.4842 31.9116 26.4617 32.6188C26.4617 33.2354 26.7819 33.4226 27.8564 33.4446C29.2945 33.4446 29.9132 34.1052 29.9295 35.5696C29.9022 37.1029 29.2116 38.5465 28.0409 39.5169ZM36.1813 37.2542C36.2004 37.3699 36.1543 37.4866 36.0619 37.557L32.1328 39.9793C32.0952 40.0118 32.0411 40.016 31.9991 39.9896C31.957 39.9633 31.9365 39.9124 31.9483 39.8637V38.8342C31.9535 38.7214 32.0237 38.6222 32.1274 38.581L35.9968 36.2302C36.0344 36.1978 36.0884 36.1936 36.1305 36.22C36.1726 36.2463 36.1931 36.2972 36.1813 36.3459V37.2542ZM38.8948 14.2367L24.1878 23.4525C22.3535 24.5536 21.0022 25.7592 21.0022 27.9999V46.3764C21.0022 47.7197 21.5449 48.5785 22.3589 48.8428C22.0904 48.894 21.8181 48.9216 21.5449 48.9254C20.6812 48.9234 19.8339 48.6857 19.0919 48.2372L3.54921 38.8783C2.0143 37.9352 1.07918 36.2449 1.08538 34.4245V15.7066C1.07728 13.8843 2.01264 12.1914 3.54921 11.2474L19.0919 1.88845C20.5978 0.983601 22.4702 0.983601 23.9761 1.88845L39.5189 11.2474C40.7997 12.0337 41.6735 13.3531 41.9067 14.8533C41.402 13.7413 40.2406 13.433 38.8893 14.2367H38.8948Z" fill="#1B1B1F"/>
<path fill-rule="evenodd" clip-rule="evenodd" d="M63.1748 25.7923C62.7804 25.3109 62.3111 24.8981 61.7855 24.5701L61.5847 24.449C62.0049 24.1653 62.3847 23.8245 62.7135 23.436C63.4388 22.577 63.8389 21.4841 63.8423 20.3531C63.8757 19.3779 63.6489 18.4116 63.1857 17.5564C62.749 16.7851 62.1414 16.1273 61.4111 15.6351C60.6623 15.127 59.8323 14.7545 58.9581 14.534C58.0701 14.3104 57.1595 14.1922 56.2446 14.1817H50.0145C49.8079 14.1758 49.6076 14.2549 49.4594 14.4011C49.3111 14.5474 49.2275 14.7482 49.2276 14.958V35.1512C49.2319 35.3581 49.3174 35.5547 49.4651 35.6973C49.6129 35.84 49.8106 35.9169 50.0145 35.911H56.7168C57.673 35.9028 58.6233 35.7564 59.5388 35.476C60.427 35.2077 61.2625 34.7849 62.008 34.2264C62.7344 33.6791 63.3329 32.9761 63.7609 32.1674C64.2112 31.2917 64.4335 30.3139 64.4067 29.3267C64.4106 28.67 64.3004 28.0177 64.0811 27.3998C63.8713 26.8156 63.5648 26.272 63.1748 25.7923ZM59.376 21.3551C59.201 21.6591 58.9642 21.9219 58.6813 22.1258C58.3664 22.3526 58.0159 22.5239 57.6448 22.6323C57.2445 22.752 56.8301 22.8168 56.4129 22.825H53.4715V17.9253H56.3043C56.7559 17.9326 57.2054 17.9899 57.6448 18.0959C58.0189 18.1806 58.3753 18.3315 58.6976 18.5419C58.9711 18.7238 59.1981 18.9691 59.3597 19.2576C59.5364 19.5959 59.6207 19.9761 59.6039 20.3586C59.6089 20.7055 59.5227 21.0476 59.3543 21.3496L59.376 21.3551ZM53.4932 26.4749H56.9176C57.3752 26.4869 57.8286 26.5666 58.2635 26.7117C58.6345 26.8289 58.9805 27.0156 59.2837 27.2622C59.5632 27.4994 59.7874 27.7965 59.9404 28.132C60.1065 28.5148 60.1844 28.9308 60.1683 29.3487C60.1774 29.7564 60.0899 30.1605 59.9132 30.5268C59.7437 30.8657 59.5029 31.1627 59.2077 31.3967C58.8811 31.6521 58.5141 31.8494 58.1223 31.9802C57.6969 32.1241 57.252 32.2002 56.8036 32.2059H53.4932V26.4694V26.4749Z" fill="#1B1B1F"/>
<path fill-rule="evenodd" clip-rule="evenodd" d="M76.0909 14.7432C75.9866 14.4135 75.6834 14.1906 75.342 14.1927H73.117C72.7756 14.1906 72.4723 14.4135 72.368 14.7432L65.6115 34.92C65.5353 35.1508 65.5781 35.405 65.7255 35.5971C65.8775 35.7963 66.1122 35.9123 66.3604 35.9109H69.0196C69.361 35.9131 69.6642 35.6902 69.7685 35.3604L71.2772 30.6699H77.1003L78.5819 35.3604C78.6868 35.6921 78.9928 35.9155 79.3362 35.9109H81.9791C82.2263 35.9127 82.4605 35.799 82.6141 35.6026C82.7615 35.4105 82.8043 35.1563 82.728 34.9255L76.0909 14.7432ZM75.9172 26.9374H72.482L74.2132 21.5257L75.9172 26.9374Z" fill="#1B1B1F"/>
<path fill-rule="evenodd" clip-rule="evenodd" d="M98.6994 26.5685C98.3385 26.1004 97.9189 25.6822 97.4512 25.3243C96.9859 24.9677 96.4921 24.651 95.9751 24.3774C95.4477 24.1012 94.904 23.8585 94.347 23.6507C93.8043 23.447 93.2616 23.2653 92.7189 23.1002C92.2577 22.9625 91.7638 22.8029 91.2537 22.6267C90.792 22.4672 90.3481 22.2587 89.9295 22.0046C89.5782 21.7952 89.2704 21.5185 89.0232 21.1899C88.811 20.8883 88.7006 20.5253 88.7085 20.1549C88.6975 19.7869 88.7817 19.4225 88.9527 19.0979C89.1229 18.7905 89.3583 18.5253 89.6419 18.3216C89.9575 18.0938 90.3102 17.9242 90.6839 17.8206C91.5626 17.5652 92.4969 17.5844 93.3648 17.8757C93.7575 18.0124 94.1192 18.2277 94.4284 18.5088C94.7243 18.7899 94.9639 19.1264 95.1339 19.4997C95.3304 19.9341 95.4603 20.3964 95.5192 20.8705C95.5813 21.2574 95.9144 21.539 96.3007 21.5312H99.0142C99.2165 21.5275 99.4102 21.447 99.5569 21.3055C99.7039 21.1618 99.7847 20.962 99.7794 20.7549C99.7698 19.7671 99.5299 18.7955 99.0793 17.9197C98.6432 17.087 98.0428 16.3543 97.3155 15.7672C96.5789 15.1744 95.7474 14.7144 94.8572 14.4074C93.0483 13.797 91.0974 13.7701 89.2729 14.3303C88.3988 14.5797 87.573 14.9781 86.8307 15.5084C86.1131 16.0321 85.5106 16.7014 85.0616 17.4738C84.5939 18.2928 84.3539 19.225 84.3669 20.1714C84.3483 21.106 84.5931 22.0266 85.0724 22.8249C85.534 23.5673 86.1308 24.2138 86.8307 24.7297C87.5276 25.2496 88.2838 25.6821 89.0829 26.018C89.8644 26.3538 90.6459 26.6401 91.4056 26.8768C91.9049 27.0309 92.4241 27.2034 92.9632 27.3943C93.4377 27.5591 93.8928 27.777 94.3199 28.0439C94.6771 28.2638 94.9856 28.5562 95.2262 28.9027C95.4445 29.2423 95.5527 29.6427 95.5355 30.0478C95.5496 30.4146 95.4591 30.7778 95.275 31.0938C95.0867 31.4002 94.8348 31.6613 94.537 31.859C94.2043 32.0769 93.8371 32.2352 93.4516 32.327C92.4973 32.5646 91.4984 32.5456 90.5536 32.2719C90.1191 32.1422 89.7124 31.9312 89.3543 31.6498C89.0112 31.3735 88.7254 31.0311 88.5131 30.6424C88.2789 30.2031 88.128 29.7232 88.0681 29.2275C88.006 28.8407 87.6729 28.5591 87.2866 28.5669H84.5731C84.37 28.5721 84.1763 28.6546 84.0305 28.7981C83.8834 28.9418 83.8026 29.1416 83.8079 29.3487C83.8248 30.3767 84.1014 31.3832 84.6111 32.2719C85.101 33.1111 85.7547 33.8399 86.5323 34.4135C87.3307 35 88.2203 35.4467 89.1643 35.7348C90.1262 36.034 91.1267 36.1861 92.1328 36.1862C93.0493 36.184 93.9616 36.06 94.8463 35.8173C95.7268 35.5903 96.5646 35.2184 97.3264 34.7163C98.0668 34.2175 98.694 33.5644 99.1661 32.8004C99.6648 31.9726 99.9208 31.0178 99.9042 30.0478C99.9106 29.4049 99.8059 28.7658 99.5949 28.1595C99.3827 27.5838 99.0803 27.0465 98.6994 26.5685Z" fill="#1B1B1F"/>
<path fill-rule="evenodd" clip-rule="evenodd" d="M116.136 14.2147H113.624C113.421 14.2058 113.222 14.2791 113.073 14.4185C112.923 14.5579 112.834 14.752 112.826 14.9579V22.891H105.825V14.9579C105.821 14.7511 105.735 14.5545 105.587 14.4118C105.44 14.2692 105.242 14.1923 105.038 14.1982H102.536C102.332 14.1923 102.135 14.2692 101.987 14.4118C101.839 14.5545 101.754 14.7511 101.749 14.9579V35.1512C101.754 35.3581 101.839 35.5546 101.987 35.6973C102.135 35.8399 102.332 35.9168 102.536 35.9109H105.038C105.242 35.9168 105.44 35.8399 105.587 35.6973C105.735 35.5546 105.821 35.3581 105.825 35.1512V26.5795H112.826V35.1512C112.83 35.3581 112.915 35.5546 113.063 35.6973C113.211 35.8399 113.409 35.9168 113.613 35.9109H116.136C116.34 35.9168 116.538 35.8399 116.686 35.6973C116.833 35.5546 116.919 35.3581 116.923 35.1512V14.9579C116.905 14.5335 116.555 14.2023 116.136 14.2147Z" fill="#1B1B1F"/>
<path fill-rule="evenodd" clip-rule="evenodd" d="M51.6317 39.4068H50.682V41.9887H50.1719V39.4068H49.2276V38.9994H51.6317V39.4068Z" fill="#1B1B1F"/>
<path fill-rule="evenodd" clip-rule="evenodd" d="M54.5623 41.9887H54.063V40.6565H53.0102V41.9887H52.5109V38.9994H53.0048V40.2491H54.0576V38.9994H54.5568V41.9887H54.5623Z" fill="#1B1B1F"/>
<path fill-rule="evenodd" clip-rule="evenodd" d="M57.4874 40.6455H56.2121V41.5814H57.7045V41.9887H55.7019V38.9994H57.6936V39.4068H56.2175V40.2491H57.4928V40.6455H57.4874Z" fill="#1B1B1F"/>
<path fill-rule="evenodd" clip-rule="evenodd" d="M61.8995 41.9887V38.9994H62.8872C63.0279 38.9998 63.1681 39.0164 63.3051 39.0489C63.4265 39.0756 63.5423 39.1241 63.647 39.1921C63.7423 39.2562 63.8206 39.3432 63.8749 39.4453C63.9327 39.5572 63.9608 39.6824 63.9563 39.8087C63.9582 39.9469 63.912 40.0813 63.826 40.1885C63.7364 40.2974 63.6205 40.3809 63.4896 40.4308C63.5719 40.4514 63.6506 40.4848 63.7229 40.5299C63.7875 40.5708 63.8445 40.623 63.8912 40.684C63.9359 40.744 63.9707 40.8109 63.9943 40.8822C64.019 40.9567 64.0318 41.0348 64.0323 41.1134C64.0347 41.243 64.0068 41.3713 63.9509 41.4878C63.8984 41.594 63.8222 41.6863 63.7284 41.7575C63.6254 41.8334 63.5095 41.8894 63.3865 41.9227C63.2487 41.9622 63.1063 41.9825 62.9632 41.9832H61.8778L61.8995 41.9887ZM62.4096 40.2821H62.898C62.9694 40.282 63.0406 40.2728 63.1097 40.2546C63.1722 40.2384 63.2311 40.2104 63.2833 40.172C63.3305 40.137 63.3694 40.0919 63.3973 40.0399C63.4267 39.984 63.4416 39.9215 63.4407 39.8582C63.4431 39.7919 63.4301 39.7258 63.4027 39.6655C63.3762 39.6126 63.337 39.5672 63.2888 39.5334C63.2361 39.4969 63.1772 39.4708 63.1151 39.4563C63.0429 39.4487 62.9702 39.4487 62.898 39.4563H62.4096V40.2821ZM62.4096 40.6565V41.6089H62.9523C63.028 41.6077 63.103 41.5947 63.1748 41.5703C63.2378 41.5501 63.2967 41.5184 63.3485 41.4768C63.3963 41.4381 63.4352 41.3892 63.4624 41.3336C63.4913 41.2736 63.5062 41.2077 63.5059 41.1409C63.506 41.0712 63.4931 41.0021 63.4679 40.9372C63.445 40.8804 63.4097 40.8296 63.3648 40.7886C63.3155 40.7462 63.2583 40.7143 63.1965 40.695C63.1265 40.671 63.0533 40.658 62.9794 40.6565H62.4096Z" fill="#1B1B1F"/>
<path fill-rule="evenodd" clip-rule="evenodd" d="M67.1202 40.6895C67.1205 40.8609 67.0968 41.0314 67.0496 41.196C67.0056 41.3511 66.9339 41.4966 66.838 41.6254C66.7456 41.7496 66.6269 41.8512 66.4907 41.9227C66.3389 41.9986 66.1714 42.0364 66.0022 42.0328C65.6763 42.0435 65.366 41.8912 65.1719 41.6254C65.0779 41.4962 65.008 41.3507 64.9657 41.196C64.9187 41.0314 64.8949 40.8609 64.8951 40.6895V40.2821C64.8953 40.1657 64.9062 40.0496 64.9277 39.9353C64.9473 39.8259 64.9782 39.7188 65.0199 39.616C65.0598 39.5185 65.1108 39.4261 65.1719 39.3407C65.2309 39.2583 65.3023 39.1858 65.3836 39.126C65.4678 39.0638 65.5612 39.0155 65.6603 38.9829C65.771 38.9479 65.8864 38.9312 66.0022 38.9333C66.3311 38.9227 66.6447 39.0746 66.8434 39.3407C66.9397 39.4692 67.0115 39.6148 67.0551 39.7701C67.1021 39.9347 67.1259 40.1052 67.1256 40.2766V40.6565L67.1202 40.6895ZM66.6046 40.3041C66.6031 40.1915 66.5923 40.0791 66.5721 39.9683C66.5554 39.8645 66.5224 39.7642 66.4744 39.671C66.4299 39.5876 66.3667 39.5159 66.2899 39.4618C66.203 39.404 66.1006 39.3752 65.9968 39.3792C65.8948 39.3756 65.7942 39.4045 65.7092 39.4618C65.6331 39.5175 65.5716 39.5912 65.5301 39.6765C65.4838 39.77 65.4527 39.8703 65.4378 39.9738C65.4203 40.0849 65.4113 40.1972 65.4107 40.3096V40.695C65.4111 40.8075 65.4202 40.9198 65.4378 41.0308C65.4534 41.1341 65.4845 41.2344 65.5301 41.3281C65.5718 41.4133 65.6333 41.487 65.7092 41.5428C65.794 41.6005 65.8947 41.6294 65.9968 41.6254C66.1006 41.6294 66.203 41.6006 66.2899 41.5428C66.367 41.4868 66.4302 41.4133 66.4744 41.3281C66.5225 41.235 66.5555 41.1346 66.5721 41.0308C66.5919 40.92 66.6027 40.8076 66.6046 40.695V40.2821V40.3041Z" fill="#1B1B1F"/>
<path fill-rule="evenodd" clip-rule="evenodd" d="M70.1484 38.9994V41.0033C70.1489 41.1464 70.1232 41.2882 70.0724 41.4217C70.0264 41.5432 69.9562 41.6538 69.8662 41.7465C69.7735 41.8389 69.6625 41.9102 69.5406 41.9557C69.4033 42.0062 69.2579 42.0305 69.1119 42.0273C68.9694 42.0301 68.8276 42.0059 68.694 41.9557C68.4416 41.8628 68.2429 41.6612 68.1513 41.4052C68.1 41.27 68.0742 41.1262 68.0753 40.9813V38.9994H68.58V41.0033C68.581 41.0891 68.5938 41.1743 68.618 41.2566C68.638 41.3282 68.6712 41.3955 68.7157 41.4547C68.7572 41.5107 68.8111 41.556 68.8731 41.5869C68.943 41.6185 69.0191 41.6335 69.0956 41.6309C69.1738 41.6331 69.2515 41.618 69.3235 41.5869C69.3872 41.5564 69.443 41.5111 69.4863 41.4547C69.5318 41.3961 69.565 41.3287 69.584 41.2566C69.6081 41.1743 69.6208 41.0891 69.622 41.0033V38.9994H70.1267H70.1484Z" fill="#1B1B1F"/>
<path fill-rule="evenodd" clip-rule="evenodd" d="M72.2866 40.8326H71.7439V41.9887H71.2338V38.9994H72.2107C72.3592 38.9999 72.507 39.0202 72.6502 39.0599C72.7757 39.0939 72.8935 39.1518 72.9976 39.2306C73.0948 39.3041 73.173 39.4004 73.2255 39.5114C73.2822 39.6354 73.3101 39.771 73.3069 39.9078C73.3074 40.0013 73.2927 40.0943 73.2635 40.183C73.2377 40.264 73.1992 40.3402 73.1495 40.4087C73.0989 40.4763 73.0385 40.5357 72.9704 40.5849C72.8995 40.6358 72.823 40.6783 72.7425 40.7115L73.3992 41.9667H72.8565L72.2866 40.8326ZM71.7439 40.4363H72.2161C72.2951 40.4375 72.3738 40.4264 72.4494 40.4032C72.5167 40.3826 72.5794 40.349 72.634 40.3041C72.6852 40.2608 72.726 40.2062 72.7534 40.1445C72.7831 40.077 72.7979 40.0037 72.7968 39.9298C72.7991 39.8545 72.7862 39.7796 72.7588 39.7096C72.7341 39.6462 72.695 39.5896 72.6448 39.5444C72.5907 39.4988 72.5279 39.4651 72.4603 39.4453C72.3811 39.4208 72.2989 39.4078 72.2161 39.4068H71.7494V40.4308L71.7439 40.4363Z" fill="#1B1B1F"/>
<path fill-rule="evenodd" clip-rule="evenodd" d="M76.3731 41.9887H75.8575L74.8481 39.9298V41.9887H74.3054V38.9994H74.8481L75.8521 41.0529V38.9994H76.3948V41.9887H76.3731Z" fill="#1B1B1F"/>
<path fill-rule="evenodd" clip-rule="evenodd" d="M79.2982 40.6455H78.0229V41.5814H79.5153V41.9887H77.5127V38.9994H79.5044V39.4068H78.0283V40.2491H79.3036V40.6455H79.2982Z" fill="#1B1B1F"/>
<path fill-rule="evenodd" clip-rule="evenodd" d="M82.4892 40.8767H80.7852V40.4803H82.4892V40.8767Z" fill="#1B1B1F"/>
<path fill-rule="evenodd" clip-rule="evenodd" d="M85.2027 41.2951H84.2367L84.025 41.9887H83.4823L84.4863 38.9994H84.9367L85.9244 41.9887H85.3817L85.2027 41.2951ZM84.3669 40.8767H85.0778L84.7251 39.7041L84.3669 40.8767Z" fill="#1B1B1F"/>
<path fill-rule="evenodd" clip-rule="evenodd" d="M88.9093 41.6144C88.8541 41.6764 88.7922 41.7318 88.7248 41.7795C88.6503 41.8325 88.5702 41.8768 88.486 41.9117C88.3932 41.9507 88.2969 41.9802 88.1983 41.9998C88.0893 42.0217 87.9784 42.0328 87.8673 42.0328C87.6974 42.0379 87.5286 42.004 87.3735 41.9337C87.2329 41.8666 87.1088 41.7689 87.0099 41.6474C86.9074 41.5205 86.83 41.3747 86.7819 41.218C86.7263 41.04 86.6988 40.8542 86.7005 40.6675V40.3096C86.6968 40.1232 86.7224 39.9373 86.7765 39.7591C86.8237 39.6032 86.8991 39.4575 86.999 39.3297C87.0943 39.209 87.2148 39.1112 87.3517 39.0434C87.5006 38.9708 87.6642 38.935 87.8293 38.9388C87.9748 38.9377 88.1195 38.96 88.258 39.0049C88.3774 39.043 88.488 39.1047 88.5837 39.1866C88.6756 39.2671 88.7496 39.3666 88.8007 39.4783C88.8565 39.5999 88.8913 39.7302 88.9038 39.8637H88.4046C88.3932 39.79 88.3732 39.7179 88.3449 39.649C88.3199 39.5872 88.283 39.531 88.2363 39.4838C88.19 39.4376 88.1345 39.4019 88.0735 39.3792C88.0004 39.3529 87.9232 39.3399 87.8456 39.3407C87.7479 39.338 87.6515 39.3649 87.5688 39.4178C87.4906 39.4718 87.4256 39.5434 87.3789 39.627C87.3249 39.7209 87.2864 39.8232 87.2649 39.9298C87.2405 40.0475 87.2277 40.1673 87.2269 40.2876V40.662C87.2274 40.7823 87.2401 40.9022 87.2649 41.0198C87.2875 41.1269 87.3278 41.2293 87.3843 41.3226C87.4358 41.4079 87.5065 41.4796 87.5905 41.5318C87.6825 41.5869 87.7876 41.6155 87.8944 41.6144H88.041L88.1875 41.5869L88.3123 41.5373C88.3479 41.5182 88.3793 41.492 88.4046 41.4602V40.8326H87.8619V40.4473H88.9473V41.5869L88.9093 41.6144Z" fill="#1B1B1F"/>
<path fill-rule="evenodd" clip-rule="evenodd" d="M91.4491 41.2951H90.4831L90.2714 41.9887H89.7287L90.7327 38.9994H91.1723L92.16 41.9887H91.6173L91.4491 41.2951ZM90.6296 40.8712H91.3405L90.9878 39.6986L90.6296 40.8712Z" fill="#1B1B1F"/>
<path fill-rule="evenodd" clip-rule="evenodd" d="M93.1314 38.9994H94.9712V39.4068H94.2982V41.5814H94.9712V41.9887H93.126V41.5814H93.7826V39.4068H93.126V38.9994H93.1314Z" fill="#1B1B1F"/>
<path fill-rule="evenodd" clip-rule="evenodd" d="M98.1839 41.9887H97.6846L96.6752 39.9298V41.9887H96.1325V38.9994H96.6752L97.6846 41.0529V38.9994H98.2273V41.9887H98.1839Z" fill="#1B1B1F"/>
<path fill-rule="evenodd" clip-rule="evenodd" d="M104.023 41.218C104.025 41.1528 104.01 41.0882 103.98 41.0308C103.947 40.9743 103.903 40.9255 103.85 40.8877C103.788 40.8425 103.72 40.8055 103.649 40.7776L103.399 40.695C103.277 40.6606 103.158 40.6183 103.041 40.5684C102.929 40.52 102.823 40.4571 102.726 40.3812C102.635 40.3104 102.557 40.2226 102.498 40.1224C102.439 40.019 102.409 39.9008 102.411 39.7811C102.41 39.6598 102.44 39.5401 102.498 39.4343C102.557 39.3321 102.637 39.2438 102.732 39.1755C102.834 39.1012 102.947 39.0453 103.068 39.0104C103.199 38.9726 103.334 38.9541 103.47 38.9553C103.612 38.9542 103.753 38.9765 103.888 39.0214C104.012 39.0624 104.128 39.1258 104.229 39.2086C104.326 39.2864 104.406 39.3839 104.463 39.4948C104.52 39.6092 104.55 39.7355 104.55 39.8637H104.04C104.034 39.7936 104.017 39.7249 103.991 39.66C103.966 39.5998 103.929 39.5454 103.882 39.5003C103.832 39.4536 103.773 39.418 103.708 39.3957C103.632 39.3689 103.551 39.3559 103.47 39.3572C103.398 39.3564 103.327 39.3656 103.258 39.3847C103.197 39.4014 103.14 39.4294 103.09 39.4673C103.043 39.5023 103.004 39.5474 102.976 39.5994C102.949 39.6541 102.936 39.7146 102.938 39.7756C102.936 39.8406 102.955 39.9044 102.992 39.9573C103.033 40.01 103.082 40.0548 103.139 40.0894C103.203 40.1303 103.273 40.1635 103.345 40.1885L103.567 40.2821C103.694 40.3187 103.817 40.3647 103.936 40.4197C104.048 40.4694 104.152 40.5342 104.246 40.6124C104.332 40.6858 104.404 40.7755 104.457 40.8767C104.512 40.9818 104.54 41.0991 104.539 41.218C104.542 41.3412 104.512 41.463 104.452 41.5703C104.394 41.6713 104.314 41.7578 104.219 41.8236C104.114 41.8946 103.999 41.9468 103.877 41.9777C103.744 42.0122 103.607 42.0289 103.47 42.0273C103.376 42.0361 103.281 42.0361 103.188 42.0273C103.094 42.0096 103.003 41.9819 102.916 41.9447C102.832 41.9101 102.752 41.8657 102.677 41.8126C102.604 41.7616 102.538 41.7004 102.482 41.6309C102.367 41.4858 102.304 41.3052 102.303 41.1189H102.813C102.817 41.201 102.838 41.2815 102.873 41.3556C102.905 41.4202 102.952 41.4766 103.008 41.5208C103.069 41.5664 103.137 41.6001 103.209 41.6199C103.29 41.6428 103.375 41.6539 103.459 41.6529C103.531 41.6622 103.604 41.6622 103.676 41.6529C103.738 41.6377 103.797 41.6117 103.85 41.5758C103.911 41.5266 103.957 41.4593 103.98 41.3831C104.007 41.3325 104.022 41.2758 104.023 41.218Z" fill="#1B1B1F"/>
<path fill-rule="evenodd" clip-rule="evenodd" d="M107.535 41.9887H107.035V40.6565H105.982V41.9887H105.489V38.9994H105.982V40.2491H107.035V38.9994H107.535V41.9887Z" fill="#1B1B1F"/>
<path fill-rule="evenodd" clip-rule="evenodd" d="M110.46 40.6455H109.184V41.5814H110.677V41.9887H108.674V38.9994H110.666V39.4068H109.19V40.2491H110.465V40.6455H110.46Z" fill="#1B1B1F"/>
<path fill-rule="evenodd" clip-rule="evenodd" d="M112.337 41.5869H113.813V41.9887H111.795V38.9994H112.337V41.5869Z" fill="#1B1B1F"/>
<path fill-rule="evenodd" clip-rule="evenodd" d="M115.436 41.5869H116.912V41.9887H114.926V38.9994H115.436V41.5869Z" fill="#1B1B1F"/>
</g>
<defs>
<clipPath id="clip0_17_65">
<rect width="117" height="50" fill="white" transform="translate(0 0.09375)"/>
</clipPath>
</defs>
</svg>
