<svg width="20" height="20" viewBox="0 0 20 20" fill="none" xmlns="http://www.w3.org/2000/svg">
<rect width="20" height="20" rx="10" fill="#E7332B"/>
<path d="M11.0218 6.98661C11.8514 6.98661 12.5239 6.3141 12.5239 5.48452C12.5239 4.65493 11.8514 3.98242 11.0218 3.98242C10.1922 3.98242 9.51971 4.65493 9.51971 5.48452C9.51971 6.3141 10.1922 6.98661 11.0218 6.98661Z" fill="#FFFAED"/>
<path d="M12.5577 13.0815C12.5162 13.0536 12.4696 13.0342 12.4205 13.0246C12.3714 13.0149 12.3209 13.0152 12.272 13.0253C12.223 13.0355 12.1765 13.0553 12.1353 13.0836C12.0941 13.112 12.059 13.1483 12.032 13.1904C11.669 13.728 11.2243 14.2056 10.7139 14.6061C10.59 14.7 10.1281 15.0567 9.93282 14.9816C9.79763 14.9403 9.87649 14.6737 9.90278 14.561L10.1018 13.9715C10.1844 13.7311 11.6227 9.46518 11.7804 8.977C12.0132 8.26351 11.9118 7.56128 10.8491 7.73026C10.5599 7.76031 7.62711 8.13958 7.57453 8.14334C7.52522 8.14655 7.47702 8.15943 7.43268 8.18127C7.38835 8.2031 7.34875 8.23345 7.31615 8.27059C7.28354 8.30773 7.25857 8.35092 7.24266 8.39771C7.22675 8.4445 7.22021 8.49396 7.22342 8.54327C7.22662 8.59259 7.23951 8.64079 7.26134 8.68512C7.28318 8.72946 7.31353 8.76905 7.35067 8.80166C7.3878 8.83426 7.431 8.85923 7.47779 8.87514C7.52457 8.89105 7.57404 8.89759 7.62335 8.89439C7.62335 8.89439 8.74992 8.74793 8.87384 8.73667C8.93732 8.73047 9.00123 8.74277 9.05787 8.77209C9.11451 8.80141 9.16145 8.84649 9.19304 8.9019C9.26108 9.11224 9.25176 9.33997 9.16675 9.54404C9.06912 9.91957 7.52571 14.2681 7.4769 14.5197C7.42454 14.7303 7.43907 14.9519 7.51849 15.1538C7.5979 15.3557 7.73825 15.5278 7.92001 15.6463C8.26118 15.8737 8.6674 15.9832 9.07663 15.958C9.47452 15.9531 9.86802 15.8742 10.237 15.7252C11.172 15.3496 12.1484 14.3507 12.6629 13.5659C12.7072 13.4862 12.7209 13.393 12.7016 13.3039C12.6822 13.2147 12.6311 13.1357 12.5577 13.0815Z" fill="#FFFAED"/>
</svg>
