<svg width="47" height="65" viewBox="0 0 47 65" fill="none" xmlns="http://www.w3.org/2000/svg">
<g clip-path="url(#clip0_2_456)">
<path d="M23.5736 64.1114L5.1561 59.0134L1.05176 13.1133H46.1505L42.0419 59.0064L23.5736 64.1114Z" fill="#264DE4"/>
<path d="M38.525 56.084L42.0358 16.8662H23.6016V60.2092L38.525 56.084Z" fill="#2965F1"/>
<path d="M10.4612 33.8902L10.9671 39.5197H23.6015V33.8902H10.4612ZM9.44434 22.4961L9.95753 28.1256H23.6015V22.4961H9.44434ZM23.6015 48.5106L23.5768 48.5171L17.289 46.8242L16.887 42.3345H11.2194L12.0103 51.1736L23.5756 54.3746L23.6015 54.3676V48.5106Z" fill="#EBEBEB"/>
<path d="M11.666 0.639648H18.5039V3.49095H14.5256V6.34226H18.5043V9.19339H11.666V0.639648ZM19.8717 0.639648H26.7098V3.11903H22.7313V3.61487H26.7098V9.31748H19.8719V6.71383H23.8503V6.21799H19.8715V0.639648H19.8717ZM28.0775 0.639648H34.9156V3.11903H30.9372V3.61487H34.9156V9.31748H28.0775V6.71383H32.056V6.21799H28.0777V0.639648H28.0775Z" fill="black"/>
<path d="M36.7059 33.8902L37.7251 22.4961H23.5822V28.1256H31.5377L31.024 33.8902H23.5822V39.5197H30.5345L29.879 46.8207L23.582 48.5153V54.372L35.1565 51.1736L35.2413 50.2225L36.5682 35.4019L36.7059 33.8902Z" fill="white"/>
</g>
<defs>
<clipPath id="clip0_2_456">
<rect width="45.2598" height="63.6327" fill="white" transform="translate(0.97168 0.639648)"/>
</clipPath>
</defs>
</svg>
