<svg width="111" height="56" viewBox="0 0 111 56" fill="none" xmlns="http://www.w3.org/2000/svg">
<path d="M16.7616 9.97681H22.3088V35.6537C19.4635 36.1942 17.3739 36.4103 15.1041 36.4103C8.33137 36.4103 4.80115 33.3489 4.80115 27.4771C4.80115 21.8214 8.54741 18.1478 14.3465 18.1478C15.2475 18.1478 15.9315 18.2195 16.7598 18.4355L16.7616 9.97681ZM16.7616 22.9026C16.1135 22.6865 15.5729 22.6148 14.8889 22.6148C12.0795 22.6148 10.4578 24.3432 10.4578 27.3696C10.4578 30.3234 12.0068 31.9442 14.8522 31.9442C15.4913 31.943 16.1295 31.895 16.7616 31.8008V22.9026ZM31.1344 18.5449V31.4045C31.1344 35.8357 30.8099 37.9593 29.8473 39.798C28.9464 41.5631 27.7577 42.6801 25.3086 43.9046L20.1576 41.4546C22.6076 40.3018 23.7954 39.2942 24.552 37.7442C25.3445 36.1593 25.5973 34.3225 25.5973 29.4951V18.5551L31.1344 18.5449ZM25.5872 10.009H31.1344V15.7088H25.5872V10.009ZM34.4844 19.8053C36.9344 18.6525 39.2649 18.1487 41.8335 18.1487C44.6789 18.1487 46.5525 18.9053 47.3808 20.3827C47.8404 21.2101 47.9931 22.2921 47.9931 24.5978V35.8789C45.5072 36.2393 42.3732 36.4912 40.0684 36.4912C35.4221 36.4912 33.3325 34.8695 33.3325 31.2675C33.3325 27.3769 36.1061 25.5677 42.9147 24.9996V23.775C42.9147 22.7665 42.409 22.396 41.0052 22.396C38.9524 22.396 36.6476 22.9724 34.4854 24.0894V19.8026L34.4844 19.8053ZM43.1657 28.6309C39.4911 28.9913 38.2932 29.5686 38.2932 31.0083C38.2932 32.0885 38.9781 32.5932 40.4996 32.5932C41.327 32.5932 42.0845 32.5215 43.1657 32.3413V28.6309ZM50.7042 19.41C53.9816 18.5459 56.6835 18.1506 59.4212 18.1506C62.2665 18.1506 64.3212 18.7987 65.5458 20.06C66.6986 21.2487 67.0581 22.5449 67.0581 25.3186V36.197H61.5109V25.5328C61.5109 23.4073 60.7901 22.6148 58.808 22.6148C58.0514 22.6148 57.3674 22.6865 56.2505 23.0101V36.1933H50.694L50.7042 19.41ZM69.2056 39.2216C71.1509 40.2301 73.0962 40.698 75.1491 40.698C78.7869 40.698 80.336 39.2216 80.336 35.6913V35.5829C79.2557 36.1225 78.1755 36.3395 76.734 36.3395C71.8616 36.3395 68.7726 33.1338 68.7726 28.0545C68.7726 21.7497 73.3481 18.1846 81.452 18.1846C83.8294 18.1846 86.0275 18.4365 88.6926 18.977L86.7933 22.9789C85.316 22.6911 86.6738 22.9403 85.5587 22.8318V23.4082L85.6304 25.7488L85.6671 28.7752C85.7039 29.5318 85.7039 30.2885 85.7407 31.0441V32.5574C85.7407 37.3121 85.3454 39.5443 84.1558 41.3829C82.4274 44.0857 79.4369 45.428 75.1859 45.428C73.0255 45.428 71.1519 45.1034 69.2066 44.3468V39.2317L69.2056 39.2216ZM80.2376 22.6516H79.6612C78.581 22.6148 77.3206 22.9035 76.4555 23.4441C75.1224 24.2007 74.4385 25.5695 74.4385 27.5148C74.4385 30.2885 75.8175 31.8725 78.2574 31.8725C79.014 31.8725 79.6363 31.7281 80.3461 31.5121V29.6026C80.3461 28.9545 80.3093 28.2236 80.3093 27.4771L80.2725 24.9196L80.2357 23.0828V22.6507L80.2376 22.6516ZM97.304 18.077C102.851 18.077 106.237 21.5705 106.237 27.2271C106.237 33.0189 102.707 36.6649 97.087 36.6649C91.5398 36.6649 88.1171 33.1715 88.1171 27.5516C88.1171 21.7157 91.6474 18.0779 97.3031 18.0779L97.304 18.077ZM97.1955 32.1979C99.321 32.1979 100.582 30.4328 100.582 27.3714C100.582 24.3376 99.3578 22.5449 97.2323 22.5449C95.0259 22.5449 93.7738 24.3101 93.7738 27.3714C93.7738 30.4328 95.0351 32.1979 97.1955 32.1979Z" fill="#092E20"/>
</svg>
