<svg width="184" height="130" viewBox="0 0 184 130" fill="none" xmlns="http://www.w3.org/2000/svg">
<circle cx="5.51604" cy="124.948" r="3.90178" stroke="white" stroke-width="2"/>
<circle cx="5.51604" cy="100.986" r="3.90178" stroke="white" stroke-width="2"/>
<circle cx="5.51604" cy="77.0243" r="3.90178" stroke="white" stroke-width="2"/>
<circle cx="5.51604" cy="53.0624" r="3.90178" stroke="white" stroke-width="2"/>
<circle cx="5.51604" cy="29.101" r="3.90178" stroke="white" stroke-width="2"/>
<circle cx="5.51604" cy="5.13909" r="3.90178" stroke="white" stroke-width="2"/>
<circle cx="27.099" cy="124.948" r="3.90178" stroke="white" stroke-width="2"/>
<circle cx="27.099" cy="100.986" r="3.90178" stroke="white" stroke-width="2"/>
<circle cx="27.099" cy="77.0243" r="3.90178" stroke="white" stroke-width="2"/>
<circle cx="27.099" cy="53.0624" r="3.90178" stroke="white" stroke-width="2"/>
<circle cx="27.099" cy="29.101" r="3.90178" stroke="white" stroke-width="2"/>
<circle cx="27.099" cy="5.13909" r="3.90178" stroke="white" stroke-width="2"/>
<circle cx="48.6821" cy="124.948" r="3.90178" stroke="white" stroke-width="2"/>
<circle cx="48.6821" cy="100.986" r="3.90178" stroke="white" stroke-width="2"/>
<circle cx="48.6821" cy="77.0243" r="3.90178" stroke="white" stroke-width="2"/>
<circle cx="48.6821" cy="53.0624" r="3.90178" stroke="white" stroke-width="2"/>
<circle cx="48.6821" cy="29.101" r="3.90178" stroke="white" stroke-width="2"/>
<circle cx="48.6821" cy="5.13909" r="3.90178" stroke="white" stroke-width="2"/>
<circle cx="70.2651" cy="124.948" r="3.90178" stroke="white" stroke-width="2"/>
<circle cx="70.2651" cy="100.986" r="3.90178" stroke="white" stroke-width="2"/>
<circle cx="70.2651" cy="77.0243" r="3.90178" stroke="white" stroke-width="2"/>
<circle cx="70.2651" cy="53.0624" r="3.90178" stroke="white" stroke-width="2"/>
<circle cx="70.2651" cy="29.101" r="3.90178" stroke="white" stroke-width="2"/>
<circle cx="70.2651" cy="5.13909" r="3.90178" stroke="white" stroke-width="2"/>
<circle cx="91.8481" cy="124.948" r="3.90178" stroke="white" stroke-width="2"/>
<circle cx="91.8481" cy="100.986" r="3.90178" stroke="white" stroke-width="2"/>
<circle cx="91.8481" cy="77.0243" r="3.90178" stroke="white" stroke-width="2"/>
<circle cx="91.8481" cy="53.0624" r="3.90178" stroke="white" stroke-width="2"/>
<circle cx="91.8481" cy="29.101" r="3.90178" stroke="white" stroke-width="2"/>
<circle cx="91.8481" cy="5.13909" r="3.90178" stroke="white" stroke-width="2"/>
<circle cx="113.432" cy="124.948" r="3.90178" stroke="white" stroke-width="2"/>
<circle cx="113.432" cy="100.986" r="3.90178" stroke="white" stroke-width="2"/>
<circle cx="113.432" cy="77.0243" r="3.90178" stroke="white" stroke-width="2"/>
<circle cx="113.432" cy="53.0624" r="3.90178" stroke="white" stroke-width="2"/>
<circle cx="113.432" cy="29.101" r="3.90178" stroke="white" stroke-width="2"/>
<circle cx="113.432" cy="5.13909" r="3.90178" stroke="white" stroke-width="2"/>
<circle cx="135.015" cy="124.948" r="3.90178" stroke="white" stroke-width="2"/>
<circle cx="135.015" cy="100.986" r="3.90178" stroke="white" stroke-width="2"/>
<circle cx="135.015" cy="77.0243" r="3.90178" stroke="white" stroke-width="2"/>
<circle cx="135.015" cy="53.0624" r="3.90178" stroke="white" stroke-width="2"/>
<circle cx="135.015" cy="29.101" r="3.90178" stroke="white" stroke-width="2"/>
<circle cx="135.015" cy="5.13909" r="3.90178" stroke="white" stroke-width="2"/>
<circle cx="156.598" cy="124.948" r="3.90178" stroke="white" stroke-width="2"/>
<circle cx="156.598" cy="100.986" r="3.90178" stroke="white" stroke-width="2"/>
<circle cx="156.598" cy="77.0243" r="3.90178" stroke="white" stroke-width="2"/>
<circle cx="156.598" cy="53.0624" r="3.90178" stroke="white" stroke-width="2"/>
<circle cx="156.598" cy="29.101" r="3.90178" stroke="white" stroke-width="2"/>
<circle cx="156.598" cy="5.13909" r="3.90178" stroke="white" stroke-width="2"/>
<circle cx="178.181" cy="124.948" r="3.90178" stroke="white" stroke-width="2"/>
<circle cx="178.181" cy="100.986" r="3.90178" stroke="white" stroke-width="2"/>
<circle cx="178.181" cy="77.0243" r="3.90178" stroke="white" stroke-width="2"/>
<circle cx="178.181" cy="53.0624" r="3.90178" stroke="white" stroke-width="2"/>
<circle cx="178.181" cy="29.101" r="3.90178" stroke="white" stroke-width="2"/>
<circle cx="178.181" cy="5.13909" r="3.90178" stroke="white" stroke-width="2"/>
</svg>
