<svg width="119" height="60" viewBox="0 0 119 60" fill="none" xmlns="http://www.w3.org/2000/svg">
<path d="M18.3669 53.5122C22.6707 53.5122 26.1645 50.0184 26.1645 45.7146V37.917H18.3669C14.0631 37.917 10.5693 41.4108 10.5693 45.7146C10.5693 50.0184 14.0631 53.5122 18.3669 53.5122Z" fill="#0ACF83"/>
<path d="M10.5615 30.1111C10.5615 25.8072 14.0553 22.3135 18.3591 22.3135H26.1567V37.9168H18.3591C14.0553 37.9168 10.5615 34.423 10.5615 30.1192V30.1111Z" fill="#A259FF"/>
<path d="M10.5615 14.5075C10.5615 10.2037 14.0553 6.70996 18.3591 6.70996H26.1567V22.3133H18.3591C14.0553 22.3133 10.5615 18.8195 10.5615 14.5157V14.5075Z" fill="#F24E1E"/>
<path d="M26.0908 6.71005H33.8884C38.1922 6.71005 41.686 10.2038 41.686 14.5076C41.686 18.8114 38.1922 22.3052 33.8884 22.3052H26.0908V6.71005Z" fill="#FF7262"/>
<path d="M41.7678 30.111C41.7678 34.4148 38.274 37.9086 33.9702 37.9086C29.6664 37.9086 26.0908 34.4148 26.0908 30.111C26.0908 25.8072 29.5846 22.3134 33.8884 22.3134C38.1922 22.3134 41.686 25.8072 41.686 30.111H41.7678Z" fill="#1ABCFE"/>
<path d="M50.2939 19.6377V35.9856H52.3968V28.1799H57.4533V26.1507H52.3968V21.6832H58.967V19.6377H50.2939ZM62.7717 22.9596C63.5327 22.9596 64.1463 22.346 64.1463 21.585C64.1463 20.8241 63.5245 20.2923 62.7717 20.2923C62.019 20.2923 61.3971 20.9059 61.3971 21.6669C61.3971 22.0351 61.5444 22.3787 61.8062 22.6487C62.068 22.9187 62.4117 23.0578 62.7881 23.0578L62.7717 22.9596ZM61.708 25.0215V35.9856H63.729V25.0215H61.6426H61.708ZM71.6248 24.6943C68.8265 24.6943 66.8791 27.1489 66.8791 29.8654C66.8791 32.5818 68.8429 35.0201 71.6248 35.0201C72.2036 35.0303 72.7783 34.9198 73.3122 34.6959C73.846 34.4719 74.3275 34.1393 74.7258 33.7192V35.1756C74.72 36.0506 74.3805 36.8905 73.7767 37.5239C73.4716 37.8351 73.1075 38.0822 72.7057 38.2508C72.3038 38.4194 71.8724 38.5061 71.4366 38.5057C70.7675 38.4846 70.1191 38.2684 69.5711 37.8839L68.5074 39.7085C69.3242 40.2338 70.2677 40.5291 71.2382 40.5633C72.2088 40.5976 73.1707 40.3694 74.0225 39.9029C74.8743 39.4363 75.5845 38.7487 76.0784 37.9125C76.5722 37.0762 76.8314 36.1222 76.8286 35.151V25.0052H74.7258V25.987C74.3275 25.5669 73.846 25.2343 73.3122 25.0103C72.7783 24.7864 72.2036 24.6759 71.6248 24.6861V24.6943ZM68.9901 29.8654C68.9422 29.3334 69.044 28.7987 69.284 28.3215C69.524 27.8444 69.8927 27.4439 70.3484 27.1653C71.2811 26.5925 72.4512 26.5925 73.3758 27.1653C74.3003 27.738 74.824 28.7853 74.734 29.8654C74.7819 30.3973 74.6801 30.9321 74.4401 31.4092C74.2001 31.8863 73.8314 32.2868 73.3758 32.5655C72.443 33.1382 71.273 33.1382 70.3484 32.5655C69.4238 31.9927 68.9001 30.9454 68.9901 29.8654Z" fill="black"/>
<path d="M84.413 26.8382C83.8082 26.8403 83.2288 27.0815 82.8012 27.5092C82.3735 27.9368 82.1323 28.5162 82.1302 29.121V36.0594H80.0273V25.0954H82.1302V26.0199C82.7684 25.169 83.7829 24.6781 84.8466 24.6944C86.1885 24.6617 87.4404 25.3817 88.1031 26.5518C88.9213 25.4063 90.0996 24.7108 91.376 24.6944C93.7733 24.6944 95.2625 26.6254 95.2707 29.0146V35.994H93.1679V29.0391C93.2295 28.6059 93.1658 28.1641 92.9842 27.7659C92.8026 27.3678 92.5109 27.03 92.1433 26.7924C91.7758 26.5549 91.348 26.4275 90.9104 26.4255C90.4728 26.4235 90.0438 26.5468 89.6741 26.7809C89.3064 27.0206 89.0154 27.3608 88.8355 27.7612C88.6556 28.1615 88.5945 28.6051 88.6595 29.0391V35.9776H86.6385V29.0473C86.6364 28.4426 86.3952 27.8632 85.9675 27.4355C85.5399 27.0079 84.9605 26.7667 84.3557 26.7645L84.413 26.8382ZM106.505 26.2654C106.026 25.766 105.45 25.3697 104.813 25.1009C104.176 24.8322 103.49 24.6966 102.798 24.7026C99.6645 24.7026 97.4798 27.3536 97.4798 30.4301C97.4798 33.5066 99.689 36.1576 102.798 36.1576C103.49 36.1636 104.176 36.028 104.813 35.7593C105.45 35.4905 106.026 35.0943 106.505 34.5948V35.8385H108.608V24.8744H106.505V26.2654ZM99.5499 30.5201C99.4436 29.211 100.082 27.9509 101.203 27.2636C102.324 26.5763 103.657 26.5763 104.852 27.2636C105.399 27.6032 105.843 28.0864 106.134 28.6606C106.425 29.2349 106.554 29.878 106.505 30.5201C106.611 31.8293 105.973 33.0893 104.852 33.7766C103.731 34.4639 102.397 34.4639 101.203 33.7766C100.656 33.437 100.212 32.9538 99.9207 32.3796C99.6293 31.8054 99.501 31.1622 99.5499 30.5201Z" fill="black"/>
</svg>
