<svg width="62" height="62" viewBox="0 0 62 62" fill="none" xmlns="http://www.w3.org/2000/svg">
<rect x="0.350586" y="0.524414" width="61" height="61" rx="30.5" fill="#EFF3FF"/>
<path d="M41.2882 13.3176H20.4129C16.387 13.3176 13.1439 16.5607 13.1439 20.5867V41.462C13.1439 45.4508 16.3869 48.7311 20.4129 48.7311H41.2882C45.277 48.7311 48.5573 45.488 48.5573 41.462V20.5867C48.5573 16.5608 45.3143 13.3176 41.2882 13.3176ZM45.7987 41.462C45.7987 43.9596 43.7858 45.9727 41.288 45.9727L20.4127 45.9724C17.9151 45.9724 15.902 43.9596 15.902 41.4617L15.9022 20.5864C15.9022 18.0889 17.9151 16.0758 20.4129 16.0758L41.2882 16.076C43.7858 16.076 45.7989 18.0889 45.7989 20.5867L45.7987 41.462Z" fill="#668CFF"/>
<path d="M27.1974 26.5511C27.1974 27.9097 26.0959 29.0114 24.737 29.0114C23.3782 29.0114 22.2767 27.9097 22.2767 26.5511C22.2767 25.1922 23.3782 24.0907 24.737 24.0907C26.0959 24.0907 27.1974 25.1922 27.1974 26.5511Z" fill="#668CFF"/>
<path d="M38.7161 27.5575L37.1504 26.551L38.7161 25.5444C39.2008 25.209 39.3498 24.5379 39.0515 24.0535C38.7161 23.5688 38.045 23.4198 37.5606 23.718L34.5783 25.6563C34.2801 25.8427 34.0936 26.1781 34.0936 26.551C34.0936 26.9239 34.2801 27.2593 34.5783 27.4457L37.5231 29.3468C37.7095 29.4586 37.896 29.5332 38.1196 29.5332C38.455 29.5332 38.8279 29.3468 39.0143 29.0485C39.3497 28.5267 39.2007 27.893 38.7161 27.5576L38.7161 27.5575Z" fill="#668CFF"/>
<path d="M37.5232 34.342C36.8524 34.0066 36.0323 34.3048 35.6966 34.9757C34.8018 36.8396 32.938 37.9951 30.8504 37.9951C28.7629 37.9951 26.8991 36.8396 26.0043 34.9757C25.6689 34.3048 24.8488 34.0066 24.1777 34.342C23.5068 34.6775 23.2085 35.4975 23.544 36.1687C24.8862 38.9271 27.7567 40.7165 30.851 40.7165C33.9454 40.7165 36.8155 38.9273 38.1574 36.1687C38.4928 35.4975 38.1945 34.6774 37.5234 34.342H37.5232Z" fill="#668CFF"/>
</svg>
