<svg width="62" height="62" viewBox="0 0 62 62" fill="none" xmlns="http://www.w3.org/2000/svg">
<rect x="0.515625" y="0.172852" width="61" height="61" rx="30.5" fill="#E5FFF2"/>
<path d="M16.8241 34.1839C16.7338 34.3657 16.6542 34.5253 16.5962 34.6648V34.665C16.2773 35.4564 16.1177 36.3029 16.1266 37.1562V43.547C16.1197 44.0052 16.2823 44.4498 16.5833 44.7955C16.884 45.1413 17.3018 45.3638 17.7565 45.4204C18.1985 45.4626 18.6405 45.3424 19.0001 45.0825C19.289 45.561 19.7848 45.8771 20.3403 45.937C20.7812 45.9798 21.2223 45.8594 21.5804 45.5986C21.8692 46.0774 22.3651 46.3937 22.921 46.4536C22.979 46.4592 23.0367 46.4625 23.094 46.4625H23.0942C23.545 46.4631 23.9801 46.2955 24.3144 45.9928C24.3401 45.969 24.3661 45.9448 24.3899 45.9199C24.4141 45.9448 24.4416 45.969 24.4647 45.9928C24.8444 46.3357 25.3506 46.5029 25.8598 46.4536C26.2583 46.4062 26.6305 46.23 26.9198 45.9519C27.2091 45.6736 27.3998 45.3089 27.4629 44.9125H31.626C32.7541 44.9255 33.861 45.2189 34.8472 45.7667C35.0291 45.857 35.1887 45.9366 35.3281 45.9946L35.3284 45.9944C36.12 46.3129 36.9665 46.472 37.8196 46.4625H44.2104C44.6685 46.4694 45.1131 46.3068 45.4589 46.0058C45.8046 45.705 46.0272 45.2873 46.0838 44.8326C46.1264 44.3906 46.0062 43.9484 45.7458 43.589C46.2243 43.3001 46.5405 42.8043 46.6004 42.2488C46.6424 41.8079 46.5221 41.367 46.262 41.0087C46.7407 40.7198 47.0571 40.224 47.117 39.6681C47.1667 39.1588 46.9993 38.6524 46.6562 38.2732C46.6324 38.2474 46.6082 38.2215 46.5833 38.1977C46.6082 38.1735 46.6324 38.146 46.6562 38.1229V38.1227C46.9989 37.7432 47.1663 37.237 47.117 36.7278C47.0692 36.3297 46.8929 35.9578 46.6149 35.6689C46.3368 35.3798 45.972 35.1893 45.5759 35.1261V30.963C45.5888 29.8349 45.8823 28.728 46.43 27.7418C46.5204 27.56 46.5999 27.4004 46.6579 27.2609L46.6577 27.2607C46.9762 26.4691 47.1353 25.6225 47.1258 24.7695V18.3787C47.1327 17.9205 46.9701 17.4759 46.6691 17.1302C46.3684 16.7844 45.9506 16.5619 45.4959 16.5053C45.0539 16.4631 44.6119 16.5833 44.2523 16.8432C43.9634 16.3647 43.4676 16.0486 42.9121 15.9886C42.4714 15.9476 42.0307 16.068 41.672 16.3271C41.3825 15.8474 40.8849 15.5309 40.3277 15.4721C39.8185 15.4221 39.3121 15.5895 38.9328 15.9329C38.9071 15.9567 38.8812 15.9809 38.8574 16.0057C38.8331 15.9809 38.8057 15.9541 38.7825 15.9329C38.4033 15.5895 37.8966 15.4219 37.3874 15.4721C36.99 15.5205 36.6189 15.6972 36.3307 15.9753C36.0425 16.2533 35.8524 16.6177 35.7895 17.0132H31.6263C30.4985 17.0008 29.3914 16.7079 28.4052 16.1608C28.2233 16.0704 28.0637 15.9908 27.9243 15.9329H27.924C27.1326 15.614 26.2861 15.4544 25.4328 15.4632H19.042C18.5836 15.4565 18.1389 15.6194 17.7931 15.9204C17.4474 16.2216 17.2248 16.6398 17.1687 17.0949C17.1261 17.5367 17.2463 17.9789 17.5066 18.3385C17.0281 18.6272 16.712 19.123 16.652 19.6787C16.6101 20.1194 16.7303 20.5603 16.9905 20.9186C16.5111 21.2079 16.1947 21.7046 16.1355 22.2614C16.0858 22.7704 16.2531 23.277 16.5963 23.6563C16.6201 23.682 16.6443 23.708 16.6691 23.7317C16.6443 23.756 16.6175 23.7834 16.5963 23.8066C16.2536 24.1863 16.0862 24.6925 16.1355 25.2017C16.1839 25.5991 16.3606 25.9702 16.6387 26.2584C16.9167 26.5467 17.2811 26.7367 17.6766 26.7996V30.9628C17.6642 32.0906 17.3713 33.1977 16.8242 34.1839L16.8241 34.1839ZM26.4599 44.5802C26.4676 44.7817 26.4013 44.9793 26.273 45.135C26.1448 45.2909 25.9638 45.3943 25.7645 45.4254C25.5461 45.4479 25.3285 45.3767 25.1655 45.2297C25.0027 45.0827 24.9097 44.8734 24.9099 44.6539C24.9099 44.3687 24.6786 44.1373 24.3931 44.1373C24.1079 44.1373 23.8766 44.3687 23.8766 44.6539C23.8776 44.8738 23.7853 45.084 23.6225 45.2317C23.4597 45.3796 23.2419 45.4512 23.0231 45.4289C22.8229 45.398 22.641 45.2942 22.5126 45.1376C22.3841 44.9811 22.318 44.7826 22.3266 44.5802V44.1374C22.3266 43.8519 22.0952 43.6208 21.81 43.6208C21.5246 43.6208 21.2932 43.8519 21.2932 44.1374C21.2945 44.3573 21.2022 44.5672 21.0394 44.7152C20.8766 44.8629 20.6586 44.9346 20.4398 44.9124C20.2395 44.8814 20.0579 44.7777 19.9292 44.6211C19.8008 44.4643 19.7346 44.2658 19.7433 44.0635V43.6208C19.7433 43.3354 19.5121 43.104 19.2267 43.104C18.9413 43.104 18.7101 43.3354 18.7101 43.6208C18.7112 43.8407 18.6189 44.0509 18.4558 44.1986C18.293 44.3465 18.0748 44.4181 17.856 44.3958C17.656 44.3647 17.4744 44.2609 17.3459 44.1043C17.2175 43.9476 17.1513 43.7493 17.1602 43.5469V37.1561C17.1509 36.4393 17.283 35.7275 17.5492 35.0617C17.6009 34.9408 17.6685 34.8033 17.7477 34.6448H17.7475C18.3669 33.5155 18.6976 32.2505 18.7101 30.9626V26.8293H24.3929C24.53 26.8293 24.6615 26.8838 24.7584 26.9807C24.8552 27.0775 24.9097 27.209 24.9097 27.3461V28.896C24.9097 29.0444 24.916 29.1921 24.9268 29.333C25.1113 31.781 26.8316 33.1852 27.6578 33.8598C27.7876 33.9658 27.897 34.054 27.9772 34.1291H27.977C28.6776 34.8087 29.152 35.6872 29.3358 36.6458H28.0096C27.5986 36.6458 27.2042 36.809 26.9135 37.0997C26.6229 37.3903 26.4597 37.7847 26.4597 38.1958L26.4599 44.5802ZM32.8767 25.3558C33.0899 26.5721 33.6819 27.6902 34.5683 28.5502C34.6617 28.6375 34.7895 28.7424 34.9402 28.8659C35.6496 29.4445 36.9189 30.485 37.2336 32.2132C36.0172 32.4264 34.8991 33.0184 34.0392 33.9048C33.9518 33.9982 33.8469 34.126 33.7235 34.2767C33.1448 34.9861 32.1043 36.2554 30.3762 36.5701C30.163 35.3537 29.5709 34.2356 28.6846 33.3757C28.5912 33.2883 28.4634 33.1834 28.3127 33.06C27.6032 32.4813 26.3339 31.4408 26.0193 29.7127C27.2356 29.4995 28.3537 28.9074 29.2137 28.0211C29.301 27.9277 29.4059 27.7999 29.5294 27.6492C30.108 26.9397 31.1485 25.6704 32.8767 25.3558ZM46.0889 36.8254H46.0891C46.1114 37.0436 46.0402 37.2611 45.8932 37.4239C45.7462 37.5865 45.5371 37.6795 45.3176 37.6793C45.0324 37.6793 44.801 37.9107 44.801 38.1961C44.801 38.4813 45.0324 38.7127 45.3176 38.7127C45.5375 38.7116 45.7477 38.8039 45.8954 38.9667C46.0433 39.1296 46.1149 39.3473 46.0926 39.5661C46.0617 39.7664 45.9579 39.9482 45.8013 40.0767C45.6448 40.2051 45.4463 40.2713 45.2439 40.2626H44.8011C44.5157 40.2626 44.2845 40.494 44.2845 40.7792C44.2845 41.0646 44.5157 41.296 44.8011 41.296C45.021 41.2947 45.2309 41.387 45.3789 41.5498C45.5266 41.7127 45.5984 41.9306 45.5761 42.1494C45.5452 42.3497 45.4414 42.5313 45.2848 42.66C45.128 42.7884 44.9295 42.8546 44.7272 42.8459H44.2845C43.9991 42.8459 43.7677 43.0771 43.7677 43.3625C43.7677 43.6479 43.9991 43.8791 44.2845 43.8791C44.5044 43.878 44.7146 43.9703 44.8623 44.1334C45.0102 44.2962 45.0818 44.5144 45.0595 44.7332C45.0284 44.9332 44.9246 45.1149 44.7681 45.2433C44.6113 45.3717 44.413 45.4379 44.2106 45.429H37.8199C37.1031 45.4383 36.3912 45.3062 35.7254 45.04C35.6045 44.9884 35.467 44.9207 35.3085 44.8415V44.8418C34.1792 44.2223 32.9142 43.8916 31.6263 43.8791H27.493V38.1963C27.493 37.9109 27.7244 37.6795 28.0098 37.6795H29.5598C29.7081 37.6795 29.8558 37.6732 29.9968 37.6624C32.4447 37.478 33.8489 35.7576 34.5236 34.9314C34.6269 34.8017 34.7177 34.6922 34.7928 34.6127C35.4721 33.9121 36.3509 33.4375 37.3095 33.2534V34.5796C37.3095 34.9906 37.4728 35.385 37.7634 35.6757C38.054 35.9663 38.4484 36.1295 38.8595 36.1295H45.2436C45.4451 36.1218 45.6425 36.1881 45.7984 36.3161C45.9541 36.4444 46.0575 36.6251 46.0888 36.8245L46.0889 36.8254ZM36.7931 17.3453C36.7853 17.1438 36.8517 16.9461 36.9799 16.7905C37.1081 16.6346 37.2891 16.5312 37.4885 16.5001C37.7077 16.4787 37.9259 16.5507 38.0893 16.6981C38.2515 16.8445 38.3438 17.053 38.343 17.2716C38.343 17.5568 38.5743 17.7881 38.8598 17.7881C39.145 17.7881 39.3763 17.5568 39.3763 17.2716C39.375 17.0523 39.4674 16.8428 39.63 16.696C39.7932 16.5485 40.011 16.4769 40.2298 16.4986C40.4296 16.5295 40.6112 16.6331 40.7397 16.7892C40.8681 16.9453 40.9345 17.1434 40.9263 17.3453V17.7882C40.9263 18.0736 41.1577 18.3048 41.4429 18.3048C41.7283 18.3048 41.9597 18.0736 41.9597 17.7882C41.9586 17.5689 42.0507 17.3598 42.2133 17.2126C42.377 17.0662 42.5943 16.9946 42.8131 17.0154C43.0129 17.0463 43.1944 17.1497 43.3228 17.3058C43.4512 17.4621 43.5178 17.66 43.5096 17.8622V18.3048C43.5096 18.5902 43.7408 18.8216 44.0262 18.8216C44.3116 18.8216 44.5428 18.5902 44.5428 18.3048C44.5415 18.0855 44.634 17.876 44.7971 17.7294C44.9603 17.5821 45.1781 17.5103 45.3969 17.532C45.5967 17.5629 45.7779 17.6664 45.9063 17.8226C46.0346 17.9787 46.1009 18.1768 46.0927 18.3787V24.7695C46.102 25.4863 45.9699 26.1982 45.7037 26.8639C45.652 26.9848 45.5844 27.1223 45.5052 27.2808H45.5054C44.886 28.4102 44.5553 29.6752 44.5428 30.9631V35.0963H38.86C38.5745 35.0963 38.3432 34.865 38.3432 34.5796V33.0296C38.3432 32.8813 38.3369 32.7336 38.3261 32.5926C38.1417 30.1446 36.4213 28.7404 35.5951 28.0658C35.4653 27.9624 35.3559 27.8716 35.2757 27.7966H35.2759C34.5753 27.117 34.1009 26.2384 33.9171 25.2799H35.2433C35.6543 25.2799 36.0487 25.1166 36.3394 24.826C36.63 24.5354 36.7932 24.141 36.7932 23.7299L36.7931 17.3453ZM17.164 25.1011C17.1413 24.8828 17.2125 24.665 17.3595 24.502C17.5065 24.3389 17.7158 24.246 17.9355 24.2462C18.2207 24.2462 18.4521 24.0148 18.4521 23.7294C18.4521 23.4442 18.2207 23.2128 17.9355 23.2128C17.7156 23.2139 17.5054 23.1216 17.3577 22.9587C17.2098 22.7959 17.1382 22.5782 17.1605 22.3593C17.1914 22.1591 17.2952 21.9773 17.4518 21.8488C17.6083 21.7204 17.8068 21.6542 18.0092 21.6629H18.4521C18.7375 21.6629 18.9686 21.4315 18.9686 21.1463C18.9686 20.8609 18.7375 20.6295 18.4521 20.6295C18.2321 20.6308 18.0222 20.5385 17.8743 20.3756C17.7266 20.2128 17.6548 19.9949 17.677 19.776C17.708 19.5758 17.8118 19.3942 17.9683 19.2655C18.1251 19.1371 18.3236 19.0709 18.526 19.0795H18.9686C19.254 19.0795 19.4854 18.8484 19.4854 18.563C19.4854 18.2775 19.254 18.0464 18.9686 18.0464C18.7487 18.0475 18.5385 17.9551 18.3908 17.7921C18.2429 17.6293 18.1713 17.4111 18.1936 17.1923C18.2247 16.9922 18.3285 16.8106 18.4851 16.6822C18.6418 16.5537 18.8401 16.4876 19.0425 16.4964H25.4333C26.1501 16.4871 26.8619 16.6193 27.5277 16.8854C27.6486 16.9371 27.7861 17.0048 27.9446 17.0839V17.0837C29.074 17.7032 30.3389 18.0338 31.6268 18.0464H35.7601V23.7292C35.7601 23.8663 35.7056 23.9977 35.6088 24.0946C35.5119 24.1915 35.3804 24.246 35.2433 24.246H33.6934C33.545 24.246 33.3973 24.2523 33.2564 24.2631C30.8084 24.4475 29.4042 26.1678 28.7296 26.9941C28.6262 27.1238 28.5354 27.2332 28.4604 27.3135V27.3132C27.7808 28.0138 26.9022 28.4883 25.9436 28.672V27.3459C25.9436 26.9348 25.7804 26.5404 25.4898 26.2498C25.1991 25.9592 24.8047 25.7959 24.3937 25.7959H18.0095C17.808 25.8037 17.6106 25.7373 17.4547 25.6093C17.299 25.4811 17.1956 25.3003 17.1643 25.101L17.164 25.1011Z" fill="#1DCB2E"/>
</svg>
