<svg width="46" height="65" viewBox="0 0 46 65" fill="none" xmlns="http://www.w3.org/2000/svg">
<g clip-path="url(#clip0_2_443)">
<path fill-rule="evenodd" clip-rule="evenodd" d="M45.5487 13.1134L41.4398 59.0064L22.9699 64.1115L4.55088 59.0136L0.446289 13.1134H45.5487Z" fill="#E44D26"/>
<path fill-rule="evenodd" clip-rule="evenodd" d="M22.9971 60.2092L37.9216 56.0839L41.433 16.8662H22.9971V60.2092Z" fill="#F16529"/>
<path fill-rule="evenodd" clip-rule="evenodd" d="M15.0096 28.1256H22.9972V22.4961H8.83887L8.97402 24.0064L10.3618 39.5197H22.9972V33.8903H15.5256L15.0096 28.1256Z" fill="#EBEBEB"/>
<path fill-rule="evenodd" clip-rule="evenodd" d="M16.2823 42.3345H10.6143L11.4053 51.1736L22.9714 54.3748L22.9974 54.3676V48.5106L22.9727 48.5172L16.6843 46.8242L16.2823 42.3345Z" fill="#EBEBEB"/>
<path fill-rule="evenodd" clip-rule="evenodd" d="M4.64264 0.639648H7.51204V3.46613H10.1369V0.639648H13.0064V9.19893H10.137V6.33278H7.51216V9.19893H4.64276V0.639648H4.64264Z" fill="black"/>
<path fill-rule="evenodd" clip-rule="evenodd" d="M16.78 3.47803H14.2539V0.639648H22.1769V3.47803H19.6497V9.19893H16.7801V3.47803H16.78Z" fill="black"/>
<path fill-rule="evenodd" clip-rule="evenodd" d="M23.4336 0.639648H26.4256L28.2661 3.64712L30.1047 0.639648H33.0978V9.19893H30.2402V4.95648L28.2661 7.99978H28.2167L26.2412 4.95648V9.19893H23.4336V0.639648Z" fill="black"/>
<path fill-rule="evenodd" clip-rule="evenodd" d="M34.5263 0.639648H37.3966V6.36972H41.4318V9.19893H34.5263V0.639648Z" fill="black"/>
<path fill-rule="evenodd" clip-rule="evenodd" d="M22.9775 39.5195H29.9304L29.275 46.8205L22.9775 48.5152V54.372L34.5529 51.1735L34.6378 50.2224L35.9646 35.4018L36.1024 33.8901H22.9775V39.5195Z" fill="white"/>
<path fill-rule="evenodd" clip-rule="evenodd" d="M22.9775 28.1119V28.1256H36.6162L36.7294 26.8603L36.9867 24.0064L37.1217 22.4961H22.9775V28.1119Z" fill="white"/>
</g>
<defs>
<clipPath id="clip0_2_443">
<rect width="45.2598" height="63.6327" fill="white" transform="translate(0.367188 0.639648)"/>
</clipPath>
</defs>
</svg>
