<svg width="65" height="65" viewBox="0 0 65 65" fill="none" xmlns="http://www.w3.org/2000/svg">
<g clip-path="url(#clip0_2_440)">
<path d="M0.576172 0.674316H64.6569V64.307H0.576172V0.674316Z" fill="#F7DF1E"/>
<path d="M17.4251 53.8503L22.3287 50.9033C23.2749 52.569 24.1355 53.9783 26.1999 53.9783C28.1786 53.9783 29.4264 53.2098 29.4264 50.22V29.8879H35.4483V50.3046C35.4483 56.4981 31.7922 59.3173 26.4579 59.3173C21.6406 59.3173 18.8443 56.8398 17.4248 53.8498L17.4251 53.8503ZM38.7191 53.2095L43.6223 50.3906C44.9132 52.4837 46.5908 54.0213 49.5585 54.0213C52.0539 54.0213 53.6449 52.7825 53.6449 51.0739C53.6449 49.0237 52.0104 48.2974 49.2574 47.1018L47.7523 46.4605C43.4075 44.6243 40.5257 42.3177 40.5257 37.4483C40.5257 32.9632 43.9667 29.5459 49.3438 29.5459C53.1721 29.5459 55.9251 30.8703 57.9036 34.33L53.2146 37.3203C52.1821 35.4836 51.0642 34.7576 49.3435 34.7576C47.5798 34.7576 46.4614 35.8681 46.4614 37.3203C46.4614 39.1142 47.5798 39.8407 50.1606 40.9513L51.6659 41.5919C56.7849 43.7705 59.6668 45.9915 59.6668 50.9886C59.6668 56.371 55.4084 59.318 49.6875 59.318C44.0957 59.318 40.4824 56.6698 38.7189 53.2098" fill="black"/>
</g>
<defs>
<clipPath id="clip0_2_440">
<rect width="64.0808" height="63.6327" fill="white" transform="translate(0.576172 0.674316)"/>
</clipPath>
</defs>
</svg>
