<svg width="112" height="56" viewBox="0 0 112 56" fill="none" xmlns="http://www.w3.org/2000/svg">
<path d="M30.2588 40.8958C30.1553 40.896 30.0536 40.8693 29.9635 40.8184C29.8734 40.7675 29.7981 40.694 29.7449 40.6053L25.2264 33.0686L16.7759 35.3669C16.6472 35.398 16.5118 35.3854 16.391 35.3312C16.2702 35.2769 16.1708 35.1841 16.1085 35.0672L6.23307 16.5041C6.18772 16.4191 6.1636 16.3244 6.16277 16.228C6.16195 16.1317 6.18444 16.0365 6.22832 15.9507C6.27221 15.8649 6.3362 15.791 6.41482 15.7353C6.49344 15.6796 6.58438 15.6437 6.67986 15.6308L15.0641 14.5037C15.18 14.4876 15.298 14.5058 15.4036 14.5562C15.5091 14.6065 15.5976 14.6867 15.658 14.7868L25.7706 31.6786L37.5325 28.4793L33.6107 22.9404C33.5541 22.8616 33.5176 22.7703 33.5042 22.6743C33.4907 22.5783 33.5009 22.4804 33.5338 22.3892C33.5666 22.298 33.6212 22.2162 33.6927 22.1507C33.7642 22.0853 33.8506 22.0383 33.9444 22.0137L39.4466 20.7128C39.5565 20.6867 39.6716 20.6922 39.7785 20.7288C39.8854 20.7654 39.9798 20.8316 40.0506 20.9197L44.8127 26.8659C44.8748 26.9433 44.9166 27.0349 44.9344 27.1325C44.9522 27.2301 44.9454 27.3306 44.9147 27.4249C44.8839 27.5192 44.8302 27.6044 44.7583 27.6728C44.6864 27.7411 44.5986 27.7905 44.5029 27.8165L39.5017 29.1808L43.8805 35.3403C43.9341 35.4158 43.9695 35.5028 43.9837 35.5944C43.9979 35.686 43.9907 35.7796 43.9625 35.8679C43.9343 35.9561 43.886 36.0367 43.8213 36.103C43.7567 36.1694 43.6775 36.2199 43.59 36.2504L30.4482 40.859C30.3872 40.8815 30.3229 40.8939 30.2579 40.8958H30.2588ZM26.4234 32.7413L30.519 39.5719L42.4546 35.3936L38.2864 29.5172L26.4234 32.7413ZM7.69204 16.6926L16.9341 34.0863L24.604 32.0049L14.8361 15.7402L7.69204 16.6926ZM35.1184 22.9753L38.7957 28.1474L43.3574 26.9063L39.3887 21.964L35.1184 22.9753ZM51.1027 21.1697H52.2979V33.9852H51.1073L51.1027 21.1697ZM63.9733 24.7395V33.9852H62.7994V32.3855C62.3443 32.9555 61.7716 33.4225 61.1207 33.7535C60.2349 34.1769 59.2386 34.3116 58.2722 34.1386C57.3058 33.9656 56.4181 33.4936 55.7343 32.7891C55.2821 32.3349 54.926 31.7943 54.6874 31.1994C54.4487 30.6046 54.3323 29.9677 54.3452 29.3269C54.3355 28.6923 54.4547 28.0622 54.6957 27.475C54.9367 26.8878 55.2944 26.3556 55.7472 25.9107C56.1824 25.4534 56.7076 25.0913 57.2897 24.8472C57.8718 24.603 58.4982 24.4822 59.1294 24.4922C59.8465 24.483 60.5544 24.6485 61.1905 24.9767C61.8366 25.3273 62.3911 25.8248 62.8095 26.4292V24.7376L63.9733 24.7395ZM59.2204 25.6588C58.5736 25.6546 57.9377 25.825 57.3796 26.1519C56.8216 26.4789 56.3621 26.9505 56.0497 27.5168C55.385 28.6733 55.385 30.0955 56.0497 31.252C56.365 31.8266 56.8292 32.3056 57.3937 32.6384C57.9411 32.9652 58.5672 33.1368 59.2048 33.1348C59.8538 33.135 60.4916 32.9651 61.0545 32.642C61.618 32.3322 62.0841 31.8698 62.3985 31.309C62.7192 30.7267 62.8818 30.0706 62.8701 29.406C62.8837 28.9107 62.7971 28.4177 62.6154 27.9567C62.4338 27.4958 62.1608 27.0762 61.8129 26.7234C61.4775 26.3764 61.074 26.1025 60.6277 25.9188C60.1814 25.7352 59.702 25.6457 59.2195 25.6561L59.2204 25.6588ZM66.2 24.7395H67.4153V26.0909C67.7195 25.6243 68.1095 25.2197 68.5645 24.8985C68.9351 24.6448 69.3729 24.5072 69.8221 24.5032C70.1958 24.5155 70.56 24.6241 70.8793 24.8185L70.256 25.8298C70.0546 25.7333 69.8357 25.6786 69.6125 25.6689C69.1821 25.6821 68.7724 25.8563 68.4643 26.1571C68.0432 26.5712 67.7497 27.0973 67.6185 27.6731C67.4775 28.2001 67.407 29.2647 67.407 30.8668V33.9953H66.1917L66.2 24.7395ZM81.0931 24.7395V33.9852H79.92V32.3855C79.4649 32.9555 78.8922 33.4225 78.2413 33.7535C77.3556 34.1769 76.3593 34.3116 75.3929 34.1386C74.4265 33.9656 73.5388 33.4936 72.855 32.7891C72.4028 32.3349 72.0467 31.7943 71.808 31.1994C71.5694 30.6046 71.453 29.9677 71.4659 29.3269C71.4475 28.0445 71.9531 26.808 72.8697 25.9107C73.3049 25.4534 73.8301 25.0913 74.4122 24.8472C74.9943 24.603 75.6207 24.4822 76.2519 24.4922C76.969 24.483 77.6768 24.6485 78.313 24.9767C78.9591 25.3273 79.5136 25.8248 79.932 26.4292V24.7376L81.0931 24.7395ZM76.3401 25.6588C75.6934 25.6546 75.0574 25.825 74.4994 26.1519C73.9413 26.4789 73.4819 26.9505 73.1694 27.5168C72.5047 28.6733 72.5047 30.0955 73.1694 31.252C73.4847 31.8266 73.949 32.3056 74.5134 32.6384C75.0609 32.9652 75.687 33.1368 76.3245 33.1348C76.9735 33.135 77.6113 32.9651 78.1742 32.642C78.7378 32.3322 79.2039 31.8698 79.5183 31.309C79.839 30.7267 80.0016 30.0706 79.9899 29.406C80.0049 28.9092 79.919 28.4146 79.7374 27.9519C79.5559 27.4893 79.2824 27.0682 78.9336 26.7142C78.5984 26.3675 78.1951 26.0937 77.7492 25.91C77.3032 25.7263 76.8242 25.6368 76.342 25.6469L76.3401 25.6588ZM82.8977 24.7395H84.1664L87.2701 31.4782L90.3406 24.7395H91.6093L87.3804 33.9861H87.1689L82.8977 24.7395ZM101.199 30.9174L102.21 31.4441C101.927 32.0294 101.541 32.5593 101.071 33.0088C100.648 33.4003 100.155 33.7073 99.6166 33.9135C99.0314 34.1285 98.4115 34.2338 97.7881 34.2242C96.2804 34.2242 95.1006 33.7339 94.2487 32.7533C93.426 31.8308 92.9741 30.6364 92.98 29.4005C92.968 28.2623 93.3496 27.1546 94.0602 26.2748C94.4863 25.7108 95.0417 25.2574 95.6795 24.9528C96.3174 24.6481 97.0191 24.5012 97.7256 24.5244C98.4523 24.5005 99.1741 24.6508 99.8309 24.9626C100.488 25.2745 101.06 25.7389 101.501 26.317C102.171 27.1628 102.508 28.2201 102.513 29.4887H94.188C94.1742 30.4697 94.5438 31.4166 95.2176 32.129C95.5326 32.4631 95.9141 32.7273 96.3376 32.9046C96.761 33.082 97.2169 33.1685 97.6759 33.1587C98.145 33.1591 98.6104 33.0759 99.0503 32.9132C99.4647 32.7661 99.8493 32.5456 100.186 32.2623C100.588 31.874 100.929 31.4271 101.198 30.9367L101.199 30.9174ZM101.199 28.4352C101.079 27.8849 100.843 27.3666 100.506 26.9155C100.182 26.5203 99.7699 26.2061 99.3031 25.998C98.8131 25.7682 98.2781 25.6487 97.7366 25.6487C96.8736 25.6313 96.0366 25.9444 95.3969 26.5239C94.9207 26.9529 94.5606 27.5873 94.3167 28.4269L101.199 28.4352ZM104.545 21.1798H105.736V33.9953H104.545V21.1798Z" fill="#EF533F"/>
</svg>
