<svg width="255" height="28" viewBox="0 0 255 28" fill="none" xmlns="http://www.w3.org/2000/svg">
<path d="M251.899 0.0202652C250.11 0.0202652 248.917 0.944242 248.917 2.33262C248.917 8.57459 246.234 12.9672 240.867 16.4339C218.508 30.5352 151.432 19.4396 97.7704 10.4239C46.7911 1.8711 15.1917 -2.75351 4.16133 3.95121C1.47874 5.57018 0.285156 7.88087 0.285156 10.4239C0.285156 11.8107 1.47672 12.7363 3.26719 12.7363C5.05558 12.7363 6.24922 11.8123 6.24922 10.4239C6.24922 9.26776 6.84604 8.34378 8.03761 7.6504C17.2787 1.87118 57.5257 8.57437 96.5787 15.0486C133.546 21.0586 173.493 27.7633 203.901 27.7633C221.192 27.7633 235.501 25.6832 244.445 19.904C251.301 15.7438 254.581 9.73216 254.581 2.33559C254.88 0.945605 253.687 0.0200195 251.898 0.0200195L251.899 0.0202652Z" fill="#E7332B"/>
</svg>
