<svg width="36" height="36" viewBox="0 0 36 36" fill="none" xmlns="http://www.w3.org/2000/svg">
<rect x="0.310059" y="0.229492" width="34.9584" height="34.9584" rx="17.4792" fill="#E7332B"/>
<path fill-rule="evenodd" clip-rule="evenodd" d="M15.7944 15.3571H18.6749V16.7919C19.0898 15.9667 20.1539 15.2252 21.7523 15.2252C24.8166 15.2252 25.5441 16.8679 25.5441 19.8817V25.4635H22.4418V20.5681C22.4418 18.8518 22.0269 17.8839 20.9705 17.8839C19.5055 17.8839 18.8967 18.927 18.8967 20.5673V25.4635H15.7944V15.3571V15.3571ZM10.4748 25.3316H13.5771V15.2252H10.4748V25.3316V25.3316ZM14.0215 11.9298C14.0216 12.1899 13.97 12.4473 13.8697 12.6873C13.7695 12.9272 13.6225 13.1448 13.4375 13.3274C13.0624 13.7002 12.5547 13.9088 12.0259 13.9075C11.4981 13.9072 10.9916 13.6991 10.6159 13.3282C10.4315 13.1449 10.2851 12.9271 10.185 12.6871C10.0849 12.4472 10.0332 12.1898 10.0327 11.9298C10.0327 11.4048 10.2421 10.9022 10.6167 10.5315C10.992 10.1601 11.4987 9.95192 12.0267 9.95215C12.5556 9.95215 13.0629 10.1608 13.4375 10.5315C13.8113 10.9022 14.0215 11.4048 14.0215 11.9298Z" fill="white"/>
</svg>
