<svg width="62" height="62" viewBox="0 0 62 62" fill="none" xmlns="http://www.w3.org/2000/svg">
<rect x="0.350586" y="0.172852" width="61" height="61" rx="30.5" fill="#FEF4F2"/>
<path d="M36.1701 25.1421C36.1701 24.875 36.3866 24.6585 36.6537 24.6585H40.3411C40.6082 24.6585 40.8248 24.875 40.8248 25.1421C40.8248 25.4093 40.6082 25.6258 40.3411 25.6258H36.6537C36.3866 25.6262 36.1701 25.4095 36.1701 25.1421V25.1421ZM34.1387 24.6585H29.0268C28.7597 24.6585 28.5432 24.875 28.5432 25.1421C28.5432 25.4093 28.7597 25.6258 29.0268 25.6258H34.1385C34.4056 25.6258 34.6221 25.4093 34.6221 25.1421C34.6226 24.875 34.4058 24.6585 34.1387 24.6585H34.1387ZM18.5498 26.2286V17.1266C18.5498 16.0595 19.418 15.1914 20.4851 15.1914H35.7244C36.7915 15.1914 37.6596 16.0595 37.6596 17.1266V21.0962H42.3041C43.3712 21.0962 44.2393 21.9643 44.2393 23.0314V32.1328C44.2393 32.3397 44.1076 32.5239 43.9118 32.5907C43.8605 32.608 43.8076 32.6164 43.7557 32.6164C43.6087 32.6164 43.466 32.5494 43.3728 32.4286L40.8685 29.1877L27.0644 29.1879C25.9973 29.1879 25.1292 28.3198 25.1292 27.2527V23.2831H21.9206L19.4163 26.5241C19.3231 26.6449 19.1804 26.7119 19.0334 26.7119C18.9815 26.7119 18.9286 26.7034 18.8773 26.6861C18.6815 26.6191 18.5498 26.4354 18.5498 26.2285L18.5498 26.2286ZM35.7245 23.2833H26.0969V27.2528C26.0969 27.7866 26.5308 28.2206 27.0646 28.2206H41.1056C41.2553 28.2206 41.3968 28.2901 41.4885 28.4084L43.2716 30.716L43.2714 23.0319C43.2714 22.4981 42.8374 22.0641 42.3037 22.0641L37.5218 22.0644C37.2367 22.7779 36.5386 23.2835 35.7245 23.2835L35.7245 23.2833ZM19.5178 24.811L21.301 22.5034C21.3926 22.3849 21.5341 22.3156 21.6839 22.3156H35.7248C36.2586 22.3156 36.6925 21.8816 36.6925 21.3478V17.1269C36.6925 16.5931 36.2586 16.1591 35.7248 16.1591L20.4854 16.1594C19.9517 16.1594 19.5177 16.5933 19.5177 17.1271L19.5178 24.811ZM22.4481 19.7215H26.1355C26.4026 19.7215 26.6192 19.505 26.6192 19.2379C26.6192 18.9707 26.4026 18.7542 26.1355 18.7542H22.4481C22.181 18.7542 21.9645 18.9707 21.9645 19.2379C21.9645 19.505 22.1808 19.7215 22.4481 19.7215ZM28.6503 19.7215H33.7619C34.029 19.7215 34.2455 19.505 34.2455 19.2379C34.2455 18.9707 34.029 18.7542 33.7619 18.7542H28.6503C28.3832 18.7542 28.1666 18.9707 28.1666 19.2379C28.1664 19.505 28.3832 19.7215 28.6503 19.7215ZM28.3419 43.6737C28.5263 44.2692 28.4242 44.8736 28.0541 45.3757C27.6842 45.8778 27.1367 46.1541 26.5134 46.1541H17.2877C16.6641 46.1541 16.117 45.8776 15.747 45.3757C15.3771 44.8736 15.2746 44.2692 15.4592 43.6737C15.876 42.3276 16.7298 41.119 17.863 40.2702C18.4671 39.8178 19.1308 39.4766 19.8326 39.2505C18.879 38.5918 18.2523 37.4915 18.2523 36.2473C18.2523 34.2357 19.8887 32.5991 21.9005 32.5991C23.912 32.5991 25.5487 34.2355 25.5487 36.2473C25.5487 37.4917 24.9221 38.5916 23.9683 39.2505C24.6705 39.4762 25.3337 39.8178 25.9379 40.2702C27.0718 41.1192 27.9253 42.3279 28.3422 43.6737H28.3419ZM21.8999 38.928H21.9006H21.9013C23.3791 38.9278 24.5814 37.7254 24.5814 36.2476C24.5814 34.7693 23.3789 33.5671 21.9009 33.5671C20.4226 33.5671 19.2204 34.7696 19.2204 36.2476C19.2202 37.7256 20.4222 38.9279 21.9 38.928H21.8999ZM27.4177 43.9599C26.6649 41.5292 24.4482 39.8962 21.9011 39.8958H21.9004H21.8997C19.3525 39.896 17.1359 41.5292 16.383 43.9599C16.2891 44.2633 16.337 44.5463 16.5252 44.8016C16.7135 45.0571 16.9701 45.1866 17.2874 45.1866H26.513C26.8303 45.1866 27.0869 45.0569 27.2751 44.8016C27.4634 44.5463 27.5112 44.263 27.4173 43.9599H27.4177ZM45.9542 45.3757C45.5843 45.8778 45.0368 46.1541 44.4135 46.1541H35.1879C34.5643 46.1541 34.0171 45.8776 33.6472 45.3757C33.2773 44.8736 33.1747 44.2692 33.3596 43.6737C33.7762 42.3276 34.6302 41.119 35.7634 40.2702C36.3675 39.8178 37.0312 39.4766 37.733 39.2505C36.7794 38.5918 36.1526 37.4915 36.1526 36.2473C36.1526 34.2357 37.7891 32.5991 39.8008 32.5991C41.8124 32.5991 43.449 34.2355 43.449 36.2473C43.449 37.4917 42.8225 38.5916 41.8687 39.2505C42.5709 39.4762 43.2341 39.8178 43.8383 40.2702C44.9717 41.119 45.8257 42.3276 46.2421 43.6737C46.4265 44.2697 46.3244 44.8741 45.9545 45.3757H45.9542ZM39.7999 38.9279H39.8006H39.8012C41.279 38.9277 42.4813 37.7252 42.4813 36.2475C42.4813 34.7692 41.2789 33.567 39.8008 33.567C38.3226 33.567 37.1204 34.7694 37.1204 36.2475C37.1201 37.7255 38.3222 38.9277 39.8 38.9279H39.7999ZM45.3177 43.9598C44.5649 41.5291 42.3481 39.8961 39.801 39.8956H39.8003H39.7996C37.2525 39.8959 35.0358 41.5291 34.283 43.9598C34.1891 44.2631 34.2369 44.5462 34.4252 44.8015C34.6134 45.057 34.8701 45.1864 35.1873 45.1864H44.4129C44.7302 45.1864 44.9868 45.0568 45.1751 44.8015C45.3633 44.5462 45.4112 44.2629 45.3173 43.9598H45.3177Z" fill="#E7332B"/>
</svg>
