<svg width="91" height="49" viewBox="0 0 91 49" fill="none" xmlns="http://www.w3.org/2000/svg">
<path d="M45.3776 46.5668C69.418 46.5668 88.9065 36.6749 88.9065 24.4726C88.9065 12.2703 69.418 2.37839 45.3776 2.37839C21.3372 2.37839 1.84859 12.2703 1.84859 24.4726C1.84859 36.6749 21.3372 46.5668 45.3776 46.5668Z" fill="#6181B6"/>
<path d="M54.1917 31.6129L56.3547 20.4835C56.8463 17.9722 56.4365 16.101 55.1424 14.9188C53.8969 13.7699 51.7839 13.2116 48.6709 13.2116H44.9364L46.0007 7.69638C46.0338 7.48298 45.9851 7.26958 45.8539 7.10561C45.7228 6.94165 45.5267 6.84277 45.313 6.84277H40.1526C39.8084 6.84277 39.5299 7.08934 39.4643 7.41727L37.1708 19.2357C36.9578 17.9058 36.45 16.7568 35.6311 15.8213C34.124 14.0815 31.7155 13.2116 28.5207 13.2116H18.5108C18.1667 13.2116 17.8881 13.4582 17.8225 13.7861L13.1699 37.702C13.1374 37.9161 13.1861 38.1295 13.3173 38.2934C13.4485 38.4574 13.6446 38.5563 13.8582 38.5563H19.068C19.4121 38.5563 19.6907 38.3091 19.7563 37.9818L20.8868 32.1868H24.7531C26.7843 32.1868 28.4882 31.9734 29.8317 31.5303C31.1915 31.0866 32.4525 30.3319 33.5506 29.298C34.4512 28.477 35.1889 27.5583 35.746 26.557L34.8123 31.3338C34.7792 31.5466 34.8285 31.7606 34.9597 31.9239C35.0908 32.0885 35.2876 32.1868 35.5006 32.1868H40.661C41.0052 32.1868 41.2838 31.9402 41.3493 31.6123L43.889 18.4809H47.4279C48.9345 18.4809 49.3773 18.7763 49.4922 18.9077C49.6072 19.0229 49.8364 19.4497 49.5741 20.7464L47.5585 31.3501C47.5254 31.5641 47.5747 31.7769 47.7059 31.9408C47.8371 32.1048 48.0332 32.2037 48.2462 32.2037H53.4891C53.832 32.1874 54.1261 31.9577 54.1917 31.6129ZM30.2727 22.4204C29.9454 24.0944 29.3389 25.276 28.4538 25.9656C27.5532 26.6553 26.1272 26.9995 24.1947 26.9995H21.8843L23.5557 18.3983H26.537C28.7324 18.3983 29.6168 18.8746 29.961 19.2682C30.4532 19.8108 30.5681 20.8941 30.2727 22.4204Z" fill="white"/>
<path d="M76.2596 15.822C74.7524 14.0823 72.344 13.2124 69.1492 13.2124H59.1399C58.7958 13.2124 58.5172 13.459 58.4516 13.7869L53.8146 37.7197C53.7815 37.9325 53.8315 38.1465 53.962 38.3098C54.0932 38.4744 54.2899 38.5727 54.5023 38.5727H59.7127C60.0569 38.5727 60.3348 38.3267 60.401 37.9982L61.5315 32.2038H65.3978C67.429 32.2038 69.1329 31.9904 70.4764 31.5467C71.8368 31.1043 73.0979 30.3489 74.1953 29.3151C75.1128 28.4615 75.883 27.5096 76.4564 26.4752C77.0297 25.4413 77.4388 24.2923 77.6849 23.0608C78.2589 20.0074 77.7836 17.5787 76.2596 15.822ZM70.8699 22.4206C70.5433 24.0946 69.9368 25.2761 69.0523 25.9658C68.151 26.6554 66.7257 26.9996 64.7926 26.9996H62.4828L64.1536 18.3985H67.1354C69.3309 18.3985 70.2153 18.8747 70.5589 19.2684C71.0667 19.8109 71.1647 20.8942 70.8699 22.4206Z" fill="white"/>
</svg>
