<svg width="62" height="62" viewBox="0 0 62 62" fill="none" xmlns="http://www.w3.org/2000/svg">
<rect x="0.515625" y="0.524414" width="61" height="61" rx="30.5" fill="#F8F2FF"/>
<path d="M16.723 43.7857V18.263C16.723 17.8569 16.8843 17.4672 17.1715 17.1801C17.4586 16.893 17.8483 16.7316 18.2543 16.7316H34.0784V19.2839C34.0784 19.69 34.2398 20.0797 34.5269 20.3668C34.814 20.6538 35.2037 20.8152 35.6098 20.8152H38.162V31.0243H39.1829V20.3048C39.1829 20.1694 39.1292 20.0395 39.0334 19.9438L34.9498 15.8602C34.8541 15.7645 34.7242 15.7107 34.5888 15.7107H18.2543C17.5777 15.7116 16.9289 15.9807 16.4504 16.459C15.9721 16.9376 15.703 17.5864 15.702 18.263V43.7857C15.7029 44.4623 15.9721 45.1111 16.4504 45.5896C16.9289 46.0679 17.5777 46.337 18.2543 46.338H34.0784V45.3171H18.2543C17.8482 45.3171 17.4585 45.1557 17.1714 44.8686C16.8844 44.5815 16.723 44.1917 16.723 43.7857L16.723 43.7857ZM35.0994 19.2839V17.4533L37.4404 19.7943H35.6098C35.3279 19.7943 35.0994 19.5658 35.0994 19.2839Z" fill="#D365FF"/>
<path d="M31.5261 24.8989C31.5264 23.8037 31.0866 22.7543 30.3056 21.9865C29.5246 21.2186 28.4682 20.7966 27.373 20.8152C26.3315 20.8439 25.3396 21.2653 24.5958 21.9945C23.8518 22.724 23.411 23.7077 23.3619 24.7482C23.3215 25.8931 23.7634 27.0025 24.5799 27.8059C25.0436 28.2519 25.3285 28.8517 25.3809 29.493H24.3798V30.5139H25.4007V31.5348C25.4007 31.8055 25.5083 32.0653 25.6997 32.2567C25.8911 32.4481 26.1509 32.5557 26.4216 32.5557H28.4634C28.7341 32.5557 28.9939 32.4481 29.1854 32.2567C29.3768 32.0653 29.4843 31.8055 29.4843 31.5348V30.5139H30.5052V29.493H29.5032C29.5463 28.8676 29.8191 28.2802 30.2689 27.8438C31.0756 27.0771 31.5305 26.0118 31.5261 24.8989ZM26.4216 31.5348V30.5139H28.4634V31.5348H26.4216ZM28.4684 29.493H26.4166C26.3589 28.5755 25.9581 27.7132 25.2936 27.0781C24.6767 26.4785 24.3444 25.6449 24.3798 24.7856C24.4096 23.9903 24.7478 23.2378 25.3228 22.6875C25.8977 22.1371 26.6643 21.8325 27.4603 21.8375C28.2561 21.8427 29.0186 22.1574 29.5864 22.7151C30.1766 23.2948 30.5066 24.089 30.5012 24.9161C30.4957 25.7433 30.155 26.5332 29.5573 27.105C28.905 27.7344 28.5158 28.5878 28.4684 29.493Z" fill="#D365FF"/>
<path d="M27.4426 25.4093C27.1607 25.4093 26.9321 25.1808 26.9321 24.8989H25.9112C25.9126 25.2145 26.0112 25.5219 26.194 25.7792C26.3768 26.0365 26.6345 26.2311 26.9321 26.3364V28.472H27.953V26.3364C28.2506 26.2311 28.5083 26.0365 28.6911 25.7792C28.8738 25.5219 28.9725 25.2145 28.9739 24.8989H27.953C27.953 25.0342 27.8992 25.1641 27.8035 25.2598C27.7078 25.3555 27.5779 25.4093 27.4425 25.4093H27.4426Z" fill="#D365FF"/>
<path d="M26.9321 18.7734H27.953V19.7943H26.9321V18.7734Z" fill="#D365FF"/>
<path d="M23.9382 19.8492L24.8223 19.3387L25.3328 20.2229L24.4486 20.7334L23.9382 19.8492Z" fill="#D365FF"/>
<path d="M21.8824 22.2783L22.3928 21.3942L23.277 21.9046L22.7666 22.7888L21.8824 22.2783Z" fill="#D365FF"/>
<path d="M21.3171 24.3884H22.338V25.4093H21.3171V24.3884Z" fill="#D365FF"/>
<path d="M21.8818 27.52L22.7659 27.0095L23.2764 27.8937L22.3922 28.4041L21.8818 27.52Z" fill="#D365FF"/>
<path d="M31.6078 27.8934L32.1183 27.0092L33.0025 27.5196L32.492 28.4038L31.6078 27.8934Z" fill="#D365FF"/>
<path d="M32.5471 24.3884H33.568V25.4093H32.5471V24.3884Z" fill="#D365FF"/>
<path d="M31.6078 21.9044L32.492 21.3939L33.0025 22.2781L32.1183 22.7885L31.6078 21.9044Z" fill="#D365FF"/>
<path d="M29.5526 20.2232L30.0631 19.3391L30.9472 19.8495L30.4368 20.7337L29.5526 20.2232Z" fill="#D365FF"/>
<path d="M45.8912 37.6656L44.5221 37.4701C44.4296 37.1822 44.3138 36.9024 44.1755 36.6335L45.005 35.5278C45.1574 35.3245 45.1372 35.0404 44.9576 34.8608L43.514 33.4172C43.3346 33.2378 43.0505 33.2175 42.8474 33.3698L41.7413 34.1988V34.1986C41.4721 34.0607 41.1925 33.9449 40.9047 33.8526L40.7092 32.4835C40.6729 32.2322 40.4576 32.0455 40.2037 32.0455H38.1619C37.9081 32.0455 37.6927 32.2322 37.6565 32.4835L37.4609 33.8526C37.1731 33.9449 36.8933 34.0607 36.6244 34.1986L35.5182 33.3695V33.3698C35.3152 33.2175 35.031 33.2378 34.8517 33.4172L33.4081 34.8608C33.2285 35.0404 33.2082 35.3245 33.3607 35.5278L34.1902 36.6335C34.0518 36.9024 33.9361 37.1822 33.8436 37.4701L32.4744 37.6656C32.2231 37.7018 32.0364 37.9172 32.0364 38.171V40.2128C32.0364 40.4667 32.2231 40.6821 32.4744 40.7183L33.8436 40.9138C33.9361 41.2016 34.0518 41.4815 34.1902 41.7504L33.3607 42.856C33.2082 43.0593 33.2285 43.3435 33.4081 43.5231L34.8517 44.9667C35.031 45.146 35.3152 45.1663 35.5182 45.0141L36.6244 44.1851V44.1853C36.8933 44.3232 37.1731 44.4389 37.4609 44.5312L37.6565 45.9003C37.6927 46.1517 37.9081 46.3383 38.1619 46.3383H40.2037C40.4576 46.3383 40.6729 46.1517 40.7092 45.9003L40.9047 44.5312C41.1925 44.4389 41.4721 44.3232 41.7413 44.1853L42.8474 45.0143V45.0141C43.0504 45.1663 43.3346 45.146 43.514 44.9667L44.9576 43.5231C45.1372 43.3435 45.1574 43.0593 45.005 42.856L44.1755 41.7504C44.3138 41.4815 44.4296 41.2016 44.5221 40.9138L45.8912 40.7183C46.1426 40.6821 46.3292 40.4667 46.3292 40.2128V38.171C46.3292 37.9172 46.1426 37.7018 45.8912 37.6656ZM45.3083 39.7703L44.0511 39.9499C43.8467 39.9793 43.6801 40.1287 43.6288 40.3286C43.5212 40.7515 43.3533 41.1567 43.1302 41.5318C43.0247 41.7098 43.037 41.9338 43.1614 42.099L43.923 43.1149L43.1063 43.9316L42.0899 43.17V43.1698C41.9247 43.0461 41.7009 43.034 41.5232 43.1393C41.1486 43.3624 40.7434 43.5299 40.3207 43.637C40.1201 43.6878 39.9702 43.8548 39.9408 44.0597L39.7612 45.3174H38.6045L38.4254 44.0601C38.3962 43.8553 38.2461 43.6882 38.0455 43.6374C37.6228 43.5303 37.2176 43.3628 36.843 43.1397C36.6653 43.0345 36.4417 43.0465 36.2763 43.1705L35.2599 43.9321L34.4432 43.1154L35.2048 42.0995H35.205C35.3292 41.9343 35.3415 41.7103 35.236 41.5323C35.0131 41.1572 34.8452 40.752 34.7374 40.3293C34.6861 40.1292 34.5195 39.9797 34.3151 39.9506L33.0574 39.7703V38.6136L34.3147 38.434C34.5191 38.4046 34.6857 38.2551 34.7369 38.0553C34.8445 37.6323 35.0124 37.2272 35.2355 36.8521C35.341 36.6741 35.3287 36.4501 35.2043 36.2849L34.4427 35.269L35.2594 34.4522L36.2758 35.2138V35.2141C36.441 35.3378 36.6648 35.3499 36.8425 35.2446C37.2172 35.0215 37.6223 34.854 38.0451 34.7469C38.2456 34.6961 38.3955 34.5291 38.4249 34.3242L38.6045 33.0665H39.7612L39.9403 34.3237C39.9695 34.5286 40.1197 34.6956 40.3202 34.7464C40.7429 34.8535 41.1481 35.021 41.5227 35.2441C41.7005 35.3494 41.924 35.3373 42.0895 35.2134L43.1058 34.4518L43.9225 35.2685L43.161 36.2844H43.1607C43.0365 36.4496 43.0242 36.6736 43.1297 36.8516C43.3526 37.2267 43.5205 37.6319 43.6283 38.0546C43.6796 38.2547 43.8462 38.4041 44.0506 38.4333L45.3083 38.6136V39.7703Z" fill="#D365FF"/>
<path d="M39.183 36.129C38.3706 36.129 37.5917 36.4516 37.0172 37.0259C36.4429 37.6004 36.1202 38.3793 36.1202 39.1917C36.1202 40.0041 36.4429 40.783 37.0172 41.3575C37.5917 41.9317 38.3706 42.2544 39.183 42.2544C39.9954 42.2544 40.7742 41.9317 41.3488 41.3575C41.923 40.783 42.2457 40.0041 42.2457 39.1917C42.2448 38.3798 41.9219 37.6011 41.3478 37.0268C40.7736 36.4528 39.9949 36.1299 39.183 36.129ZM39.183 41.2335C38.6415 41.2335 38.1222 41.0184 37.7391 40.6356C37.3563 40.2525 37.1411 39.7331 37.1411 39.1917C37.1411 38.6503 37.3563 38.1309 37.7391 37.7478C38.1222 37.365 38.6415 37.1499 39.183 37.1499C39.7244 37.1499 40.2438 37.365 40.6268 37.7478C41.0097 38.1309 41.2248 38.6503 41.2248 39.1917C41.2248 39.7331 41.0097 40.2525 40.6268 40.6356C40.2438 41.0184 39.7244 41.2335 39.183 41.2335Z" fill="#D365FF"/>
<path d="M38.6725 34.0872H39.6935V35.1081H38.6725V34.0872Z" fill="#D365FF"/>
<path d="M35.2125 35.9435L35.9345 35.2218L36.6561 35.9437L35.9342 36.6654L35.2125 35.9435Z" fill="#D365FF"/>
<path d="M34.0784 38.6812H35.0993V39.7022H34.0784V38.6812Z" fill="#D365FF"/>
<path d="M35.2125 42.4399L35.9345 41.718L36.6564 42.4399L35.9345 43.1619L35.2125 42.4399Z" fill="#D365FF"/>
<path d="M38.6725 43.2753H39.6935V44.2962H38.6725V43.2753Z" fill="#D365FF"/>
<path d="M41.7096 42.4405L42.4315 41.7188L43.1532 42.4408L42.4313 43.1625L41.7096 42.4405Z" fill="#D365FF"/>
<path d="M43.2666 38.6812H44.2875V39.7022H43.2666V38.6812Z" fill="#D365FF"/>
<path d="M41.7096 35.9435L42.4313 35.2215L43.1532 35.9432L42.4315 36.6652L41.7096 35.9435Z" fill="#D365FF"/>
<path d="M18.7648 34.5976H27.953V35.6185H18.7648V34.5976Z" fill="#D365FF"/>
<path d="M28.9739 34.5976H31.0157V35.6185H28.9739V34.5976Z" fill="#D365FF"/>
<path d="M18.7648 36.6394H31.0157V37.6603H18.7648V36.6394Z" fill="#D365FF"/>
<path d="M18.7648 38.6812H19.7857V39.7022H18.7648V38.6812Z" fill="#D365FF"/>
<path d="M20.8066 38.6812H31.0157V39.7022H20.8066V38.6812Z" fill="#D365FF"/>
<path d="M18.7648 40.7231H31.0157V41.744H18.7648V40.7231Z" fill="#D365FF"/>
</svg>
