<svg width="61" height="67" viewBox="0 0 61 67" fill="none" xmlns="http://www.w3.org/2000/svg">
<g clip-path="url(#clip0_2_471)">
<path d="M7.46901 57.159C7.46901 54.5133 6.71148 53.1934 5.19353 53.1446C4.57714 53.0987 4.00971 53.2393 3.4394 53.4287C2.96414 53.5693 2.68187 53.7587 2.53785 53.9021V60.1347C3.48549 60.7488 4.33807 61.0329 5.09848 60.9841C6.66251 60.8406 7.46901 59.5666 7.46901 57.159ZM9.31819 57.2537C9.31819 58.5766 9.03304 59.6612 8.37056 60.5594C7.65911 61.5523 6.71148 62.0716 5.4326 62.0716C4.48497 62.1175 3.53733 61.7876 2.54073 61.1735V66.8408L0.927734 66.2726V53.664C1.21289 53.334 1.54413 53.0499 1.92434 52.8146C2.87197 52.2493 4.05868 51.9652 5.38364 51.9652C6.61643 51.9652 7.61015 52.4846 8.27551 53.4775C8.98407 54.5621 9.31819 55.7415 9.31819 57.2537ZM19.1287 60.9841C19.1287 62.7775 18.9386 64.0057 18.6073 64.6685C18.2271 65.3285 17.5646 65.8967 16.568 66.3214C15.7155 66.6514 14.8629 66.8408 13.9124 66.8408L13.6272 65.8479C14.6238 65.7073 15.2863 65.5638 15.6665 65.4691C16.424 65.1851 16.9943 64.8091 17.2766 64.241C17.5128 63.8163 17.6078 62.9669 17.6078 61.7388V61.3141C16.5191 61.8335 15.3324 62.0688 14.1485 62.0688C13.342 62.0688 12.6306 61.8335 12.0632 61.3141C11.4007 60.7947 11.0666 60.0859 11.0666 59.2366V52.5793L12.6767 52.014V58.72C12.6767 59.4288 12.9129 59.9941 13.3881 60.3729C13.8634 60.7517 14.4308 60.9382 15.1883 60.9382C15.9459 60.9382 16.7063 60.6541 17.5589 60.0888V52.2464H19.169L19.1287 60.9841ZM25.3848 62.0229H24.8634C23.9619 62.0229 23.2533 61.7876 22.7291 61.3629C22.2078 60.9382 21.9716 60.3241 21.9716 59.5694V53.2422H20.8828V52.2464H21.9716V49.5548L23.5817 48.9895V52.2464H25.3819V53.2393H23.5817V59.4719C23.5817 60.0859 23.7228 60.5106 24.0569 60.7459C24.3421 60.9353 24.7684 61.0759 25.3848 61.1247V62.0229ZM35.1492 61.8794H33.5391V55.6927C33.5391 55.0786 33.3979 54.5133 33.1128 54.0887C32.7815 53.5693 32.3063 53.334 31.6899 53.334C30.9323 53.334 30.0308 53.7128 28.942 54.5133V61.9282H27.3319V47.1473L28.942 46.6279V53.334C29.9847 52.5793 31.0764 52.2005 32.3063 52.2005C33.1589 52.2005 33.8242 52.4846 34.3916 53.0499C34.913 53.6152 35.1981 54.324 35.1981 55.1762L35.1492 61.8794ZM43.6808 56.875C43.6808 55.8821 43.4907 55.0327 43.1133 54.3727C42.6381 53.5693 41.9756 53.1446 40.979 53.0987C39.2249 53.1934 38.3233 54.4674 38.3233 56.875C38.3233 58.0084 38.5134 58.9066 38.8908 59.6612C39.366 60.6053 40.0746 61.0788 41.0251 61.0788C42.7792 61.03 43.6808 59.6612 43.6808 56.875ZM45.4349 56.875C45.4349 58.2925 45.0547 59.5206 44.3461 60.4647C43.5396 61.5035 42.4019 62.0688 41.028 62.0688C39.6051 62.0688 38.5163 61.5494 37.7098 60.4647C36.9984 59.5206 36.621 58.3384 36.621 56.875C36.621 55.5062 37.0012 54.3727 37.8049 53.4746C38.6574 52.4817 39.7001 52.0111 41.028 52.0111C42.3558 52.0111 43.4446 52.4846 44.2972 53.4746C45.0547 54.4187 45.4349 55.5521 45.4349 56.875ZM54.678 61.8794H53.0678V55.3627C53.0678 54.6539 52.8316 54.0887 52.4054 53.7099C51.9791 53.3311 51.4088 53.0958 50.6512 53.1446C49.8937 53.1446 49.1333 53.4287 48.4708 53.8993V61.9741H46.8607V53.7099C47.7622 53.0499 48.6148 52.5764 49.4213 52.387C50.1788 52.1977 50.7952 52.103 51.3655 52.103C51.7458 52.103 52.1231 52.1489 52.4543 52.1977C53.0707 52.3383 53.5921 52.6223 53.9723 53.0011C54.3986 53.4258 54.6347 53.994 54.6347 54.6052L54.678 61.8794Z" fill="#656565"/>
<path d="M27.0926 0.116077C25.5746 0.116077 24.1056 0.256683 22.8268 0.494853C19.0362 1.15484 18.3709 2.52647 18.3709 5.12337V8.52374H27.2827V9.6572H15.0527C12.4921 9.6572 10.2195 11.2153 9.50802 14.1422C8.70152 17.5426 8.65543 19.6201 9.50802 23.1611C10.1244 25.8068 11.6424 27.6462 14.2491 27.6462H17.331V23.5858C17.331 20.6589 19.8917 18.062 22.8757 18.062H31.7386C34.2041 18.062 36.1945 16.0304 36.1945 13.5282V5.07459C36.1945 2.66707 34.1552 0.870759 31.7386 0.446071C30.1717 0.210771 28.6076 0.0701653 27.0926 0.116077ZM22.2564 2.80768C23.158 2.80768 23.9155 3.56236 23.9155 4.50643C23.9155 5.4505 23.158 6.20518 22.2564 6.20518C21.3549 6.20518 20.5974 5.4505 20.5974 4.50643C20.5974 3.56236 21.3088 2.80768 22.2564 2.80768Z" fill="url(#paint0_linear_2_471)"/>
<path d="M37.2835 9.5596V13.4794C37.2835 16.5497 34.6768 19.0978 31.6899 19.0978H22.827C20.4104 19.0978 18.3711 21.1754 18.3711 23.6317V32.0852C18.3711 34.4928 20.4565 35.9103 22.827 36.6191C25.6239 37.4684 28.3256 37.6119 31.7388 36.6191C33.9654 35.9591 36.1947 34.6822 36.1947 32.0852V28.6849H27.2801V27.5514H40.6478C43.2084 27.5514 44.2021 25.758 45.1037 23.0664C46.0513 20.2801 46.0052 17.6373 45.1037 14.0475C44.4873 11.4965 43.2545 9.56247 40.6478 9.56247L37.2835 9.5596ZM32.2573 30.9518C33.1589 30.9518 33.9164 31.7065 33.9164 32.6505C33.9164 33.5946 33.1589 34.3493 32.2573 34.3493C31.3558 34.3493 30.5982 33.5946 30.5982 32.6505C30.5982 31.7065 31.3586 30.9518 32.2573 30.9518Z" fill="url(#paint1_linear_2_471)"/>
<path d="M57.7572 50.8319H58.0424V49.0844H58.7048V48.8491H57.0947V49.0844H57.7572V50.8319ZM58.99 50.8319H59.2262V49.2279L59.7475 50.8319H60.0327L60.554 49.2279V50.8319H60.8392V48.8491H60.5079L59.8916 50.5479L59.3702 48.8491H58.99V50.8319Z" fill="#656565"/>
<path opacity="0.444" d="M39.3203 42.3324C39.3203 43.6064 33.9657 44.6452 27.3755 44.6452C20.7852 44.6452 15.4307 43.6064 15.4307 42.3324C15.4307 41.0583 20.7852 40.0195 27.3755 40.0195C33.9657 40.0195 39.3203 41.0554 39.3203 42.3324Z" fill="url(#paint2_radial_2_471)"/>
</g>
<defs>
<linearGradient id="paint0_linear_2_471" x1="7.90317" y1="1.12182" x2="28.3726" y2="18.6285" gradientUnits="userSpaceOnUse">
<stop stop-color="#5CA0D5"/>
<stop offset="1" stop-color="#316A99"/>
</linearGradient>
<linearGradient id="paint1_linear_2_471" x1="36.1804" y1="29.4051" x2="28.8497" y2="19.0951" gradientUnits="userSpaceOnUse">
<stop stop-color="#FFD43E"/>
<stop offset="1" stop-color="#FFE975"/>
</linearGradient>
<radialGradient id="paint2_radial_2_471" cx="0" cy="0" r="1" gradientUnits="userSpaceOnUse" gradientTransform="translate(27.367 41.9439) rotate(-90) scale(2.30406 10.1679)">
<stop stop-color="#B8B8B8" stop-opacity="0.498"/>
<stop offset="1" stop-color="#7F8080" stop-opacity="0"/>
</radialGradient>
<clipPath id="clip0_2_471">
<rect width="59.9113" height="66.7305" fill="white" transform="translate(0.927734 0.107422)"/>
</clipPath>
</defs>
</svg>
