<svg width="111" height="56" viewBox="0 0 111 56" fill="none" xmlns="http://www.w3.org/2000/svg">
<path d="M24.0147 30.8632C25.7794 30.8632 27.2099 29.4327 27.2099 27.668C27.2099 25.9034 25.7794 24.4728 24.0147 24.4728C22.2501 24.4728 20.8195 25.9034 20.8195 27.668C20.8195 29.4327 22.2501 30.8632 24.0147 30.8632Z" fill="#00D8FF"/>
<path fill-rule="evenodd" clip-rule="evenodd" d="M24.0149 21.1711C28.3049 21.1711 32.2902 21.7867 35.2951 22.8211C38.9155 24.0676 41.1415 25.9568 41.1415 27.6676C41.1415 29.4503 38.7824 31.4574 34.8945 32.7455C31.9552 33.7194 28.0872 34.2278 24.0149 34.2278C19.8397 34.2278 15.886 33.7506 12.9136 32.7348C9.15287 31.4494 6.88776 29.4163 6.88776 27.6676C6.88776 25.9707 9.01313 24.096 12.5827 22.8515C15.5988 21.8 19.6825 21.1711 24.0144 21.1711H24.0149Z" stroke="#00D8FF" stroke-width="1.66272"/>
<path fill-rule="evenodd" clip-rule="evenodd" d="M18.3592 24.4383C20.5024 20.7221 23.0265 17.5772 25.4238 15.491C28.3122 12.9773 31.0609 11.9929 32.5428 12.8475C34.0872 13.7381 34.6473 16.7845 33.8209 20.7959C33.1967 23.8287 31.7042 27.4333 29.6698 30.961C27.5839 34.5779 25.1955 37.7645 22.8308 39.8314C19.8386 42.447 16.9458 43.3936 15.4309 42.52C13.9609 41.6729 13.3987 38.8947 14.1039 35.1806C14.6998 32.0426 16.195 28.1909 18.3585 24.4382L18.3592 24.4383Z" stroke="#00D8FF" stroke-width="1.66272"/>
<path fill-rule="evenodd" clip-rule="evenodd" d="M18.3651 30.9702C16.2158 27.2582 14.7525 23.5001 14.1417 20.3812C13.4065 16.6235 13.9263 13.7504 15.4069 12.8933C16.9497 12.0001 19.8688 13.0363 22.9314 15.7556C25.2469 17.8116 27.6246 20.9042 29.665 24.4286C31.7568 28.042 33.3247 31.7028 33.9346 34.7837C34.7063 38.6824 34.0817 41.6613 32.5682 42.5374C31.0997 43.3876 28.4124 42.4875 25.5469 40.0216C23.1258 37.9383 20.5355 34.7191 18.3651 30.9701V30.9702Z" stroke="#00D8FF" stroke-width="1.66272"/>
<path fill-rule="evenodd" clip-rule="evenodd" d="M59.4823 35.8311L55.5659 29.9143C57.5452 29.7396 59.3287 28.3055 59.3287 25.6854C59.3287 23.0193 57.4367 21.313 54.7826 21.313H48.9541V35.8201H50.7597V30.0559H53.6528L57.3503 35.8201L59.4823 35.8311ZM54.5666 28.4792H50.7606V22.9329H54.5666C56.2857 22.9329 57.4597 24.0637 57.4597 25.6955C57.4597 27.3273 56.2848 28.4811 54.5666 28.4811V28.4792ZM66.2035 36.0913C67.9226 36.0913 69.3356 35.5259 70.38 34.4824L69.5967 33.416C68.7693 34.2646 67.5521 34.7426 66.3561 34.7426C64.0945 34.7426 62.7017 33.0897 62.5712 31.1113H71.075V30.6976C71.075 27.5443 69.2042 25.0639 66.0279 25.0639C63.0263 25.0639 60.8521 27.5222 60.8521 30.567C60.8521 33.8518 63.0925 36.083 66.2025 36.083L66.2035 36.0913ZM69.4671 29.9134H62.5721C62.6595 28.3045 63.7672 26.4107 66.0086 26.4107C68.4016 26.4107 69.445 28.3468 69.4671 29.9134ZM81.9093 35.8302V28.6088C81.9093 26.0641 80.0614 25.063 77.8422 25.063C76.123 25.063 74.7753 25.6284 73.6445 26.8033L74.4057 27.9341C75.3407 26.9338 76.3639 26.4769 77.6252 26.4769C79.1476 26.4769 80.2793 27.2813 80.2793 28.6953V30.5872C79.4308 29.6082 78.2347 29.1512 76.7987 29.1512C75.0152 29.1512 73.1214 30.2609 73.1214 32.6098C73.1214 34.8934 75.0134 36.0903 76.7987 36.0903C78.2127 36.0903 79.4096 35.5902 80.2793 34.6332V35.8283L81.9093 35.8302ZM77.3862 34.9164C75.8638 34.9164 74.7973 33.9603 74.7973 32.6327C74.7973 31.2841 75.8638 30.3271 77.3862 30.3271C78.539 30.3271 79.6477 30.7619 80.2793 31.6325V33.6118C79.6486 34.4815 78.539 34.9173 77.3862 34.9173V34.9164ZM89.7971 36.0913C91.7112 36.0913 92.8419 35.308 93.6473 34.2646L92.5597 33.2643C91.8638 34.1993 90.972 34.6341 89.8936 34.6341C87.6532 34.6341 86.2623 32.8938 86.2623 30.567C86.2623 28.2402 87.6542 26.522 89.8936 26.522C90.9812 26.522 91.873 26.9357 92.5597 27.8918L93.6473 26.8915C92.8428 25.8472 91.7112 25.0648 89.7971 25.0648C86.665 25.0648 84.5551 27.4578 84.5551 30.5679C84.5551 33.7001 86.665 36.0839 89.7971 36.0839V36.0913ZM98.5859 36.0913C99.542 36.0913 100.13 35.8081 100.544 35.4174L100.066 34.1993C99.8481 34.4383 99.4225 34.6341 98.9564 34.6341C98.2393 34.6341 97.89 34.0687 97.89 33.2855V26.7601H100.023V25.325H97.89V22.4539H96.2582V25.325H94.5179V26.761H96.2582V33.6348C96.2582 35.2014 97.0414 36.0931 98.5859 36.0931V36.0913Z" fill="#00D8FF"/>
</svg>
