<svg width="222" height="222" viewBox="0 0 222 222" fill="none" xmlns="http://www.w3.org/2000/svg">
<path d="M121.581 105.07C114.583 105.07 114.583 116.068 121.581 116.068C128.58 116.068 135.579 121.067 133.578 128.065C131.579 143.061 106.584 143.061 95.5869 132.065C83.5901 120.068 88.5883 101.072 100.585 91.0745C117.582 76.0783 145.576 79.0777 160.573 94.0738C180.569 114.07 172.57 144.064 152.574 160.059C128.579 181.054 88.5895 180.055 65.5948 157.06C38.6002 130.065 49.5984 89.0741 76.593 67.0817C108.586 39.0884 160.574 39.0884 190.568 69.0806C224.56 104.073 211.563 156.06 177.571 185.056C137.579 218.049 73.594 220.048 35.6024 182.057C-5.38791 140.064 10.6081 78.0798 51.5988 42.0885C73.5936 24.0933 102.587 12.0945 133.579 11.0959C140.578 11.0959 140.578 0.0976562 132.579 0.0976562C99.586 1.09793 68.5942 14.0953 44.5973 34.0893C-1.39193 73.0808 -18.3893 143.065 27.6007 190.053C69.5932 232.045 140.577 231.043 184.566 193.052C223.558 160.059 237.555 101.073 198.564 62.0797C164.572 27.0874 105.583 27.0874 69.592 58.08C37.5991 85.0747 26.6013 133.065 57.5952 165.056C84.5898 192.05 130.58 194.049 160.574 169.055C184.569 148.061 192.567 111.068 168.573 87.0747C149.577 67.0787 115.584 64.0796 93.5876 82.0765C76.591 97.0727 70.5926 123.067 87.5892 140.064C104.586 157.062 139.58 155.06 144.575 130.066C147.574 116.069 134.577 105.072 121.58 105.072L121.581 105.07Z" fill="white" fill-opacity="0.3"/>
</svg>
