<svg width="123" height="167" viewBox="0 0 123 167" fill="none" xmlns="http://www.w3.org/2000/svg">
<path d="M18.5194 135.569L18.8178 136.885C19.1631 137.224 19.6282 137.412 20.1123 137.407C20.5953 137.403 21.0572 137.206 21.3951 136.86C21.7351 136.516 21.78 132.823 21.7757 132.339C21.7715 131.855 21.8646 131.179 21.8646 131.179C21.122 105.582 34.2766 89.2028 47.9364 79.1473C50.7477 80.4799 53.6768 81.5509 56.6853 82.3465C82.1998 89.2977 112.742 83.1452 119.849 73.2301C123.413 68.2566 121.865 64.7906 120.625 63.1679C114.639 55.3312 90.9735 55.6298 68.9426 63.8172L68.9415 63.8183C61.3728 66.5608 54.1737 70.2334 47.5097 74.7524C43.2958 72.2948 39.7164 68.7842 39.2758 63.8755C38.2376 52.3163 55.2395 46.8311 71.6821 41.5273C87.3017 36.4882 102.055 31.7276 103.248 21.4164C105.069 5.67721 78.2502 1.09367 77.1082 0.904934C77.0097 0.889049 76.9101 0.880566 76.8105 0.880566C75.8625 0.882686 75.0733 1.61148 74.997 2.55639C74.9197 3.50236 75.5807 4.34874 76.5171 4.50233C76.7629 4.54258 101.051 8.69293 99.6281 20.9979C98.7055 28.9799 84.3985 33.5951 70.5627 38.0591C52.758 43.8027 34.349 49.7422 35.6452 64.2016C36.106 69.3319 39.0478 73.6836 44.2838 77.0977L44.2838 77.0988C35.9088 83.3528 29.1653 91.5371 24.6284 100.954C20.0915 110.372 17.5934 120.77 17.9218 131.219C17.9218 131.219 18.2402 134.298 18.5194 135.569ZM70.2124 67.2356C91.673 59.2569 113.379 59.687 117.726 65.3819C118.143 65.9263 119.41 67.5842 116.884 71.1073C112.233 77.6008 96.3326 81.5435 79.8949 81.5435C72.3907 81.6092 64.9098 80.6971 57.641 78.8295C55.5298 78.2607 53.4589 77.551 51.4421 76.7056C57.3254 72.8592 63.6209 69.6825 70.2109 67.2354L70.2124 67.2356Z" fill="#E7332B"/>
<path fill-rule="evenodd" clip-rule="evenodd" d="M20.1328 166.092L33.788 129.858L23.0243 134.463L20.6842 145.441L15.6601 134.243L3.67652 129.474L20.1328 166.092Z" fill="#E7332B"/>
</svg>
