<svg width="151" height="120" viewBox="0 0 151 120" fill="none" xmlns="http://www.w3.org/2000/svg">
<path d="M126.102 10.0233C126.43 9.57945 126.337 8.9532 125.893 8.62454C125.449 8.29587 124.823 8.38924 124.494 8.83308L126.102 10.0233ZM98.2466 63.4336L99.2458 63.4731L98.2466 63.4336ZM124.494 8.83308C119.524 15.5454 115.292 20.0937 111.746 23.0137C108.188 25.9443 105.399 27.1715 103.307 27.3846C101.283 27.5909 99.8397 26.8577 98.8248 25.6149C97.7732 24.3273 97.144 22.4361 96.9751 20.3467C96.8069 18.2666 97.1044 16.0944 97.7968 14.3204C98.4971 12.5259 99.5382 11.2854 100.752 10.803C101.905 10.345 103.5 10.4623 105.61 12.0201C107.738 13.5918 110.273 16.557 113.133 21.5198L114.866 20.5211C111.944 15.4513 109.244 12.2176 106.798 10.4112C104.332 8.5909 102.01 8.15109 100.014 8.94435C98.0785 9.71325 96.738 11.5323 95.9337 13.5933C95.1213 15.6747 94.7912 18.1536 94.9816 20.5079C95.1712 22.853 95.8869 25.1794 97.2757 26.88C98.7011 28.6254 100.794 29.6511 103.51 29.3743C106.16 29.1043 109.316 27.6065 113.018 24.5575C116.733 21.498 121.075 16.8121 126.102 10.0233L124.494 8.83308ZM113.133 21.5198C118.831 31.405 119.114 38.5607 116.726 43.4511C114.324 48.3678 109.056 51.3416 102.893 52.4759C96.7417 53.6081 89.9022 52.8614 84.6614 50.5476C79.4046 48.2266 75.9991 44.4658 76.0836 39.6502L74.0839 39.6151C73.9793 45.5782 78.2351 49.8965 83.8536 52.3772C89.4883 54.8649 96.7384 55.6423 103.255 54.4429C109.759 53.2458 115.737 50.0325 118.523 44.3289C121.321 38.599 120.734 30.7009 114.866 20.5211L113.133 21.5198ZM76.0836 39.6502C76.1299 37.0133 76.5299 35.3598 77.075 34.4173C77.3386 33.9616 77.6198 33.7002 77.8879 33.5532C78.1528 33.408 78.4674 33.3399 78.859 33.3706C79.6856 33.4353 80.788 33.9373 82.1095 34.9519C83.4074 35.9484 84.8143 37.3596 86.2374 39.0671C89.0823 42.4808 91.9137 46.984 93.9975 51.4557C96.0959 55.9588 97.3701 60.29 97.2474 63.3941L99.2458 63.4731C99.3878 59.8811 97.9462 55.1945 95.8103 50.6109C93.6598 45.996 90.7384 41.3439 87.7737 37.7867C86.2921 36.0088 84.7799 34.4806 83.3274 33.3655C81.8985 32.2685 80.419 31.4865 79.015 31.3767C78.2913 31.32 77.5785 31.442 76.9265 31.7994C76.2778 32.1551 75.7528 32.7088 75.3438 33.4159C74.5436 34.7993 74.1322 36.8625 74.0839 39.6151L76.0836 39.6502ZM97.2474 63.3941C97.0592 68.1544 94.1167 72.6145 89.4666 76.6372C84.8309 80.6474 78.6284 84.1064 72.2272 86.8655C65.8333 89.6216 59.2925 91.6574 54.0178 92.8416C51.3792 93.434 49.0765 93.8088 47.2794 93.9575C46.3801 94.0319 45.6257 94.048 45.0292 94.0113C44.4116 93.9733 44.046 93.8828 43.8693 93.8002L43.0228 95.6123C43.5403 95.854 44.2039 95.9643 44.9063 96.0075C45.6297 96.052 46.4862 96.0299 47.4442 95.9507C49.3619 95.792 51.7604 95.3981 54.4559 94.793C59.8495 93.5822 66.5088 91.5083 73.0188 88.7022C79.5216 85.8992 85.9269 82.3438 90.775 78.1497C95.6088 73.9682 99.026 69.0342 99.2458 63.4731L97.2474 63.3941Z" fill="#E7332B"/>
<path fill-rule="evenodd" clip-rule="evenodd" d="M19.4839 90.3784L48.4393 108.499L46.332 98.3883L37.2462 94.4524L47.805 92.0583L54.0171 82.526L19.4839 90.3784Z" fill="#E7332B"/>
</svg>
