<svg width="282" height="252" viewBox="0 0 282 252" fill="none" xmlns="http://www.w3.org/2000/svg">
<path d="M11.6306 89.9128C11.0822 89.8471 10.5844 90.2383 10.5186 90.7867C10.4528 91.335 10.8441 91.8328 11.3924 91.8986L11.6306 89.9128ZM125.691 84.7715L125.231 83.8839L125.691 84.7715ZM11.3924 91.8986C27.1337 93.7863 38.659 96.4955 46.8765 99.624C55.1094 102.758 59.9287 106.278 62.3852 109.722C64.8027 113.111 64.9798 116.489 63.783 119.593C62.5654 122.752 59.895 125.69 56.5225 127.991C53.1576 130.286 49.1798 131.888 45.4673 132.434C41.7332 132.983 38.4263 132.445 36.2243 130.684C34.0738 128.965 32.736 125.878 33.3434 120.752C33.9536 115.602 36.5225 108.531 42.0311 99.1267L40.3053 98.1159C34.7344 107.627 32.014 114.974 31.3573 120.516C30.6979 126.082 32.1156 129.959 34.9752 132.246C37.7832 134.492 41.741 135.003 45.7582 134.413C49.7971 133.819 54.0575 132.093 57.6496 129.643C61.2341 127.197 64.2397 123.969 65.6491 120.313C67.0793 116.603 66.8345 112.516 64.0134 108.561C61.2312 104.66 55.9952 100.956 47.5881 97.7549C39.1655 94.5483 27.4663 91.8119 11.6306 89.9128L11.3924 91.8986ZM42.0311 99.1267C53.0246 80.3583 64.7486 72.9024 75.4473 72.22C86.1751 71.5359 96.254 77.6347 103.997 86.8264C111.732 96.0086 116.994 108.123 118.121 119.103C119.25 130.1 116.228 139.68 107.779 144.301L108.739 146.056C118.195 140.884 121.28 130.289 120.111 118.899C118.94 107.491 113.501 95.0042 105.527 85.5379C97.5602 76.081 86.9219 69.4842 75.32 70.2241C63.689 70.9659 51.4708 79.0539 40.3053 98.1159L42.0311 99.1267ZM107.779 144.301C103.354 146.721 100.098 147.7 97.8095 147.685C96.6831 147.678 95.8223 147.431 95.1642 147.026C94.5092 146.623 93.9933 146.027 93.6133 145.22C92.8347 143.565 92.6521 141.074 93.0902 137.889C93.5243 134.734 94.5486 131.031 96.0373 127.051C99.014 119.094 103.804 110.148 109.246 102.472C114.708 94.7669 120.738 88.4677 126.152 85.6592L125.231 83.8839C119.383 86.9172 113.128 93.5378 107.614 101.315C102.081 109.12 97.2063 118.218 94.1641 126.351C92.6433 130.416 91.5695 134.269 91.1089 137.617C90.6523 140.935 90.7785 143.893 91.8037 146.071C92.3256 147.18 93.0855 148.096 94.1166 148.73C95.1445 149.362 96.38 149.676 97.7968 149.685C100.595 149.703 104.212 148.532 108.739 146.056L107.779 144.301ZM126.152 85.6592C134.475 81.3416 144.857 82.0796 155.935 85.9927C166.994 89.8995 178.579 96.9155 189.157 104.887C199.729 112.853 209.25 121.74 216.178 129.345C219.644 133.149 222.447 136.617 224.407 139.478C225.387 140.909 226.146 142.173 226.67 143.24C227.203 144.325 227.455 145.131 227.498 145.667L229.492 145.505C229.418 144.594 229.035 143.52 228.465 142.358C227.885 141.177 227.07 139.828 226.057 138.348C224.029 135.387 221.161 131.845 217.657 127.998C210.646 120.303 201.034 111.332 190.361 103.289C179.695 95.2517 167.925 88.1073 156.601 84.1069C145.295 80.1129 134.265 79.1972 125.231 83.8839L126.152 85.6592Z" fill="#E7332B"/>
<path fill-rule="evenodd" clip-rule="evenodd" d="M243.839 189.052L246.498 124.443L231.845 137.387L233.889 156.02L220.054 140.898L198.553 139.617L243.839 189.052Z" fill="#E7332B"/>
</svg>
