<svg width="151" height="120" viewBox="0 0 151 120" fill="none" xmlns="http://www.w3.org/2000/svg">
<path d="M126.155 10.2629C126.484 9.81907 126.39 9.19283 125.946 8.86416C125.503 8.53549 124.876 8.62886 124.548 9.07271L126.155 10.2629ZM98.2999 63.6733L99.2991 63.7128L98.2999 63.6733ZM124.548 9.07271C119.577 15.7851 115.345 20.3333 111.8 23.2534C108.242 26.1839 105.452 27.4111 103.361 27.6242C101.336 27.8306 99.893 27.0974 98.878 25.8545C97.8264 24.5669 97.1973 22.6757 97.0283 20.5864C96.8601 18.5063 97.1577 16.334 97.8501 14.56C98.5504 12.7656 99.5915 11.525 100.806 11.0426C101.958 10.5847 103.553 10.702 105.663 12.2598C107.792 13.8314 110.326 16.7967 113.187 21.7594L114.919 20.7607C111.997 15.6909 109.298 12.4572 106.851 10.6508C104.386 8.83053 102.064 8.39072 100.067 9.18398C98.1318 9.95287 96.7913 11.7719 95.9869 13.8329C95.1746 15.9143 94.8445 18.3932 95.0348 20.7475C95.2245 23.0926 95.9401 25.419 97.329 27.1196C98.7544 28.865 100.847 29.8907 103.564 29.6139C106.213 29.344 109.369 27.8462 113.071 24.7971C116.786 21.7376 121.128 17.0517 126.155 10.2629L124.548 9.07271ZM113.187 21.7594C118.884 31.6446 119.168 38.8003 116.779 43.6908C114.377 48.6075 109.109 51.5812 102.946 52.7156C96.795 53.8477 89.9555 53.101 84.7147 50.7872C79.4578 48.4663 76.0524 44.7055 76.1369 39.8898L74.1372 39.8547C74.0325 45.8178 78.2883 50.1362 83.9069 52.6168C89.5416 55.1045 96.7917 55.8819 103.308 54.6825C109.812 53.4854 115.79 50.2722 118.576 44.5685C121.375 38.8386 120.787 30.9406 114.919 20.7607L113.187 21.7594ZM76.1369 39.8898C76.1832 37.253 76.5831 35.5994 77.1283 34.657C77.3919 34.2012 77.6731 33.9398 77.9412 33.7928C78.206 33.6476 78.5207 33.5796 78.9123 33.6102C79.7389 33.6749 80.8412 34.1769 82.1628 35.1915C83.4607 36.188 84.8675 37.5992 86.2906 39.3068C89.1356 42.7204 91.967 47.2236 94.0508 51.6953C96.1492 56.1984 97.4233 60.5296 97.3006 63.6338L99.2991 63.7128C99.4411 60.1207 97.9995 55.4341 95.8636 50.8506C93.7131 46.2357 90.7916 41.5836 87.827 38.0263C86.3453 36.2484 84.8332 34.7203 83.3807 33.6051C81.9518 32.5081 80.4723 31.7262 79.0683 31.6163C78.3446 31.5597 77.6317 31.6816 76.9798 32.0391C76.3311 32.3947 75.8061 32.9484 75.397 33.6556C74.5968 35.0389 74.1855 37.1021 74.1372 39.8547L76.1369 39.8898ZM97.3006 63.6338C97.1125 68.394 94.1699 72.8541 89.5198 76.8768C84.8842 80.887 78.6816 84.346 72.2804 87.1052C65.8865 89.8612 59.3458 91.8971 54.0711 93.0812C51.4324 93.6736 49.1298 94.0484 47.3326 94.1971C46.4333 94.2715 45.679 94.2876 45.0824 94.2509C44.4649 94.2129 44.0993 94.1224 43.9225 94.0399L43.0761 95.8519C43.5935 96.0936 44.2571 96.2039 44.9596 96.2471C45.683 96.2916 46.5394 96.2695 47.4975 96.1903C49.4152 96.0317 51.8137 95.6378 54.5092 95.0326C59.9028 93.8218 66.5621 91.7479 73.0721 88.9418C79.5749 86.1388 85.9801 82.5834 90.8283 78.3894C95.662 74.2078 99.0793 69.2738 99.2991 63.7128L97.3006 63.6338Z" fill="white"/>
<path fill-rule="evenodd" clip-rule="evenodd" d="M19.5372 90.618L48.4926 108.738L46.3852 98.628L37.2995 94.692L47.8582 92.2979L54.0704 82.7656L19.5372 90.618Z" fill="white"/>
</svg>
