<svg width="275" height="215" viewBox="0 0 275 215" fill="none" xmlns="http://www.w3.org/2000/svg">
<path d="M43.1973 18.6134C42.8583 18.1774 42.9369 17.5491 43.3728 17.2101C43.8088 16.871 44.4371 16.9496 44.7761 17.3856L43.1973 18.6134ZM95.7165 115.464L94.7185 115.527L95.7165 115.464ZM44.7761 17.3856C54.167 29.4613 62.1388 37.6413 68.8106 42.8774C75.4955 48.1237 80.7969 50.3531 84.8569 50.6703C88.85 50.9823 91.7195 49.4539 93.6844 46.9287C95.6848 44.3579 96.7839 40.6962 97.0085 36.7673C97.2326 32.8476 96.5791 28.7668 95.1857 25.431C93.7838 22.0748 91.6996 19.6178 89.1608 18.6778C86.6839 17.7607 83.4787 18.184 79.5482 21.2318C75.5992 24.2939 71.033 29.931 65.9981 39.1625L64.2423 38.2049C69.3362 28.865 74.0613 22.9556 78.3226 19.6513C82.6024 16.3327 86.5268 15.5698 89.8553 16.8022C93.1218 18.0117 95.519 21.04 97.0312 24.6601C98.5518 28.3005 99.245 32.6871 99.0052 36.8814C98.766 41.0664 97.5906 45.1653 95.2628 48.1569C92.8995 51.1942 89.387 53.0303 84.7011 52.6642C80.082 52.3034 74.4074 49.8121 67.5759 44.4507C60.7314 39.0791 52.6466 30.7642 43.1973 18.6134L44.7761 17.3856ZM65.9981 39.1625C55.9507 57.5846 55.6231 70.975 60.3737 80.1464C65.1378 89.3438 75.1823 94.6399 86.6287 96.4687C98.0629 98.2956 110.691 96.6207 120.324 92.0936C129.972 87.5589 136.376 80.3052 135.994 71.04L137.993 70.9578C138.421 81.3697 131.181 89.2008 121.174 93.9036C111.152 98.6139 98.1141 100.329 86.3131 98.4437C74.5244 96.5601 63.7647 91.0413 58.5978 81.0663C53.4175 71.0653 54.032 56.9256 64.2423 38.2049L65.9981 39.1625ZM135.994 71.04C135.794 66.1786 134.984 63.0067 133.838 61.1293C133.274 60.2058 132.646 59.6221 131.991 59.2827C131.339 58.945 130.596 58.8159 129.745 58.9027C128 59.0807 125.855 60.1644 123.442 62.1093C121.052 64.0357 118.501 66.7229 115.952 69.9323C110.855 76.3497 105.842 84.7582 102.203 93.0744C98.5502 101.422 96.3441 109.536 96.7145 115.401L94.7185 115.527C94.3173 109.175 96.6824 100.702 100.371 92.2727C104.074 83.8117 109.173 75.2522 114.386 68.6885C116.992 65.4074 119.645 62.6007 122.187 60.5521C124.706 58.5222 127.221 57.1498 129.542 56.913C130.725 56.7924 131.867 56.966 132.911 57.5068C133.951 58.0458 134.83 58.916 135.545 60.0874C136.956 62.3996 137.788 65.9807 137.993 70.9578L135.994 71.04ZM96.7145 115.401C97.2841 124.417 103.051 132.627 111.794 139.837C120.522 147.035 132.084 153.123 143.936 157.904C155.78 162.681 167.862 166.132 177.596 168.077C182.464 169.05 186.725 169.643 190.063 169.84C191.733 169.938 193.154 169.937 194.294 169.84C195.456 169.741 196.242 169.549 196.701 169.321L197.59 171.113C196.794 171.507 195.71 171.726 194.464 171.832C193.197 171.94 191.674 171.938 189.946 171.836C186.487 171.632 182.129 171.023 177.204 170.039C167.351 168.07 155.149 164.583 143.187 159.759C131.233 154.937 119.467 148.757 110.522 141.38C101.591 134.016 95.3386 125.343 94.7185 115.527L96.7145 115.401Z" fill="#E7332B"/>
<path fill-rule="evenodd" clip-rule="evenodd" d="M240.72 161.281L188.619 195.621L192.032 177.066L208.456 169.486L189.07 165.569L177.314 148.428L240.72 161.281Z" fill="#E7332B"/>
</svg>
