<svg width="36" height="36" viewBox="0 0 36 36" fill="none" xmlns="http://www.w3.org/2000/svg">
<rect x="0.302246" y="0.229492" width="34.9584" height="34.9584" rx="17.4792" fill="#E7332B"/>
<path d="M26.5662 12.2623C25.9202 12.5486 25.2262 12.742 24.4967 12.8294C25.2494 12.379 25.8126 11.67 26.0811 10.8349C25.3739 11.255 24.5998 11.5507 23.7926 11.7091C23.2498 11.1296 22.5308 10.7454 21.7473 10.6163C20.9638 10.4872 20.1596 10.6204 19.4596 10.9952C18.7595 11.37 18.2028 11.9655 17.8758 12.6891C17.5488 13.4128 17.4699 14.2241 17.6513 14.9972C16.2183 14.9252 14.8164 14.5528 13.5366 13.9039C12.2568 13.2551 11.1277 12.3444 10.2227 11.231C9.9132 11.7648 9.73526 12.3838 9.73526 13.0429C9.73492 13.6363 9.88104 14.2206 10.1607 14.744C10.4403 15.2674 10.8448 15.7136 11.3383 16.0432C10.766 16.025 10.2063 15.8703 9.70586 15.5921V15.6385C9.7058 16.4708 9.99369 17.2774 10.5207 17.9216C11.0476 18.5658 11.7813 19.0078 12.597 19.1726C12.0661 19.3163 11.5095 19.3375 10.9692 19.2345C11.1994 19.9506 11.6477 20.5768 12.2515 21.0255C12.8552 21.4741 13.5841 21.7227 14.3362 21.7365C13.0595 22.7387 11.4829 23.2824 9.85982 23.28C9.57231 23.28 9.28505 23.2633 8.99951 23.2297C10.647 24.289 12.5648 24.8511 14.5234 24.8489C21.1537 24.8489 24.7783 19.3575 24.7783 14.5949C24.7783 14.4401 24.7744 14.2839 24.7674 14.1291C25.4725 13.6193 26.081 12.9879 26.5647 12.2646L26.5662 12.2623Z" fill="white"/>
</svg>
