<svg width="137" height="69" viewBox="0 0 137 69" fill="none" xmlns="http://www.w3.org/2000/svg">
<path d="M121.213 35.0984C125.204 35.0984 128.438 31.8638 128.438 27.8737C128.438 23.8837 125.204 20.6491 121.213 20.6491C117.223 20.6491 113.989 23.8837 113.989 27.8737C113.989 31.8638 117.223 35.0984 121.213 35.0984Z" fill="#DD4814"/>
<path d="M116.301 26.9089C115.768 26.9089 115.336 27.3409 115.336 27.8737C115.336 28.4066 115.768 28.838 116.301 28.838C116.428 28.8381 116.553 28.8131 116.67 28.7647C116.787 28.7162 116.893 28.6452 116.983 28.5556C117.073 28.466 117.144 28.3597 117.192 28.2427C117.24 28.1256 117.265 28.0002 117.265 27.8735C117.265 27.3405 116.835 26.9087 116.301 26.9087L116.301 26.9089ZM123.188 31.2928C123.077 31.3556 122.98 31.4396 122.902 31.5401C122.824 31.6406 122.766 31.7556 122.733 31.8785C122.699 32.0013 122.69 32.1295 122.707 32.2558C122.723 32.3821 122.764 32.5038 122.828 32.6141C122.891 32.7244 122.976 32.8209 123.077 32.8982C123.179 32.9755 123.294 33.032 123.417 33.0645C123.54 33.0969 123.669 33.1047 123.795 33.0873C123.921 33.0699 124.042 33.0277 124.152 32.9631C124.374 32.8353 124.535 32.6246 124.601 32.3776C124.668 32.1306 124.633 31.8674 124.505 31.6459C124.239 31.1849 123.649 31.0267 123.188 31.2928ZM118.396 27.8739C118.396 26.9207 118.869 26.0785 119.594 25.5686L118.889 24.3891C118.045 24.9533 117.417 25.8151 117.156 26.8246C117.312 26.9516 117.438 27.1118 117.525 27.2935C117.611 27.4753 117.656 27.674 117.656 27.8753C117.656 28.299 117.461 28.677 117.156 28.9273C117.417 29.9372 118.045 30.7992 118.889 31.3633L119.594 30.1819C118.87 29.6723 118.396 28.8302 118.396 27.8771V27.8739ZM121.213 25.0561C121.917 25.0563 122.596 25.32 123.115 25.7951C123.634 26.2703 123.957 26.9227 124.02 27.6238L125.394 27.6035C125.326 26.541 124.862 25.5872 124.149 24.8859C123.783 25.0246 123.359 25.0032 122.993 24.7922C122.627 24.5811 122.396 24.2235 122.333 23.8358C121.976 23.7375 121.599 23.6836 121.213 23.6836C120.546 23.6836 119.916 23.8401 119.356 24.1171L120.027 25.3182C120.387 25.1505 120.789 25.0561 121.213 25.0561ZM121.213 30.6913C120.789 30.6913 120.387 30.5969 120.027 30.4291L119.356 31.6301C119.934 31.9162 120.569 32.0648 121.213 32.0641C121.592 32.0641 121.968 32.0128 122.333 31.9116C122.365 31.7131 122.44 31.5242 122.554 31.3586C122.668 31.193 122.817 31.0549 122.991 30.9543C123.165 30.8538 123.359 30.7932 123.56 30.7772C123.76 30.7611 123.961 30.7899 124.149 30.8615C124.862 30.1602 125.327 29.2062 125.394 28.1439L124.019 28.1236C123.893 29.5633 122.685 30.6899 121.213 30.6899L121.213 30.6913ZM123.188 24.4543C123.649 24.7208 124.239 24.563 124.505 24.1015C124.568 23.9919 124.609 23.8708 124.626 23.7452C124.642 23.6196 124.634 23.492 124.601 23.3697C124.569 23.2473 124.512 23.1326 124.435 23.0321C124.358 22.9316 124.262 22.8473 124.152 22.784C123.691 22.5178 123.101 22.6759 122.834 23.1374C122.707 23.3588 122.672 23.6219 122.738 23.8689C122.805 24.1158 122.966 24.3264 123.188 24.4543Z" fill="white"/>
<path d="M22.169 46.8305C21.4349 47.0143 20.4661 47.2091 19.262 47.4155C18.0579 47.6219 16.6645 47.7252 15.0819 47.7252C13.7058 47.7252 12.5475 47.5244 11.6071 47.1235C10.6666 46.7226 9.9095 46.1544 9.33648 45.4204C8.76345 44.6864 8.35014 43.8206 8.09798 42.8229C7.84582 41.8253 7.71989 40.7189 7.71989 39.5029V29.4575H10.9194V38.8148C10.9194 40.994 11.2634 42.5535 11.9517 43.4936C12.6399 44.4337 13.7975 44.9043 15.4265 44.9043C15.7823 44.9039 16.1379 44.8923 16.493 44.8695C16.8596 44.8472 17.2036 44.818 17.5251 44.7834L18.4024 44.6805C18.6657 44.646 18.8551 44.6064 18.9698 44.5601V29.4572H22.1694V46.8305H22.169ZM29.9784 30.2486C30.3682 29.9967 30.9587 29.7326 31.7501 29.4575C32.5415 29.1824 33.4531 29.0431 34.4853 29.0431C35.7696 29.0431 36.9107 29.2723 37.9085 29.7309C38.9063 30.1894 39.749 30.8318 40.437 31.6576C41.1249 32.4834 41.6465 33.4696 42.0022 34.6163C42.358 35.7629 42.5356 37.0242 42.5356 38.4002C42.5356 39.8453 42.3231 41.1474 41.8991 42.3054C41.4751 43.4634 40.8741 44.4455 40.093 45.2482C39.312 46.0509 38.3728 46.6705 37.272 47.1061C36.1713 47.5417 34.9326 47.7596 33.5581 47.7596C32.067 47.7596 30.7485 47.6567 29.602 47.4501C28.4554 47.2435 27.5147 47.0357 26.781 46.8308V21.2005L29.9805 20.6503V30.2486H29.9784ZM29.9784 44.5601C30.2993 44.6519 30.7525 44.7379 31.3374 44.8179C31.9224 44.8979 32.6501 44.9385 33.522 44.9385C35.2421 44.9385 36.6182 44.3708 37.6503 43.2356C38.6824 42.1004 39.1985 40.4892 39.1985 38.4017C39.1985 37.4852 39.1065 36.6248 38.9232 35.8216C38.7399 35.0184 38.4418 34.3252 38.0306 33.7404C37.6194 33.1556 37.0844 32.6969 36.4308 32.364C35.7771 32.0312 34.9911 31.8651 34.0741 31.8651C33.2022 31.8651 32.3997 32.0147 31.666 32.3124C30.9323 32.6101 30.3699 32.9224 29.9784 33.2412V44.56V44.5601ZM60.3904 46.8305C59.656 47.0143 58.6874 47.2091 57.4833 47.4155C56.2793 47.6219 54.886 47.725 53.3034 47.725C51.9271 47.725 50.769 47.5242 49.8285 47.1233C48.8881 46.7225 48.131 46.1542 47.558 45.4202C46.9849 44.6862 46.5716 43.8204 46.3195 42.8228C46.0673 41.8251 45.9409 40.7188 45.9409 39.5029V29.4577H49.1404V38.8148C49.1404 40.994 49.4844 42.5535 50.1725 43.4936C50.8606 44.4337 52.0183 44.9043 53.6473 44.9043C54.0031 44.9039 54.3587 44.8923 54.7137 44.8695C55.0803 44.8472 55.4243 44.818 55.7458 44.7834L56.6231 44.6805C56.8864 44.646 57.0758 44.6064 57.1905 44.5601V29.4572H60.39V46.8305H60.3904ZM65.0001 29.9736C65.7339 29.7903 66.7083 29.5951 67.9245 29.3887C69.1407 29.1822 70.5389 29.0794 72.1214 29.0794C73.5435 29.0794 74.7243 29.2803 75.665 29.6813C76.6058 30.0823 77.3546 30.6445 77.9184 31.367C78.4822 32.0896 78.8757 32.9557 79.1054 33.9645C79.3351 34.9733 79.4476 36.0859 79.4476 37.3012V47.3466H76.2479V37.989C76.2479 36.8884 76.173 35.9483 76.0245 35.1682C75.8759 34.3882 75.6292 33.7576 75.2849 33.2762C74.9406 32.7949 74.482 32.4449 73.9088 32.2268C73.3356 32.0088 72.6241 31.9 71.7761 31.9C71.4318 31.9 71.0759 31.9118 70.7082 31.9345C70.3404 31.9571 69.9909 31.9863 69.6589 32.0205C69.3595 32.0506 69.0613 32.0907 68.7647 32.1409L68.1969 32.2439V47.3463H65.0001V29.9736ZM86.8456 29.4575H93.6231V32.1409H86.8456V40.3974C86.8456 41.29 86.9142 42.0317 87.0521 42.6162C87.1899 43.2007 87.396 43.6602 87.6713 43.9924C87.941 44.3211 88.2991 44.5658 88.7034 44.6977C89.1178 44.8352 89.596 44.9043 90.1481 44.9043C91.1342 44.9043 91.9142 44.7956 92.4877 44.5775C93.0612 44.3595 93.451 44.205 93.6574 44.1132L94.3453 46.7277C94.024 46.8884 93.4562 47.095 92.6424 47.3468C91.8285 47.5986 90.9053 47.7252 89.8729 47.7252C88.6572 47.7252 87.6541 47.5706 86.8627 47.2609C86.0713 46.9512 85.435 46.4869 84.9531 45.8678C84.4713 45.2487 84.1329 44.4862 83.9383 43.5799C83.7437 42.6736 83.6456 41.6251 83.6456 40.4322V24.469L86.8453 23.9186V29.4575H86.8456ZM111.031 46.8305C110.296 47.0143 109.327 47.2091 108.124 47.4155C106.92 47.6219 105.525 47.7252 103.943 47.7252C102.567 47.7252 101.409 47.5244 100.469 47.1235C99.5282 46.7226 98.7711 46.1544 98.1979 45.4204C97.6247 44.6864 97.2116 43.8206 96.9594 42.8229C96.7072 41.8253 96.5808 40.7189 96.5808 39.5031V29.4578H99.7805V38.8148C99.7805 40.994 100.125 42.5535 100.813 43.4936C101.501 44.4337 102.658 44.9043 104.287 44.9043C104.643 44.9039 104.999 44.8923 105.354 44.8695C105.699 44.8488 106.043 44.8201 106.386 44.7834L107.263 44.6805C107.527 44.646 107.716 44.6064 107.831 44.5601V29.4572H111.03V46.8305H111.031Z" fill="#DD4814"/>
</svg>
