<svg width="36" height="36" viewBox="0 0 36 36" fill="none" xmlns="http://www.w3.org/2000/svg">
<rect x="0.294678" y="0.229492" width="34.9584" height="34.9584" rx="17.4792" fill="#E7332B"/>
<path d="M27.4726 12.8315C27.3574 12.4023 27.1314 12.011 26.8174 11.6966C26.5034 11.3822 26.1123 11.1557 25.6833 11.04C24.1042 10.6152 17.7739 10.6152 17.7739 10.6152C17.7739 10.6152 11.4437 10.6152 9.86457 11.0377C9.43537 11.1531 9.04409 11.3794 8.73002 11.6939C8.41595 12.0083 8.19015 12.3999 8.0753 12.8292C7.65283 14.4107 7.65283 17.709 7.65283 17.709C7.65283 17.709 7.65283 21.0074 8.0753 22.5866C8.30799 23.4587 8.99478 24.1454 9.86457 24.3781C11.4437 24.8029 17.7739 24.8029 17.7739 24.8029C17.7739 24.8029 24.1042 24.8029 25.6833 24.3781C26.5554 24.1454 27.2399 23.4587 27.4726 22.5866C27.8951 21.0074 27.8951 17.709 27.8951 17.709C27.8951 17.709 27.8951 14.4107 27.4726 12.8315ZM15.7633 20.7363V14.6818L21.0046 17.6865L15.7633 20.7363Z" fill="white"/>
</svg>
