<svg width="60" height="56" viewBox="0 0 60 56" fill="none" xmlns="http://www.w3.org/2000/svg">
<g clip-path="url(#clip0_136_14)">
<path d="M12.6666 0H47.3333V26H12.6666V0Z" fill="white"/>
<path d="M27.9198 0H32.0798V26H27.9198V0Z" fill="#CE1124"/>
<path d="M12.6666 10.92H47.3333V15.08H12.6666V10.92Z" fill="#CE1124"/>
</g>
<path d="M3.188 48.944H9.252V50H2.036V38.672H9.06V39.728H3.188V43.584H8.676V44.64H3.188V48.944ZM12.1444 42.512C12.1657 42.7147 12.1764 42.9173 12.1764 43.12C12.187 43.312 12.1924 43.5093 12.1924 43.712H12.2244C12.3417 43.5093 12.491 43.3227 12.6724 43.152C12.8537 42.9813 13.0564 42.8373 13.2804 42.72C13.5044 42.592 13.739 42.496 13.9844 42.432C14.2404 42.3573 14.491 42.32 14.7364 42.32C15.6964 42.32 16.4057 42.576 16.8644 43.088C17.323 43.5893 17.5524 44.3093 17.5524 45.248V50H16.4964V45.856C16.4964 45.024 16.3524 44.3893 16.0644 43.952C15.7764 43.504 15.243 43.28 14.4644 43.28C14.411 43.28 14.2617 43.3013 14.0164 43.344C13.771 43.3867 13.5097 43.504 13.2324 43.696C12.9657 43.888 12.7257 44.176 12.5124 44.56C12.299 44.944 12.1924 45.4773 12.1924 46.16V50H11.1364V44.16C11.1364 43.9573 11.1257 43.7013 11.1044 43.392C11.0937 43.0827 11.0777 42.7893 11.0564 42.512H12.1444ZM20.795 46.16C20.795 46.5547 20.8643 46.928 21.003 47.28C21.1523 47.6213 21.3497 47.9253 21.595 48.192C21.851 48.448 22.1443 48.656 22.475 48.816C22.8163 48.9653 23.1843 49.04 23.579 49.04C23.963 49.04 24.3257 48.9707 24.667 48.832C25.019 48.6933 25.3283 48.5013 25.595 48.256C25.8617 48 26.0643 47.696 26.203 47.344C26.3523 46.992 26.4217 46.5973 26.411 46.16C26.411 45.7653 26.347 45.3973 26.219 45.056C26.091 44.704 25.9043 44.4 25.659 44.144C25.4137 43.8773 25.115 43.6693 24.763 43.52C24.411 43.36 24.0163 43.28 23.579 43.28C23.1843 43.28 22.8163 43.36 22.475 43.52C22.1443 43.6693 21.851 43.8773 21.595 44.144C21.3497 44.4 21.1523 44.704 21.003 45.056C20.8643 45.3973 20.795 45.7653 20.795 46.16ZM20.603 51.504C20.9123 51.92 21.3123 52.2507 21.803 52.496C22.3043 52.752 22.859 52.88 23.467 52.88C24.0003 52.88 24.4537 52.8 24.827 52.64C25.2003 52.4907 25.499 52.2827 25.723 52.016C25.9577 51.7493 26.123 51.4347 26.219 51.072C26.3257 50.72 26.379 50.3413 26.379 49.936V48.592H26.347C26.0057 49.104 25.5897 49.4667 25.099 49.68C24.6083 49.8933 24.091 50 23.547 50C23.003 50 22.491 49.904 22.011 49.712C21.5417 49.52 21.131 49.2587 20.779 48.928C20.427 48.5867 20.1497 48.1813 19.947 47.712C19.7443 47.2427 19.643 46.736 19.643 46.192C19.643 45.648 19.739 45.1413 19.931 44.672C20.123 44.2027 20.3843 43.792 20.715 43.44C21.0563 43.088 21.4563 42.816 21.915 42.624C22.3843 42.4213 22.8963 42.32 23.451 42.32C23.675 42.32 23.9097 42.3413 24.155 42.384C24.411 42.4267 24.6617 42.5013 24.907 42.608C25.163 42.7147 25.4137 42.864 25.659 43.056C25.9043 43.2373 26.1337 43.472 26.347 43.76H26.379V42.512H27.435V49.936C27.435 50.3413 27.3817 50.7733 27.275 51.232C27.179 51.6907 26.9817 52.112 26.683 52.496C26.395 52.88 25.9897 53.2 25.467 53.456C24.9443 53.712 24.2617 53.84 23.419 53.84C22.6723 53.84 22.0057 53.7173 21.419 53.472C20.8323 53.2267 20.299 52.848 19.819 52.336L20.603 51.504ZM31.1043 50H30.0483V37.904H31.1043V50ZM37.908 46.272C37.6413 46.272 37.3053 46.288 36.9 46.32C36.5053 46.3413 36.1213 46.4053 35.748 46.512C35.3853 46.608 35.0707 46.7627 34.804 46.976C34.548 47.1893 34.42 47.4827 34.42 47.856C34.42 48.1013 34.468 48.3147 34.564 48.496C34.6707 48.6667 34.8093 48.8107 34.98 48.928C35.1507 49.0347 35.3373 49.1147 35.54 49.168C35.7533 49.2107 35.9667 49.232 36.18 49.232C36.564 49.232 36.8947 49.168 37.172 49.04C37.46 48.912 37.7 48.7413 37.892 48.528C38.084 48.304 38.2227 48.048 38.308 47.76C38.404 47.4613 38.452 47.1467 38.452 46.816V46.272H37.908ZM38.452 45.408V45.216C38.452 43.9253 37.812 43.28 36.532 43.28C35.6573 43.28 34.8947 43.5733 34.244 44.16L33.604 43.408C34.308 42.6827 35.364 42.32 36.772 42.32C37.1347 42.32 37.4813 42.3733 37.812 42.48C38.1533 42.5867 38.4467 42.752 38.692 42.976C38.9373 43.1893 39.1347 43.4613 39.284 43.792C39.4333 44.1227 39.508 44.5173 39.508 44.976V48.32C39.508 48.608 39.5187 48.912 39.54 49.232C39.572 49.5413 39.604 49.7973 39.636 50H38.612C38.58 49.8187 38.5533 49.6213 38.532 49.408C38.5213 49.1947 38.516 48.9867 38.516 48.784H38.484C38.1747 49.2853 37.8067 49.648 37.38 49.872C36.964 50.0853 36.452 50.192 35.844 50.192C35.5133 50.192 35.1933 50.144 34.884 50.048C34.5747 49.9627 34.2973 49.8293 34.052 49.648C33.8173 49.456 33.6253 49.2267 33.476 48.96C33.3373 48.6827 33.268 48.3627 33.268 48C33.268 47.392 33.4227 46.9173 33.732 46.576C34.052 46.224 34.4467 45.9627 34.916 45.792C35.396 45.6213 35.9027 45.5147 36.436 45.472C36.98 45.4293 37.476 45.408 37.924 45.408H38.452ZM42.9569 42.512C42.9782 42.7147 42.9889 42.9173 42.9889 43.12C42.9995 43.312 43.0049 43.5093 43.0049 43.712H43.0369C43.1542 43.5093 43.3035 43.3227 43.4849 43.152C43.6662 42.9813 43.8689 42.8373 44.0929 42.72C44.3169 42.592 44.5515 42.496 44.7969 42.432C45.0529 42.3573 45.3035 42.32 45.5489 42.32C46.5089 42.32 47.2182 42.576 47.6769 43.088C48.1355 43.5893 48.3649 44.3093 48.3649 45.248V50H47.3089V45.856C47.3089 45.024 47.1649 44.3893 46.8769 43.952C46.5889 43.504 46.0555 43.28 45.2769 43.28C45.2235 43.28 45.0742 43.3013 44.8289 43.344C44.5835 43.3867 44.3222 43.504 44.0449 43.696C43.7782 43.888 43.5382 44.176 43.3249 44.56C43.1115 44.944 43.0049 45.4773 43.0049 46.16V50H41.9489V44.16C41.9489 43.9573 41.9382 43.7013 41.9169 43.392C41.9062 43.0827 41.8902 42.7893 41.8689 42.512H42.9569ZM51.4795 46.256C51.4795 46.672 51.5435 47.0613 51.6715 47.424C51.8102 47.7867 52.0022 48.1013 52.2475 48.368C52.4928 48.6347 52.7862 48.848 53.1275 49.008C53.4795 49.1573 53.8742 49.232 54.3115 49.232C54.7382 49.232 55.1328 49.1573 55.4955 49.008C55.8688 48.848 56.1888 48.6347 56.4555 48.368C56.7222 48.1013 56.9302 47.7867 57.0795 47.424C57.2288 47.0613 57.3035 46.672 57.3035 46.256C57.3035 45.84 57.2288 45.4507 57.0795 45.088C56.9302 44.7253 56.7222 44.4107 56.4555 44.144C56.1888 43.8773 55.8688 43.6693 55.4955 43.52C55.1328 43.36 54.7382 43.28 54.3115 43.28C53.8742 43.28 53.4795 43.36 53.1275 43.52C52.7862 43.6693 52.4928 43.8773 52.2475 44.144C52.0022 44.4107 51.8102 44.7253 51.6715 45.088C51.5435 45.4507 51.4795 45.84 51.4795 46.256ZM58.3115 50H57.2555V48.752H57.2235C57.0528 49.008 56.8502 49.2267 56.6155 49.408C56.3808 49.5893 56.1355 49.7387 55.8795 49.856C55.6235 49.9733 55.3568 50.0587 55.0795 50.112C54.8128 50.1653 54.5568 50.192 54.3115 50.192C53.7248 50.192 53.1862 50.096 52.6955 49.904C52.2155 49.7013 51.7995 49.424 51.4475 49.072C51.0955 48.72 50.8182 48.304 50.6155 47.824C50.4235 47.344 50.3275 46.8213 50.3275 46.256C50.3275 45.6907 50.4235 45.168 50.6155 44.688C50.8182 44.208 51.0955 43.792 51.4475 43.44C51.7995 43.088 52.2155 42.816 52.6955 42.624C53.1862 42.4213 53.7248 42.32 54.3115 42.32C54.5568 42.32 54.8128 42.3467 55.0795 42.4C55.3568 42.4533 55.6235 42.5387 55.8795 42.656C56.1355 42.7733 56.3808 42.9227 56.6155 43.104C56.8502 43.2853 57.0528 43.504 57.2235 43.76H57.2555V37.904H58.3115V50Z" fill="black"/>
<defs>
<clipPath id="clip0_136_14">
<rect width="34.6667" height="26" fill="white" transform="translate(12.6666)"/>
</clipPath>
</defs>
</svg>
