<svg width="20" height="21" viewBox="0 0 20 21" fill="none" xmlns="http://www.w3.org/2000/svg">
<path d="M1.46802 0.918213H18.544C19.132 0.918213 19.6 1.38621 19.6 1.97421V19.0622C19.6 19.6382 19.132 20.1182 18.544 20.1182H13.648V12.6782H16.144L16.516 9.78621H13.648V7.93821C13.648 7.09821 13.888 6.52221 15.088 6.52221H16.624V3.93021C16.36 3.89421 15.448 3.82221 14.392 3.82221C12.172 3.82221 10.66 5.16621 10.66 7.65021V9.78621H8.15202V12.6782H10.66V20.1182H1.46802C1.18684 20.1182 0.916993 20.0074 0.717045 19.8097C0.517098 19.612 0.403184 19.3434 0.400024 19.0622V1.97421C0.400024 1.38621 0.880024 0.918213 1.46802 0.918213Z" fill="#CECECE"/>
</svg>
