<svg width="66" height="56" viewBox="0 0 66 56" fill="none" xmlns="http://www.w3.org/2000/svg">
<g clip-path="url(#clip0_136_13)">
<path d="M15.5 17.3333H50.5V26H15.5V17.3333Z" fill="#FFCE00"/>
<path d="M15.5 0H50.5V8.66667H15.5V0Z" fill="black"/>
<path d="M15.5 8.66669H50.5V17.3334H15.5V8.66669Z" fill="#DD0000"/>
</g>
<path d="M9.904 40.752C9.52 40.3467 9.06133 40.0267 8.528 39.792C7.99467 39.5573 7.376 39.44 6.672 39.44C5.94667 39.44 5.296 39.5733 4.72 39.84C4.144 40.1067 3.65333 40.464 3.248 40.912C2.85333 41.36 2.54933 41.8827 2.336 42.48C2.12267 43.0667 2.016 43.6853 2.016 44.336C2.016 44.9867 2.12267 45.6107 2.336 46.208C2.54933 46.7947 2.85333 47.312 3.248 47.76C3.65333 48.208 4.144 48.5653 4.72 48.832C5.296 49.0987 5.94667 49.232 6.672 49.232C7.25867 49.232 7.81867 49.1627 8.352 49.024C8.896 48.8747 9.38133 48.6773 9.808 48.432V44.64H7.104V43.584H10.96V49.136C10.32 49.5093 9.616 49.7973 8.848 50C8.09067 50.192 7.36533 50.288 6.672 50.288C5.82933 50.288 5.04533 50.1387 4.32 49.84C3.60533 49.5413 2.98133 49.1307 2.448 48.608C1.92533 48.0747 1.51467 47.4453 1.216 46.72C0.917333 45.9947 0.768 45.2 0.768 44.336C0.768 43.472 0.917333 42.6773 1.216 41.952C1.51467 41.2267 1.92533 40.6027 2.448 40.08C2.98133 39.5467 3.60533 39.1307 4.32 38.832C5.04533 38.5333 5.82933 38.384 6.672 38.384C7.57867 38.384 8.35733 38.512 9.008 38.768C9.66933 39.0133 10.256 39.392 10.768 39.904L9.904 40.752ZM19.4291 45.68C19.4291 44.9653 19.2158 44.3893 18.7891 43.952C18.3625 43.504 17.7651 43.28 16.9971 43.28C16.6558 43.28 16.3251 43.3493 16.0051 43.488C15.6851 43.616 15.4025 43.792 15.1571 44.016C14.9225 44.24 14.7305 44.496 14.5811 44.784C14.4425 45.072 14.3731 45.3707 14.3731 45.68H19.4291ZM14.3411 46.544C14.3731 46.9173 14.4638 47.2693 14.6131 47.6C14.7625 47.9307 14.9598 48.2187 15.2051 48.464C15.4505 48.6987 15.7331 48.8853 16.0531 49.024C16.3731 49.1627 16.7198 49.232 17.0931 49.232C17.6585 49.232 18.1438 49.104 18.5491 48.848C18.9651 48.5813 19.2798 48.2773 19.4931 47.936L20.3091 48.608C19.8611 49.1733 19.3651 49.5787 18.8211 49.824C18.2878 50.0693 17.7118 50.192 17.0931 50.192C16.5385 50.192 16.0211 50.096 15.5411 49.904C15.0718 49.7013 14.6665 49.424 14.3251 49.072C13.9838 48.72 13.7118 48.304 13.5091 47.824C13.3171 47.344 13.2211 46.8213 13.2211 46.256C13.2211 45.6907 13.3171 45.168 13.5091 44.688C13.7011 44.208 13.9678 43.792 14.3091 43.44C14.6505 43.088 15.0505 42.816 15.5091 42.624C15.9678 42.4213 16.4638 42.32 16.9971 42.32C17.5625 42.32 18.0691 42.4213 18.5171 42.624C18.9651 42.8267 19.3385 43.0987 19.6371 43.44C19.9465 43.7707 20.1811 44.1653 20.3411 44.624C20.5011 45.072 20.5811 45.552 20.5811 46.064V46.544H14.3411ZM22.6078 44.848C22.6078 44.5173 22.5971 44.1813 22.5758 43.84C22.5651 43.4987 22.5544 43.056 22.5438 42.512H23.5838V43.904H23.6158C23.6904 43.7013 23.7971 43.5093 23.9358 43.328C24.0744 43.136 24.2398 42.9653 24.4318 42.816C24.6344 42.6667 24.8638 42.5493 25.1198 42.464C25.3864 42.368 25.6851 42.32 26.0158 42.32C26.3144 42.32 26.5758 42.352 26.7998 42.416L26.5918 43.456C26.4531 43.4027 26.2504 43.376 25.9838 43.376C25.5784 43.376 25.2318 43.456 24.9438 43.616C24.6558 43.7653 24.4158 43.9627 24.2238 44.208C24.0318 44.4427 23.8878 44.6987 23.7918 44.976C23.7064 45.2533 23.6638 45.52 23.6638 45.776V50H22.6078V44.848ZM28.0895 44.176C28.0895 43.8987 28.0788 43.6213 28.0575 43.344C28.0468 43.0667 28.0308 42.7893 28.0095 42.512H29.1455V43.648H29.1775C29.4335 43.2107 29.7855 42.88 30.2335 42.656C30.6922 42.432 31.1455 42.32 31.5935 42.32C31.7962 42.32 32.0095 42.3413 32.2335 42.384C32.4682 42.4267 32.6922 42.5067 32.9055 42.624C33.1188 42.7307 33.3162 42.8853 33.4975 43.088C33.6895 43.2907 33.8495 43.552 33.9775 43.872C34.1908 43.392 34.5268 43.0133 34.9855 42.736C35.4548 42.4587 35.9402 42.32 36.4415 42.32C37.4015 42.32 38.1108 42.576 38.5695 43.088C39.0282 43.5893 39.2575 44.3093 39.2575 45.248V50H38.2015V45.632C38.2015 44.8747 38.0682 44.2933 37.8015 43.888C37.5348 43.4827 37.0388 43.28 36.3135 43.28C35.9188 43.28 35.5882 43.36 35.3215 43.52C35.0548 43.6693 34.8362 43.872 34.6655 44.128C34.5055 44.384 34.3882 44.6773 34.3135 45.008C34.2388 45.328 34.2015 45.664 34.2015 46.016V50H33.1455V45.632C33.1455 44.8747 33.0122 44.2933 32.7455 43.888C32.4788 43.4827 31.9828 43.28 31.2575 43.28C31.1935 43.28 31.0442 43.3013 30.8095 43.344C30.5855 43.3867 30.3508 43.504 30.1055 43.696C29.8602 43.888 29.6362 44.176 29.4335 44.56C29.2415 44.944 29.1455 45.4773 29.1455 46.16V50H28.0895V44.176ZM45.9705 46.272C45.7038 46.272 45.3678 46.288 44.9625 46.32C44.5678 46.3413 44.1838 46.4053 43.8105 46.512C43.4478 46.608 43.1332 46.7627 42.8665 46.976C42.6105 47.1893 42.4825 47.4827 42.4825 47.856C42.4825 48.1013 42.5305 48.3147 42.6265 48.496C42.7332 48.6667 42.8718 48.8107 43.0425 48.928C43.2132 49.0347 43.3998 49.1147 43.6025 49.168C43.8158 49.2107 44.0292 49.232 44.2425 49.232C44.6265 49.232 44.9572 49.168 45.2345 49.04C45.5225 48.912 45.7625 48.7413 45.9545 48.528C46.1465 48.304 46.2852 48.048 46.3705 47.76C46.4665 47.4613 46.5145 47.1467 46.5145 46.816V46.272H45.9705ZM46.5145 45.408V45.216C46.5145 43.9253 45.8745 43.28 44.5945 43.28C43.7198 43.28 42.9572 43.5733 42.3065 44.16L41.6665 43.408C42.3705 42.6827 43.4265 42.32 44.8345 42.32C45.1972 42.32 45.5438 42.3733 45.8745 42.48C46.2158 42.5867 46.5092 42.752 46.7545 42.976C46.9998 43.1893 47.1972 43.4613 47.3465 43.792C47.4958 44.1227 47.5705 44.5173 47.5705 44.976V48.32C47.5705 48.608 47.5812 48.912 47.6025 49.232C47.6345 49.5413 47.6665 49.7973 47.6985 50H46.6745C46.6425 49.8187 46.6158 49.6213 46.5945 49.408C46.5838 49.1947 46.5785 48.9867 46.5785 48.784H46.5465C46.2372 49.2853 45.8692 49.648 45.4425 49.872C45.0265 50.0853 44.5145 50.192 43.9065 50.192C43.5758 50.192 43.2558 50.144 42.9465 50.048C42.6372 49.9627 42.3598 49.8293 42.1145 49.648C41.8798 49.456 41.6878 49.2267 41.5385 48.96C41.3998 48.6827 41.3305 48.3627 41.3305 48C41.3305 47.392 41.4852 46.9173 41.7945 46.576C42.1145 46.224 42.5092 45.9627 42.9785 45.792C43.4585 45.6213 43.9652 45.5147 44.4985 45.472C45.0425 45.4293 45.5385 45.408 45.9865 45.408H46.5145ZM51.0194 42.512C51.0407 42.7147 51.0514 42.9173 51.0514 43.12C51.062 43.312 51.0674 43.5093 51.0674 43.712H51.0994C51.2167 43.5093 51.366 43.3227 51.5474 43.152C51.7287 42.9813 51.9314 42.8373 52.1554 42.72C52.3794 42.592 52.614 42.496 52.8594 42.432C53.1154 42.3573 53.366 42.32 53.6114 42.32C54.5714 42.32 55.2807 42.576 55.7394 43.088C56.198 43.5893 56.4274 44.3093 56.4274 45.248V50H55.3714V45.856C55.3714 45.024 55.2274 44.3893 54.9394 43.952C54.6514 43.504 54.118 43.28 53.3394 43.28C53.286 43.28 53.1367 43.3013 52.8914 43.344C52.646 43.3867 52.3847 43.504 52.1074 43.696C51.8407 43.888 51.6007 44.176 51.3874 44.56C51.174 44.944 51.0674 45.4773 51.0674 46.16V50H50.0114V44.16C50.0114 43.9573 50.0007 43.7013 49.9794 43.392C49.9687 43.0827 49.9527 42.7893 49.9314 42.512H51.0194ZM61.686 48.704L63.974 42.512H65.254L61.51 51.952C61.286 52.528 60.998 52.9867 60.646 53.328C60.3047 53.6693 59.8087 53.84 59.158 53.84C58.998 53.84 58.8327 53.8347 58.662 53.824C58.502 53.8133 58.342 53.7813 58.182 53.728L58.294 52.704C58.518 52.8213 58.7847 52.88 59.094 52.88C59.4673 52.88 59.7607 52.7627 59.974 52.528C60.1873 52.2933 60.374 51.9627 60.534 51.536L61.078 50.096L58.006 42.512H59.334L61.686 48.704Z" fill="black"/>
<defs>
<clipPath id="clip0_136_13">
<rect width="35" height="26" fill="white" transform="translate(15.5)"/>
</clipPath>
</defs>
</svg>
