<svg width="81" height="81" viewBox="0 0 81 81" fill="none" xmlns="http://www.w3.org/2000/svg">
<circle cx="40.5" cy="40.5" r="40.5" fill="#FCE5E4"/>
<g clip-path="url(#clip0_153_17)">
<path d="M65.7987 34.7668L56.9118 19.6241C56.5044 18.9298 55.6131 18.6944 54.916 19.0969L49.5902 22.1718L44.7929 20.4073C44.6163 20.3423 44.4375 20.2878 44.2573 20.242C42.9067 19.8987 41.4749 20.0913 40.2532 20.7967L32.3233 25.3751C30.5717 26.3864 29.9716 28.6261 30.9828 30.3777C31.9941 32.1292 34.2338 32.7293 35.9854 31.7181L44.6872 26.694C45.5937 26.1706 46.7105 26.1706 47.6169 26.694C47.6169 26.694 65.1488 36.8195 65.2051 36.8542L65.4663 36.6392C66.0222 36.1816 66.1631 35.3878 65.7987 34.7668Z" fill="#E7332B"/>
<path d="M63.5708 39.2879L46.1521 29.2313L37.4502 34.2553C36.4346 34.8417 35.3072 35.1412 34.165 35.1412C33.5924 35.1412 33.0161 35.0659 32.4482 34.9139C30.7475 34.4581 29.3259 33.3674 28.4456 31.8425C27.5652 30.3178 27.3315 28.5413 27.7872 26.8405C28.1634 25.4364 28.9733 24.2236 30.1022 23.3476L26.5106 21.2739C25.7944 20.8605 24.8781 21.1214 24.4872 21.8501L16.1744 37.3483C15.8005 38.0455 16.0477 38.9138 16.7329 39.3093L17.4943 39.7488L18.8308 37.434C19.9395 35.5136 22.0066 34.3206 24.2253 34.3206C25.314 34.3206 26.3894 34.6092 27.3351 35.1553C27.8791 35.4693 28.3644 35.8565 28.7811 36.303C29.4546 36.0571 30.174 35.925 30.9106 35.925C31.9992 35.925 33.0745 36.2136 34.0203 36.7597C35.4604 37.591 36.4905 38.9336 36.9209 40.5399C36.9683 40.7165 37.0063 40.8941 37.0379 41.072C37.6369 41.2104 38.2155 41.4371 38.7523 41.7471C40.1925 42.5784 41.2227 43.921 41.653 45.5273C41.7004 45.7039 41.7384 45.8815 41.77 46.0594C42.3691 46.1978 42.9476 46.4244 43.4844 46.7344C46.4572 48.4509 47.4795 52.2659 45.7633 55.2387L43.9384 58.3994L47.85 60.6578C49.4264 61.568 51.4421 61.0278 52.3523 59.4515C53.2624 57.875 52.7223 55.8593 51.1459 54.9491L53.6831 56.414C55.2595 57.3241 57.2752 56.784 58.1854 55.2076C59.0955 53.6313 58.5554 51.6154 56.979 50.7053L58.6705 51.6818C60.2469 52.592 62.2627 52.0519 63.1728 50.4754C64.0829 48.899 63.5428 46.8832 61.9663 45.9732L60.2749 44.9966C61.8513 45.9067 63.867 45.3666 64.7772 43.7901C65.6873 42.2138 65.1472 40.1981 63.5708 39.2879Z" fill="#E7332B"/>
<path d="M42.0195 49.2716C40.4431 48.3614 38.4274 48.9015 37.5172 50.4779L38.4938 48.7865C39.4039 47.2101 38.8638 45.1944 37.2874 44.2843C35.7111 43.3741 33.6953 43.9142 32.7852 45.4906L33.7618 43.7991C34.6719 42.2227 34.1318 40.207 32.5554 39.2969C30.979 38.3867 28.9633 38.9268 28.0532 40.5032L27.0766 42.1946C27.9867 40.6182 27.4466 38.6025 25.8702 37.6924C24.2938 36.7822 22.2781 37.3224 21.3679 38.8987L17.8279 45.0303C16.9177 46.6066 17.4578 48.6224 19.0342 49.5325C20.6106 50.4427 22.6264 49.9025 23.5365 48.3261C22.6263 49.9024 23.1664 51.9182 24.7428 52.8283C26.3192 53.7385 28.335 53.1983 29.2451 51.6219C28.3349 53.1982 28.875 55.214 30.4515 56.1241C32.0279 57.0343 34.0436 56.4941 34.9537 54.9177C34.0436 56.494 34.5837 58.5098 36.1601 59.4199C37.7365 60.3301 39.7523 59.7899 40.6623 58.2134L43.2258 53.7734C44.1361 52.1974 43.5959 50.1816 42.0195 49.2716Z" fill="#E7332B"/>
</g>
<defs>
<clipPath id="clip0_153_17">
<rect width="50" height="50" fill="white" transform="translate(16 15)"/>
</clipPath>
</defs>
</svg>
