<svg width="42" height="46" viewBox="0 0 42 46" fill="none" xmlns="http://www.w3.org/2000/svg">
<g clip-path="url(#clip0_140_13)">
<path d="M0.423462 0H41.5765V8.33496H0.423462V0Z" fill="#FF9933"/>
<path d="M0.423462 8.33496H41.5765V16.665H0.423462V8.33496Z" fill="white"/>
<path d="M0.423462 16.665H41.5765V25H0.423462V16.665Z" fill="#128807"/>
<path d="M20.9999 15.8333C24.0303 15.8333 26.4869 14.341 26.4869 12.5C26.4869 10.6591 24.0303 9.16669 20.9999 9.16669C17.9695 9.16669 15.5128 10.6591 15.5128 12.5C15.5128 14.341 17.9695 15.8333 20.9999 15.8333Z" fill="#000088"/>
<path d="M20.9997 15.4167C23.6513 15.4167 25.8009 14.1109 25.8009 12.5C25.8009 10.8892 23.6513 9.58337 20.9997 9.58337C18.348 9.58337 16.1985 10.8892 16.1985 12.5C16.1985 14.1109 18.348 15.4167 20.9997 15.4167Z" fill="white"/>
<path d="M20.9998 13.0834C21.5301 13.0834 21.96 12.8222 21.96 12.5C21.96 12.1779 21.5301 11.9167 20.9998 11.9167C20.4695 11.9167 20.0396 12.1779 20.0396 12.5C20.0396 12.8222 20.4695 13.0834 20.9998 13.0834Z" fill="#000088"/>
<path d="M25.7277 13.0305C25.8629 13.0413 25.9869 12.9835 26.0047 12.9014C26.0225 12.8192 25.9274 12.7439 25.7922 12.7331C25.657 12.7223 25.5329 12.7801 25.5151 12.8622C25.4973 12.9444 25.5925 13.0197 25.7277 13.0305Z" fill="#000088"/>
<path d="M20.9999 15.4166L21.1645 13.6666L20.9999 12.8333L20.8353 13.6666L20.9999 15.4166Z" fill="#000088"/>
</g>
<path d="M3.11146 44H1.95946V32.672H3.11146V44ZM6.80221 36.512C6.82355 36.7147 6.83421 36.9173 6.83421 37.12C6.84488 37.312 6.85021 37.5093 6.85021 37.712H6.88221C6.99955 37.5093 7.14888 37.3227 7.33021 37.152C7.51155 36.9813 7.71421 36.8373 7.93821 36.72C8.16221 36.592 8.39688 36.496 8.64221 36.432C8.89821 36.3573 9.14888 36.32 9.39421 36.32C10.3542 36.32 11.0635 36.576 11.5222 37.088C11.9809 37.5893 12.2102 38.3093 12.2102 39.248V44H11.1542V39.856C11.1542 39.024 11.0102 38.3893 10.7222 37.952C10.4342 37.504 9.90088 37.28 9.12221 37.28C9.06888 37.28 8.91955 37.3013 8.67421 37.344C8.42888 37.3867 8.16755 37.504 7.89021 37.696C7.62355 37.888 7.38355 38.176 7.17021 38.56C6.95688 38.944 6.85021 39.4773 6.85021 40.16V44H5.79421V38.16C5.79421 37.9573 5.78355 37.7013 5.76221 37.392C5.75155 37.0827 5.73555 36.7893 5.71421 36.512H6.80221ZM15.3248 40.256C15.3248 40.672 15.3888 41.0613 15.5168 41.424C15.6555 41.7867 15.8475 42.1013 16.0928 42.368C16.3382 42.6347 16.6315 42.848 16.9728 43.008C17.3248 43.1573 17.7195 43.232 18.1568 43.232C18.5835 43.232 18.9782 43.1573 19.3408 43.008C19.7142 42.848 20.0342 42.6347 20.3008 42.368C20.5675 42.1013 20.7755 41.7867 20.9248 41.424C21.0742 41.0613 21.1488 40.672 21.1488 40.256C21.1488 39.84 21.0742 39.4507 20.9248 39.088C20.7755 38.7253 20.5675 38.4107 20.3008 38.144C20.0342 37.8773 19.7142 37.6693 19.3408 37.52C18.9782 37.36 18.5835 37.28 18.1568 37.28C17.7195 37.28 17.3248 37.36 16.9728 37.52C16.6315 37.6693 16.3382 37.8773 16.0928 38.144C15.8475 38.4107 15.6555 38.7253 15.5168 39.088C15.3888 39.4507 15.3248 39.84 15.3248 40.256ZM22.1568 44H21.1008V42.752H21.0688C20.8982 43.008 20.6955 43.2267 20.4608 43.408C20.2262 43.5893 19.9808 43.7387 19.7248 43.856C19.4688 43.9733 19.2022 44.0587 18.9248 44.112C18.6582 44.1653 18.4022 44.192 18.1568 44.192C17.5702 44.192 17.0315 44.096 16.5408 43.904C16.0608 43.7013 15.6448 43.424 15.2928 43.072C14.9408 42.72 14.6635 42.304 14.4608 41.824C14.2688 41.344 14.1728 40.8213 14.1728 40.256C14.1728 39.6907 14.2688 39.168 14.4608 38.688C14.6635 38.208 14.9408 37.792 15.2928 37.44C15.6448 37.088 16.0608 36.816 16.5408 36.624C17.0315 36.4213 17.5702 36.32 18.1568 36.32C18.4022 36.32 18.6582 36.3467 18.9248 36.4C19.2022 36.4533 19.4688 36.5387 19.7248 36.656C19.9808 36.7733 20.2262 36.9227 20.4608 37.104C20.6955 37.2853 20.8982 37.504 21.0688 37.76H21.1008V31.904H22.1568V44ZM26.0021 33.632C26.0021 33.856 25.9221 34.0427 25.7621 34.192C25.6021 34.3307 25.4261 34.4 25.2341 34.4C25.0421 34.4 24.8661 34.3307 24.7061 34.192C24.5461 34.0427 24.4661 33.856 24.4661 33.632C24.4661 33.408 24.5461 33.2267 24.7061 33.088C24.8661 32.9387 25.0421 32.864 25.2341 32.864C25.4261 32.864 25.6021 32.9387 25.7621 33.088C25.9221 33.2267 26.0021 33.408 26.0021 33.632ZM25.7621 44H24.7061V36.512H25.7621V44ZM32.5658 40.272C32.2992 40.272 31.9632 40.288 31.5578 40.32C31.1632 40.3413 30.7792 40.4053 30.4058 40.512C30.0432 40.608 29.7285 40.7627 29.4618 40.976C29.2058 41.1893 29.0778 41.4827 29.0778 41.856C29.0778 42.1013 29.1258 42.3147 29.2218 42.496C29.3285 42.6667 29.4672 42.8107 29.6378 42.928C29.8085 43.0347 29.9952 43.1147 30.1978 43.168C30.4112 43.2107 30.6245 43.232 30.8378 43.232C31.2218 43.232 31.5525 43.168 31.8298 43.04C32.1178 42.912 32.3578 42.7413 32.5498 42.528C32.7418 42.304 32.8805 42.048 32.9658 41.76C33.0618 41.4613 33.1098 41.1467 33.1098 40.816V40.272H32.5658ZM33.1098 39.408V39.216C33.1098 37.9253 32.4698 37.28 31.1898 37.28C30.3152 37.28 29.5525 37.5733 28.9018 38.16L28.2618 37.408C28.9658 36.6827 30.0218 36.32 31.4298 36.32C31.7925 36.32 32.1392 36.3733 32.4698 36.48C32.8112 36.5867 33.1045 36.752 33.3498 36.976C33.5952 37.1893 33.7925 37.4613 33.9418 37.792C34.0912 38.1227 34.1658 38.5173 34.1658 38.976V42.32C34.1658 42.608 34.1765 42.912 34.1978 43.232C34.2298 43.5413 34.2618 43.7973 34.2938 44H33.2698C33.2378 43.8187 33.2112 43.6213 33.1898 43.408C33.1792 43.1947 33.1738 42.9867 33.1738 42.784H33.1418C32.8325 43.2853 32.4645 43.648 32.0378 43.872C31.6218 44.0853 31.1098 44.192 30.5018 44.192C30.1712 44.192 29.8512 44.144 29.5418 44.048C29.2325 43.9627 28.9552 43.8293 28.7098 43.648C28.4752 43.456 28.2832 43.2267 28.1338 42.96C27.9952 42.6827 27.9258 42.3627 27.9258 42C27.9258 41.392 28.0805 40.9173 28.3898 40.576C28.7098 40.224 29.1045 39.9627 29.5738 39.792C30.0538 39.6213 30.5605 39.5147 31.0938 39.472C31.6378 39.4293 32.1338 39.408 32.5818 39.408H33.1098Z" fill="black"/>
<defs>
<clipPath id="clip0_140_13">
<rect width="41.153" height="25" fill="white" transform="translate(0.423462)"/>
</clipPath>
</defs>
</svg>
