<svg width="18" height="19" viewBox="0 0 18 19" fill="none" xmlns="http://www.w3.org/2000/svg">
<path d="M0 1.80756C0 1.09544 0.59175 0.518311 1.32187 0.518311H16.6781C17.4082 0.518311 18 1.09544 18 1.80756V17.2291C18 17.9412 17.4082 18.5183 16.6781 18.5183H1.32187C0.59175 18.5183 0 17.9412 0 17.2291V1.80756ZM5.56087 15.5866V7.45844H2.85975V15.5866H5.56087ZM4.21088 6.34806C5.1525 6.34806 5.73862 5.72481 5.73862 4.94406C5.72175 4.14644 5.15363 3.54006 4.22888 3.54006C3.30413 3.54006 2.7 4.14756 2.7 4.94406C2.7 5.72481 3.28612 6.34806 4.19287 6.34806H4.21088ZM9.73238 15.5866V11.0472C9.73238 10.8042 9.75037 10.5612 9.82238 10.3879C10.017 9.90306 10.4614 9.40019 11.2084 9.40019C12.186 9.40019 12.5764 10.1449 12.5764 11.2384V15.5866H15.2775V10.9246C15.2775 8.42706 13.9455 7.26606 12.168 7.26606C10.7347 7.26606 10.0924 8.05356 9.73238 8.60819V8.63631H9.71438C9.72035 8.62692 9.72635 8.61754 9.73238 8.60819V7.45844H7.03237C7.06612 8.22119 7.03237 15.5866 7.03237 15.5866H9.73238Z" fill="#CECECE"/>
</svg>
