<svg width="137" height="22" viewBox="0 0 137 22" fill="none" xmlns="http://www.w3.org/2000/svg">
<path d="M0 16.9681L9.78185 4.18144H0.155267V1.1446H13.8447V4.18144L3.9852 16.9681H14V20.005H0V16.9681Z" fill="#E7332B"/>
<path d="M28.0084 20.005H25.0583V17.9538H25.0066C24.7133 18.5931 24.2647 19.1525 23.6609 19.632C23.0571 20.0938 22.2376 20.3246 21.2025 20.3246C20.3744 20.3246 19.6671 20.1914 19.0805 19.925C18.5112 19.6409 18.0454 19.268 17.6831 18.8062C17.3208 18.3267 17.062 17.785 16.9068 17.1812C16.7515 16.5774 16.6739 15.947 16.6739 15.2899V7.21828H19.7792V13.6915C19.7792 14.0467 19.7965 14.4463 19.831 14.8903C19.8655 15.3165 19.9517 15.725 20.0897 16.1157C20.245 16.4886 20.4693 16.8083 20.7626 17.0747C21.0731 17.3233 21.5044 17.4476 22.0565 17.4476C22.574 17.4476 23.0053 17.3588 23.3504 17.1812C23.7127 17.0036 24.0059 16.7639 24.2302 16.462C24.4717 16.1601 24.6443 15.8138 24.7478 15.4231C24.8513 15.0324 24.903 14.6239 24.903 14.1977V7.21828H28.0084V20.005Z" fill="#E7332B"/>
<path d="M31.5334 7.21828H34.6388V9.24284H34.6906C35.0356 8.49695 35.5273 7.91977 36.1656 7.5113C36.8039 7.10284 37.5371 6.89861 38.3652 6.89861C38.555 6.89861 38.7361 6.91637 38.9086 6.95189C39.0984 6.98741 39.2882 7.0318 39.478 7.08508V10.1752C39.2192 10.1042 38.9604 10.0509 38.7016 10.0154C38.4601 9.96209 38.2186 9.93545 37.977 9.93545C37.2525 9.93545 36.6659 10.0775 36.2174 10.3617C35.786 10.6281 35.4496 10.9388 35.2081 11.294C34.9838 11.6492 34.8286 12.0044 34.7423 12.3596C34.6733 12.7148 34.6388 12.9812 34.6388 13.1588V20.005H31.5334V7.21828Z" fill="#E7332B"/>
<path d="M41.6432 7.21828H44.7486V20.005H41.6432V7.21828ZM41.2033 2.87613C41.2033 2.36111 41.3844 1.91713 41.7467 1.54419C42.1263 1.15348 42.6007 0.95813 43.17 0.95813C43.7393 0.95813 44.2138 1.1446 44.5933 1.51755C44.9901 1.87273 45.1885 2.32559 45.1885 2.87613C45.1885 3.42667 44.9901 3.88841 44.5933 4.26136C44.2138 4.61654 43.7393 4.79414 43.17 4.79414C42.6007 4.79414 42.1263 4.60766 41.7467 4.23472C41.3844 3.84401 41.2033 3.39115 41.2033 2.87613Z" fill="#E7332B"/>
<path d="M70.8793 4.47727H65.2722V1.49608H79.7422V4.47727H74.1351V20.0108H70.8793V4.47727Z" fill="#161617"/>
<path d="M86.8637 18.2849H86.7862C86.3383 18.9996 85.7699 19.5227 85.0808 19.8539C84.3918 20.1677 83.6338 20.3246 82.807 20.3246C82.2385 20.3246 81.6787 20.2462 81.1274 20.0893C80.5934 19.9324 80.1111 19.697 79.6804 19.3832C79.267 19.0694 78.9311 18.6771 78.6727 18.2064C78.4143 17.7357 78.2851 17.1865 78.2851 16.5589C78.2851 15.879 78.4057 15.3037 78.6469 14.833C78.888 14.3448 79.2067 13.9438 79.6029 13.63C80.0163 13.2988 80.4901 13.0373 81.0241 12.8455C81.5581 12.6537 82.1093 12.5143 82.6778 12.4271C83.2635 12.3225 83.8492 12.2615 84.4349 12.244C85.0205 12.2092 85.5718 12.1917 86.0886 12.1917H86.8637V11.8518C86.8637 11.0673 86.5967 10.4832 86.0627 10.0997C85.5287 9.6987 84.8483 9.49821 84.0214 9.49821C83.3668 9.49821 82.7553 9.62025 82.1868 9.86432C81.6184 10.091 81.1274 10.4048 80.714 10.8057L79.0861 9.15825C79.7752 8.44346 80.5762 7.92916 81.4892 7.61535C82.4194 7.30155 83.3754 7.14464 84.3573 7.14464C85.2359 7.14464 85.9766 7.24925 86.5795 7.45845C87.1824 7.65022 87.682 7.90301 88.0782 8.21682C88.4744 8.53063 88.7759 8.89674 88.9826 9.31515C89.2065 9.71613 89.3615 10.1258 89.4477 10.5442C89.551 10.9627 89.6113 11.3723 89.6285 11.7733C89.6458 12.1569 89.6544 12.4968 89.6544 12.7932V20.0108H86.8637V18.2849ZM86.6829 14.3884H86.0369C85.6062 14.3884 85.1239 14.4058 84.5899 14.4407C84.0559 14.4756 83.5477 14.5627 83.0654 14.7022C82.6003 14.8242 82.2041 15.016 81.8768 15.2775C81.5495 15.5216 81.3858 15.8703 81.3858 16.3236C81.3858 16.6199 81.4461 16.8727 81.5667 17.0819C81.7045 17.2737 81.8768 17.4393 82.0835 17.5788C82.2902 17.7183 82.5228 17.8229 82.7811 17.8926C83.0395 17.9449 83.2979 17.9711 83.5563 17.9711C84.6243 17.9711 85.4081 17.7183 85.9077 17.2127C86.4245 16.6897 86.6829 15.9836 86.6829 15.0945V14.3884Z" fill="#161617"/>
<path d="M93.0422 0.240845H96.1429V20.0108H93.0422V0.240845Z" fill="#161617"/>
<path d="M102.183 14.833C102.287 15.7744 102.648 16.5066 103.268 17.0296C103.889 17.5526 104.638 17.8141 105.516 17.8141C106.292 17.8141 106.938 17.6572 107.454 17.3434C107.988 17.0122 108.454 16.6025 108.85 16.1143L111.072 17.8141C110.348 18.7207 109.539 19.3658 108.643 19.7493C107.747 20.1328 106.808 20.3246 105.827 20.3246C104.896 20.3246 104.018 20.1677 103.191 19.8539C102.364 19.5401 101.649 19.0955 101.046 18.5202C100.443 17.9449 99.961 17.2563 99.5993 16.4543C99.2547 15.6349 99.0825 14.7284 99.0825 13.7346C99.0825 12.7409 99.2547 11.8431 99.5993 11.0411C99.961 10.2217 100.443 9.52436 101.046 8.94904C101.649 8.37373 102.364 7.92916 103.191 7.61535C104.018 7.30155 104.896 7.14464 105.827 7.14464C106.688 7.14464 107.472 7.30155 108.178 7.61535C108.901 7.91173 109.513 8.34758 110.012 8.92289C110.529 9.49821 110.925 10.213 111.201 11.0673C111.494 11.9041 111.64 12.8717 111.64 13.97V14.833H102.183ZM108.54 12.4794C108.522 11.5554 108.238 10.8319 107.687 10.3089C107.136 9.76843 106.369 9.49821 105.387 9.49821C104.457 9.49821 103.716 9.76843 103.165 10.3089C102.631 10.8493 102.304 11.5728 102.183 12.4794H108.54Z" fill="#161617"/>
<path d="M114.54 7.45845H117.486V9.47206H117.537C117.83 8.84444 118.278 8.30399 118.881 7.85071C119.484 7.38 120.302 7.14464 121.336 7.14464C122.163 7.14464 122.86 7.28411 123.429 7.56305C124.014 7.842 124.488 8.20811 124.85 8.66139C125.212 9.11467 125.47 9.63768 125.625 10.2304C125.78 10.8232 125.858 11.4421 125.858 12.0871V20.0108H122.757V13.6562C122.757 13.3075 122.74 12.924 122.705 12.5055C122.671 12.0697 122.576 11.6687 122.421 11.3026C122.283 10.9191 122.059 10.6053 121.749 10.3612C121.439 10.0997 121.017 9.96892 120.483 9.96892C119.966 9.96892 119.527 10.0561 119.165 10.2304C118.821 10.4048 118.528 10.6401 118.287 10.9365C118.063 11.2329 117.899 11.5728 117.796 11.9564C117.692 12.3399 117.641 12.7409 117.641 13.1593V20.0108H114.54V7.45845Z" fill="#161617"/>
<path d="M127.93 10.1258V7.45845H130.488V3.8235H133.589V7.45845H137V10.1258H133.589V15.6175C133.589 16.2451 133.701 16.742 133.925 17.1081C134.166 17.4742 134.631 17.6572 135.32 17.6572C135.596 17.6572 135.898 17.6311 136.225 17.5788C136.552 17.5091 136.81 17.4045 137 17.265V19.9062C136.673 20.0631 136.268 20.1677 135.786 20.22C135.32 20.2897 134.907 20.3246 134.545 20.3246C133.718 20.3246 133.038 20.2287 132.504 20.037C131.987 19.8626 131.574 19.5924 131.264 19.2263C130.971 18.8427 130.764 18.372 130.644 17.8141C130.54 17.2563 130.488 16.6112 130.488 15.879V10.1258H127.93Z" fill="#161617"/>
<path d="M53.7958 14.5863H61.6859V21.7591H53.7958V14.5863Z" fill="#161617"/>
</svg>
