<svg width="137" height="22" viewBox="0 0 137 22" fill="none" xmlns="http://www.w3.org/2000/svg">
<path d="M0 16.7273L9.78185 3.94059H0.155267V0.903758H13.8447V3.94059L3.9852 16.7273H14V19.7641H0V16.7273Z" fill="#E7332B"/>
<path d="M28.0084 19.7641H25.0583V17.7129H25.0066C24.7133 18.3523 24.2647 18.9117 23.6609 19.3912C23.0571 19.8529 22.2376 20.0838 21.2025 20.0838C20.3744 20.0838 19.6671 19.9506 19.0805 19.6842C18.5112 19.4001 18.0454 19.0271 17.6831 18.5654C17.3208 18.0859 17.062 17.5442 16.9068 16.9404C16.7515 16.3366 16.6739 15.7061 16.6739 15.049V6.97743H19.7792V13.4507C19.7792 13.8059 19.7965 14.2055 19.831 14.6494C19.8655 15.0757 19.9517 15.4841 20.0897 15.8748C20.245 16.2478 20.4693 16.5674 20.7626 16.8338C21.0731 17.0825 21.5044 17.2068 22.0565 17.2068C22.574 17.2068 23.0053 17.118 23.3504 16.9404C23.7127 16.7628 24.0059 16.523 24.2302 16.2211C24.4717 15.9192 24.6443 15.5729 24.7478 15.1822C24.8513 14.7915 24.903 14.3831 24.903 13.9568V6.97743H28.0084V19.7641Z" fill="#E7332B"/>
<path d="M31.5334 6.97743H34.6388V9.00199H34.6906C35.0356 8.2561 35.5273 7.67892 36.1656 7.27046C36.8039 6.862 37.5371 6.65776 38.3652 6.65776C38.555 6.65776 38.7361 6.67552 38.9086 6.71104C39.0984 6.74656 39.2882 6.79096 39.478 6.84424V9.93435C39.2192 9.86331 38.9604 9.81004 38.7016 9.77452C38.4601 9.72124 38.2186 9.6946 37.977 9.6946C37.2525 9.6946 36.6659 9.83668 36.2174 10.1208C35.786 10.3872 35.4496 10.698 35.2081 11.0532C34.9838 11.4084 34.8286 11.7636 34.7423 12.1187C34.6733 12.4739 34.6388 12.7403 34.6388 12.9179V19.7641H31.5334V6.97743Z" fill="#E7332B"/>
<path d="M41.6432 6.97743H44.7486V19.7641H41.6432V6.97743ZM41.2033 2.63529C41.2033 2.12027 41.3844 1.67629 41.7467 1.30334C42.1263 0.912637 42.6007 0.717285 43.17 0.717285C43.7393 0.717285 44.2138 0.903758 44.5933 1.2767C44.9901 1.63189 45.1885 2.08475 45.1885 2.63529C45.1885 3.18583 44.9901 3.64757 44.5933 4.02051C44.2138 4.3757 43.7393 4.55329 43.17 4.55329C42.6007 4.55329 42.1263 4.36682 41.7467 3.99387C41.3844 3.60317 41.2033 3.15031 41.2033 2.63529Z" fill="#E7332B"/>
<path d="M70.8793 4.23642H65.2722V1.25524H79.7422V4.23642H74.1351V19.77H70.8793V4.23642Z" fill="white"/>
<path d="M86.8637 18.044H86.7862C86.3383 18.7588 85.7699 19.2818 85.0808 19.6131C84.3918 19.9269 83.6338 20.0838 82.807 20.0838C82.2385 20.0838 81.6787 20.0053 81.1274 19.8484C80.5934 19.6915 80.1111 19.4562 79.6804 19.1423C79.267 18.8285 78.9311 18.4363 78.6727 17.9656C78.4143 17.4948 78.2851 16.9457 78.2851 16.3181C78.2851 15.6381 78.4057 15.0628 78.6469 14.5921C78.888 14.104 79.2067 13.703 79.6029 13.3892C80.0163 13.0579 80.4901 12.7964 81.0241 12.6047C81.5581 12.4129 82.1093 12.2734 82.6778 12.1862C83.2635 12.0816 83.8492 12.0206 84.4349 12.0032C85.0205 11.9683 85.5718 11.9509 86.0886 11.9509H86.8637V11.6109C86.8637 10.8264 86.5967 10.2424 86.0627 9.85883C85.5287 9.45785 84.8483 9.25736 84.0214 9.25736C83.3668 9.25736 82.7553 9.3794 82.1868 9.62348C81.6184 9.85011 81.1274 10.1639 80.714 10.5649L79.0861 8.9174C79.7752 8.20262 80.5762 7.68832 81.4892 7.37451C82.4194 7.0607 83.3754 6.9038 84.3573 6.9038C85.2359 6.9038 85.9766 7.0084 86.5795 7.21761C87.1824 7.40938 87.682 7.66217 88.0782 7.97598C88.4744 8.28979 88.7759 8.6559 88.9826 9.07431C89.2065 9.47529 89.3615 9.88498 89.4477 10.3034C89.551 10.7218 89.6113 11.1315 89.6285 11.5325C89.6458 11.916 89.6544 12.256 89.6544 12.5524V19.77H86.8637V18.044ZM86.6829 14.1476H86.0369C85.6062 14.1476 85.1239 14.165 84.5899 14.1999C84.0559 14.2347 83.5477 14.3219 83.0654 14.4614C82.6003 14.5834 82.2041 14.7752 81.8768 15.0367C81.5495 15.2808 81.3858 15.6294 81.3858 16.0827C81.3858 16.3791 81.4461 16.6319 81.5667 16.8411C81.7045 17.0329 81.8768 17.1985 82.0835 17.3379C82.2902 17.4774 82.5228 17.582 82.7811 17.6518C83.0395 17.7041 83.2979 17.7302 83.5563 17.7302C84.6243 17.7302 85.4081 17.4774 85.9077 16.9718C86.4245 16.4488 86.6829 15.7427 86.6829 14.8536V14.1476Z" fill="white"/>
<path d="M93.0422 0H96.1429V19.77H93.0422V0Z" fill="white"/>
<path d="M102.183 14.5921C102.287 15.5335 102.648 16.2658 103.268 16.7888C103.889 17.3118 104.638 17.5733 105.516 17.5733C106.292 17.5733 106.938 17.4164 107.454 17.1026C107.988 16.7713 108.454 16.3617 108.85 15.8735L111.072 17.5733C110.348 18.4799 109.539 19.1249 108.643 19.5085C107.747 19.892 106.808 20.0838 105.827 20.0838C104.896 20.0838 104.018 19.9269 103.191 19.6131C102.364 19.2993 101.649 18.8547 101.046 18.2794C100.443 17.7041 99.961 17.0154 99.5993 16.2135C99.2547 15.3941 99.0825 14.4875 99.0825 13.4938C99.0825 12.5001 99.2547 11.6022 99.5993 10.8003C99.961 9.98087 100.443 9.28351 101.046 8.7082C101.649 8.13288 102.364 7.68832 103.191 7.37451C104.018 7.0607 104.896 6.9038 105.827 6.9038C106.688 6.9038 107.472 7.0607 108.178 7.37451C108.901 7.67089 109.513 8.10673 110.012 8.68205C110.529 9.25736 110.925 9.97215 111.201 10.8264C111.494 11.6632 111.64 12.6308 111.64 13.7291V14.5921H102.183ZM108.54 12.2385C108.522 11.3146 108.238 10.5911 107.687 10.068C107.136 9.52759 106.369 9.25736 105.387 9.25736C104.457 9.25736 103.716 9.52759 103.165 10.068C102.631 10.6085 102.304 11.332 102.183 12.2385H108.54Z" fill="white"/>
<path d="M114.54 7.21761H117.486V9.23121H117.537C117.83 8.6036 118.278 8.06315 118.881 7.60987C119.484 7.13915 120.302 6.9038 121.336 6.9038C122.163 6.9038 122.86 7.04327 123.429 7.32221C124.014 7.60115 124.488 7.96726 124.85 8.42054C125.212 8.87382 125.47 9.39684 125.625 9.98959C125.78 10.5823 125.858 11.2012 125.858 11.8463V19.77H122.757V13.4153C122.757 13.0667 122.74 12.6831 122.705 12.2647C122.671 11.8289 122.576 11.4279 122.421 11.0618C122.283 10.6782 122.059 10.3644 121.749 10.1203C121.439 9.85883 121.017 9.72808 120.483 9.72808C119.966 9.72808 119.527 9.81525 119.165 9.98959C118.821 10.1639 118.528 10.3993 118.287 10.6957C118.063 10.992 117.899 11.332 117.796 11.7155C117.692 12.0991 117.641 12.5001 117.641 12.9185V19.77H114.54V7.21761Z" fill="white"/>
<path d="M127.93 9.88498V7.21761H130.488V3.58265H133.589V7.21761H137V9.88498H133.589V15.3766C133.589 16.0043 133.701 16.5011 133.925 16.8672C134.166 17.2333 134.631 17.4164 135.32 17.4164C135.596 17.4164 135.898 17.3902 136.225 17.3379C136.552 17.2682 136.81 17.1636 137 17.0241V19.6654C136.673 19.8223 136.268 19.9269 135.786 19.9792C135.32 20.0489 134.907 20.0838 134.545 20.0838C133.718 20.0838 133.038 19.9879 132.504 19.7961C131.987 19.6218 131.574 19.3516 131.264 18.9854C130.971 18.6019 130.764 18.1312 130.644 17.5733C130.54 17.0154 130.488 16.3704 130.488 15.6381V9.88498H127.93Z" fill="white"/>
<path d="M53.7958 14.3455H61.6859V21.5182H53.7958V14.3455Z" fill="white"/>
</svg>
