<svg width="81" height="81" viewBox="0 0 81 81" fill="none" xmlns="http://www.w3.org/2000/svg">
<circle cx="40.5" cy="40.5" r="40.5" fill="#FCE5E4"/>
<path d="M27.8165 25.7656C27.9788 25.7656 28.1391 25.7572 28.2974 25.7417C27.2337 24.4068 26.5958 22.7184 26.5958 20.8828C26.5958 19.0473 27.2337 17.3588 28.2974 16.0239C28.1391 16.0084 27.9788 16 27.8165 16C25.1241 16 22.9337 18.1904 22.9337 20.8828C22.9337 23.5752 25.1241 25.7656 27.8165 25.7656Z" fill="#E7332B"/>
<path d="M29.5255 20.8828C29.5255 23.5752 31.7159 25.7656 34.4083 25.7656C34.5706 25.7656 34.7309 25.7572 34.8892 25.7417C33.8255 24.4068 33.1876 22.7184 33.1876 20.8828C33.1876 19.0473 33.8255 17.3588 34.8892 16.0239C34.7309 16.0084 34.5706 16 34.4083 16C31.7159 16 29.5255 18.1904 29.5255 20.8828Z" fill="#E7332B"/>
<path d="M36.1173 20.8828C36.1173 23.5752 38.3077 25.7656 41.0001 25.7656C41.1623 25.7656 41.3227 25.7572 41.4809 25.7417C40.4172 24.4068 39.7793 22.7184 39.7793 20.8828C39.7793 19.0473 40.4172 17.3588 41.4809 16.0239C41.3227 16.0084 41.1623 16 41.0001 16C38.3077 16 36.1173 18.1904 36.1173 20.8828Z" fill="#E7332B"/>
<path d="M41 28.6953C38.173 28.6953 35.873 30.9952 35.873 33.8223V44.0273H39.5352V33.8223C39.5352 31.8763 40.2288 30.0893 41.3816 28.6953H41Z" fill="#E7332B"/>
<path d="M26.3516 61.6055H22.6895V66H26.3516V61.6055Z" fill="#E7332B"/>
<path d="M46.127 61.6055H42.4648V66H46.127V61.6055Z" fill="#E7332B"/>
<path d="M19.7598 46.957H16.0977V58.6758H19.7598V46.957Z" fill="#E7332B"/>
<path d="M39.5352 61.6055H35.873V66H39.5352V61.6055Z" fill="#E7332B"/>
<path d="M60.7754 28.6953H55.6484V38.9492H52.7188V28.6953H47.5918C44.7648 28.6953 42.4648 30.9952 42.4648 33.8223V44.0273H46.127V33.8223H49.0566V66H52.7188V46.9082H55.6484V66H59.3105V33.8223H62.2402V46.957C62.2402 47.9667 63.0616 48.7881 64.0713 48.7881C65.081 48.7881 65.9023 47.9667 65.9023 46.957V33.8223C65.9023 30.9952 63.6023 28.6953 60.7754 28.6953Z" fill="#E7332B"/>
<path d="M16.0977 44.0273H19.7598V33.8223C19.7598 31.8763 20.4534 30.0893 21.6063 28.6953H21.2246C18.3977 28.6953 16.0977 30.9952 16.0977 33.8223V44.0273Z" fill="#E7332B"/>
<path d="M39.5352 46.957H35.873V58.6758H39.5352V46.957Z" fill="#E7332B"/>
<path d="M46.127 46.957H42.4648V58.6758H46.127V46.957Z" fill="#E7332B"/>
<path d="M32.9434 44.0273V33.8223C32.9434 31.8763 33.637 30.0893 34.7898 28.6953H34.4082C31.5813 28.6953 29.2812 30.9952 29.2812 33.8223V44.0273H32.9434Z" fill="#E7332B"/>
<path d="M32.9434 61.6055H29.2812V66H32.9434V61.6055Z" fill="#E7332B"/>
<path d="M32.9434 46.957H29.2812V58.6758H32.9434V46.957Z" fill="#E7332B"/>
<path d="M26.3516 46.957H22.6895V58.6758H26.3516V46.957Z" fill="#E7332B"/>
<path d="M26.3516 33.8223C26.3516 31.8763 27.0452 30.0893 28.198 28.6953H27.8164C24.9895 28.6953 22.6895 30.9952 22.6895 33.8223V44.0273H26.3516V33.8223Z" fill="#E7332B"/>
<path d="M42.709 20.8828C42.709 23.5752 44.8994 25.7656 47.5918 25.7656C47.7541 25.7656 47.9144 25.7572 48.0727 25.7417C47.009 24.4068 46.3711 22.7184 46.3711 20.8828C46.3711 19.0473 47.009 17.3588 48.0727 16.0239C47.9144 16.0084 47.7541 16 47.5918 16C44.8994 16 42.709 18.1904 42.709 20.8828Z" fill="#E7332B"/>
<path d="M49.3008 20.8828C49.3008 23.5752 51.4912 25.7656 54.1836 25.7656C56.876 25.7656 59.0664 23.5752 59.0664 20.8828C59.0664 18.1904 56.876 16 54.1836 16C51.4912 16 49.3008 18.1904 49.3008 20.8828Z" fill="#E7332B"/>
</svg>
