<svg width="81" height="81" viewBox="0 0 81 81" fill="none" xmlns="http://www.w3.org/2000/svg">
<circle cx="40.5" cy="40.5" r="40.5" fill="#FCE5E4"/>
<path d="M41 33.6758C37.7685 33.6758 35.1406 36.3036 35.1406 39.5352C35.1406 42.7667 37.7685 45.3945 41 45.3945C44.2315 45.3945 46.8594 42.7667 46.8594 39.5352C46.8594 36.3036 44.2315 33.6758 41 33.6758Z" fill="#E7332B"/>
<path d="M64.7755 36.6255L60.8841 35.9932C60.3963 34.0505 59.6295 32.2052 58.5981 30.4843L60.8354 27.35C61.2518 26.7678 61.1859 25.9695 60.6795 25.4632L56.5367 21.3204C56.0274 20.8126 55.2307 20.7453 54.6499 21.1645L51.5156 23.4018C49.7947 22.3703 47.9493 21.6036 46.0067 21.1158L45.3744 17.2244C45.2572 16.5179 44.6464 16 43.9297 16H38.0703C37.3536 16 36.7428 16.5179 36.6255 17.2245L35.9932 21.1159C34.0505 21.6037 32.2052 22.3705 30.4843 23.4019L27.35 21.1646C26.7678 20.7454 25.9682 20.8126 25.4632 21.3205L21.3204 25.4632C20.814 25.9696 20.7482 26.7678 21.1645 27.35L23.4018 30.4843C22.3703 32.2052 21.6036 34.0506 21.1158 35.9932L17.2244 36.6255C16.5179 36.7428 16 37.3536 16 38.0703V43.9297C16 44.6464 16.5179 45.2572 17.2245 45.3745L21.1159 46.0068C21.6037 47.9495 22.3705 49.7948 23.4019 51.5157L21.1646 54.65C20.7482 55.2322 20.8141 56.0305 21.3205 56.5368L25.4633 60.6796C25.9683 61.1846 26.7679 61.2489 27.3501 60.8355L30.4844 58.5982C32.2053 59.6297 34.0507 60.3964 35.9933 60.8842L36.6256 64.7756C36.7428 65.4821 37.3536 66 38.0703 66H43.9297C44.6464 66 45.2572 65.4821 45.3745 64.7755L46.0068 60.8841C47.9495 60.3963 49.7948 59.6295 51.5157 58.5981L54.65 60.8354C55.2308 61.2488 56.0275 61.1845 56.5368 60.6795L60.6796 56.5367C61.186 56.0303 61.2518 55.2321 60.8355 54.6499L58.5982 51.5156C59.6297 49.7947 60.3964 47.9493 60.8842 46.0067L64.7756 45.3744C65.4821 45.2572 66 44.6464 66 43.9297V38.0703C66 37.3536 65.4821 36.7428 64.7755 36.6255ZM41 57.1133C32.1151 57.1133 24.8867 49.8849 24.8867 41C24.8867 32.1151 32.1151 24.8867 41 24.8867C49.8849 24.8867 57.1133 32.1151 57.1133 41C57.1133 49.8849 49.8849 57.1133 41 57.1133Z" fill="#E7332B"/>
<path d="M47.7669 45.0754C46.1539 47.0417 43.7363 48.3243 41.0003 48.3243C38.2642 48.3243 35.8467 47.0417 34.2336 45.0754C32.8294 46.32 31.8051 47.9515 31.24 49.7822C33.655 52.4636 37.1159 54.1836 41.0003 54.1836C44.8847 54.1836 48.3456 52.4636 50.7604 49.7822C50.1954 47.9515 49.1712 46.32 47.7669 45.0754Z" fill="#E7332B"/>
</svg>
