<svg width="54" height="56" viewBox="0 0 54 56" fill="none" xmlns="http://www.w3.org/2000/svg">
<g clip-path="url(#clip0_136_16)">
<path fill-rule="evenodd" clip-rule="evenodd" d="M9.9375 0H44.0625V26H9.9375V0Z" fill="white"/>
<path fill-rule="evenodd" clip-rule="evenodd" d="M32.6853 0H44.0625V26H32.6853V0ZM9.9375 0H21.3147V26H9.9375V0Z" fill="#008753"/>
</g>
<path d="M10.228 48.272H10.26V38.672H11.412V50H9.972L3.22 40.304H3.188V50H2.036V38.672H3.476L10.228 48.272ZM15.6411 39.632C15.6411 39.856 15.5611 40.0427 15.4011 40.192C15.2411 40.3307 15.0651 40.4 14.8731 40.4C14.6811 40.4 14.5051 40.3307 14.3451 40.192C14.1851 40.0427 14.1051 39.856 14.1051 39.632C14.1051 39.408 14.1851 39.2267 14.3451 39.088C14.5051 38.9387 14.6811 38.864 14.8731 38.864C15.0651 38.864 15.2411 38.9387 15.4011 39.088C15.5611 39.2267 15.6411 39.408 15.6411 39.632ZM15.4011 50H14.3451V42.512H15.4011V50ZM18.7169 46.16C18.7169 46.5547 18.7862 46.928 18.9249 47.28C19.0742 47.6213 19.2715 47.9253 19.5169 48.192C19.7729 48.448 20.0662 48.656 20.3969 48.816C20.7382 48.9653 21.1062 49.04 21.5009 49.04C21.8849 49.04 22.2475 48.9707 22.5889 48.832C22.9409 48.6933 23.2502 48.5013 23.5169 48.256C23.7835 48 23.9862 47.696 24.1249 47.344C24.2742 46.992 24.3435 46.5973 24.3329 46.16C24.3329 45.7653 24.2689 45.3973 24.1409 45.056C24.0129 44.704 23.8262 44.4 23.5809 44.144C23.3355 43.8773 23.0369 43.6693 22.6849 43.52C22.3329 43.36 21.9382 43.28 21.5009 43.28C21.1062 43.28 20.7382 43.36 20.3969 43.52C20.0662 43.6693 19.7729 43.8773 19.5169 44.144C19.2715 44.4 19.0742 44.704 18.9249 45.056C18.7862 45.3973 18.7169 45.7653 18.7169 46.16ZM18.5249 51.504C18.8342 51.92 19.2342 52.2507 19.7249 52.496C20.2262 52.752 20.7809 52.88 21.3889 52.88C21.9222 52.88 22.3755 52.8 22.7489 52.64C23.1222 52.4907 23.4209 52.2827 23.6449 52.016C23.8795 51.7493 24.0449 51.4347 24.1409 51.072C24.2475 50.72 24.3009 50.3413 24.3009 49.936V48.592H24.2689C23.9275 49.104 23.5115 49.4667 23.0209 49.68C22.5302 49.8933 22.0129 50 21.4689 50C20.9249 50 20.4129 49.904 19.9329 49.712C19.4635 49.52 19.0529 49.2587 18.7009 48.928C18.3489 48.5867 18.0715 48.1813 17.8689 47.712C17.6662 47.2427 17.5649 46.736 17.5649 46.192C17.5649 45.648 17.6609 45.1413 17.8529 44.672C18.0449 44.2027 18.3062 43.792 18.6369 43.44C18.9782 43.088 19.3782 42.816 19.8369 42.624C20.3062 42.4213 20.8182 42.32 21.3729 42.32C21.5969 42.32 21.8315 42.3413 22.0769 42.384C22.3329 42.4267 22.5835 42.5013 22.8289 42.608C23.0849 42.7147 23.3355 42.864 23.5809 43.056C23.8262 43.2373 24.0555 43.472 24.2689 43.76H24.3009V42.512H25.3569V49.936C25.3569 50.3413 25.3035 50.7733 25.1969 51.232C25.1009 51.6907 24.9035 52.112 24.6049 52.496C24.3169 52.88 23.9115 53.2 23.3889 53.456C22.8662 53.712 22.1835 53.84 21.3409 53.84C20.5942 53.84 19.9275 53.7173 19.3409 53.472C18.7542 53.2267 18.2209 52.848 17.7409 52.336L18.5249 51.504ZM33.5541 45.68C33.5541 44.9653 33.3408 44.3893 32.9141 43.952C32.4875 43.504 31.8901 43.28 31.1221 43.28C30.7808 43.28 30.4501 43.3493 30.1301 43.488C29.8101 43.616 29.5275 43.792 29.2821 44.016C29.0475 44.24 28.8555 44.496 28.7061 44.784C28.5675 45.072 28.4981 45.3707 28.4981 45.68H33.5541ZM28.4661 46.544C28.4981 46.9173 28.5888 47.2693 28.7381 47.6C28.8875 47.9307 29.0848 48.2187 29.3301 48.464C29.5755 48.6987 29.8581 48.8853 30.1781 49.024C30.4981 49.1627 30.8448 49.232 31.2181 49.232C31.7835 49.232 32.2688 49.104 32.6741 48.848C33.0901 48.5813 33.4048 48.2773 33.6181 47.936L34.4341 48.608C33.9861 49.1733 33.4901 49.5787 32.9461 49.824C32.4128 50.0693 31.8368 50.192 31.2181 50.192C30.6635 50.192 30.1461 50.096 29.6661 49.904C29.1968 49.7013 28.7915 49.424 28.4501 49.072C28.1088 48.72 27.8368 48.304 27.6341 47.824C27.4421 47.344 27.3461 46.8213 27.3461 46.256C27.3461 45.6907 27.4421 45.168 27.6341 44.688C27.8261 44.208 28.0928 43.792 28.4341 43.44C28.7755 43.088 29.1755 42.816 29.6341 42.624C30.0928 42.4213 30.5888 42.32 31.1221 42.32C31.6875 42.32 32.1941 42.4213 32.6421 42.624C33.0901 42.8267 33.4635 43.0987 33.7621 43.44C34.0715 43.7707 34.3061 44.1653 34.4661 44.624C34.6261 45.072 34.7061 45.552 34.7061 46.064V46.544H28.4661ZM36.7328 44.848C36.7328 44.5173 36.7221 44.1813 36.7008 43.84C36.6901 43.4987 36.6794 43.056 36.6688 42.512H37.7088V43.904H37.7408C37.8154 43.7013 37.9221 43.5093 38.0608 43.328C38.1994 43.136 38.3648 42.9653 38.5568 42.816C38.7594 42.6667 38.9888 42.5493 39.2448 42.464C39.5114 42.368 39.8101 42.32 40.1408 42.32C40.4394 42.32 40.7008 42.352 40.9248 42.416L40.7168 43.456C40.5781 43.4027 40.3754 43.376 40.1088 43.376C39.7034 43.376 39.3568 43.456 39.0688 43.616C38.7808 43.7653 38.5408 43.9627 38.3488 44.208C38.1568 44.4427 38.0128 44.6987 37.9168 44.976C37.8314 45.2533 37.7888 45.52 37.7888 45.776V50H36.7328V44.848ZM43.4693 39.632C43.4693 39.856 43.3893 40.0427 43.2293 40.192C43.0693 40.3307 42.8933 40.4 42.7013 40.4C42.5093 40.4 42.3333 40.3307 42.1733 40.192C42.0133 40.0427 41.9333 39.856 41.9333 39.632C41.9333 39.408 42.0133 39.2267 42.1733 39.088C42.3333 38.9387 42.5093 38.864 42.7013 38.864C42.8933 38.864 43.0693 38.9387 43.2293 39.088C43.3893 39.2267 43.4693 39.408 43.4693 39.632ZM43.2293 50H42.1733V42.512H43.2293V50ZM50.033 46.272C49.7663 46.272 49.4303 46.288 49.025 46.32C48.6303 46.3413 48.2463 46.4053 47.873 46.512C47.5103 46.608 47.1957 46.7627 46.929 46.976C46.673 47.1893 46.545 47.4827 46.545 47.856C46.545 48.1013 46.593 48.3147 46.689 48.496C46.7957 48.6667 46.9343 48.8107 47.105 48.928C47.2757 49.0347 47.4623 49.1147 47.665 49.168C47.8783 49.2107 48.0917 49.232 48.305 49.232C48.689 49.232 49.0197 49.168 49.297 49.04C49.585 48.912 49.825 48.7413 50.017 48.528C50.209 48.304 50.3477 48.048 50.433 47.76C50.529 47.4613 50.577 47.1467 50.577 46.816V46.272H50.033ZM50.577 45.408V45.216C50.577 43.9253 49.937 43.28 48.657 43.28C47.7823 43.28 47.0197 43.5733 46.369 44.16L45.729 43.408C46.433 42.6827 47.489 42.32 48.897 42.32C49.2597 42.32 49.6063 42.3733 49.937 42.48C50.2783 42.5867 50.5717 42.752 50.817 42.976C51.0623 43.1893 51.2597 43.4613 51.409 43.792C51.5583 44.1227 51.633 44.5173 51.633 44.976V48.32C51.633 48.608 51.6437 48.912 51.665 49.232C51.697 49.5413 51.729 49.7973 51.761 50H50.737C50.705 49.8187 50.6783 49.6213 50.657 49.408C50.6463 49.1947 50.641 48.9867 50.641 48.784H50.609C50.2997 49.2853 49.9317 49.648 49.505 49.872C49.089 50.0853 48.577 50.192 47.969 50.192C47.6383 50.192 47.3183 50.144 47.009 50.048C46.6997 49.9627 46.4223 49.8293 46.177 49.648C45.9423 49.456 45.7503 49.2267 45.601 48.96C45.4623 48.6827 45.393 48.3627 45.393 48C45.393 47.392 45.5477 46.9173 45.857 46.576C46.177 46.224 46.5717 45.9627 47.041 45.792C47.521 45.6213 48.0277 45.5147 48.561 45.472C49.105 45.4293 49.601 45.408 50.049 45.408H50.577Z" fill="black"/>
<defs>
<clipPath id="clip0_136_16">
<rect width="34.125" height="26" fill="white" transform="translate(9.9375)"/>
</clipPath>
</defs>
</svg>
