<svg width="81" height="81" viewBox="0 0 81 81" fill="none" xmlns="http://www.w3.org/2000/svg">
<circle cx="40.5" cy="40.5" r="40.5" fill="#FCE5E4"/>
<g clip-path="url(#clip0_153_14)">
<path d="M41.0001 27.3636C44.1381 27.3636 46.6819 24.8197 46.6819 21.6818C46.6819 18.5438 44.1381 16 41.0001 16C37.8621 16 35.3183 18.5438 35.3183 21.6818C35.3183 24.8197 37.8621 27.3636 41.0001 27.3636Z" fill="#E7332B"/>
<path d="M33.2075 38.7272H48.7926C50.1353 38.7272 51.2273 37.5486 51.2273 36.0993V35.3714C51.2273 33.4726 50.2874 31.7382 48.7726 30.8448C46.9582 29.7749 44.1373 28.4999 41 28.4999C37.8628 28.4999 35.0419 29.775 33.2275 30.8448C31.7127 31.738 30.7728 33.4726 30.7728 35.3714V36.0993C30.7728 37.5487 31.8647 38.7272 33.2075 38.7272Z" fill="#E7332B"/>
<path d="M26.2273 54.6363C29.3652 54.6363 31.909 52.0925 31.909 48.9546C31.909 45.8166 29.3652 43.2728 26.2273 43.2728C23.0893 43.2728 20.5455 45.8166 20.5455 48.9546C20.5455 52.0925 23.0893 54.6363 26.2273 54.6363Z" fill="#E7332B"/>
<path d="M33.9998 58.1176C32.1854 57.0478 29.3645 55.7728 26.2273 55.7728C23.0901 55.7728 20.2691 57.0479 18.4548 58.1176C16.94 59.0109 16 60.7454 16 62.6442V63.3721C16 64.8214 17.092 66 18.4347 66H34.0198C35.3626 66 36.4546 64.8214 36.4546 63.3721V62.6442C36.4546 60.7454 35.5146 59.0109 33.9998 58.1176Z" fill="#E7332B"/>
<path d="M55.7727 54.6363C58.9107 54.6363 61.4545 52.0925 61.4545 48.9546C61.4545 45.8166 58.9107 43.2728 55.7727 43.2728C52.6348 43.2728 50.0909 45.8166 50.0909 48.9546C50.0909 52.0925 52.6348 54.6363 55.7727 54.6363Z" fill="#E7332B"/>
<path d="M63.5454 58.1176C61.731 57.0478 58.9101 55.7728 55.7729 55.7728C52.6357 55.7728 49.8147 57.0479 48.0004 58.1176C46.4855 59.0109 45.5456 60.7455 45.5456 62.6443V63.3722C45.5456 64.8215 46.6376 66.0001 47.9803 66.0001H63.5654C64.9082 66.0001 66.0002 64.8215 66.0002 63.3722V62.6443C66.0001 60.7454 65.0601 59.0109 63.5454 58.1176Z" fill="#E7332B"/>
<path d="M46.6807 54.6364C47.0147 54.6364 47.3443 54.4899 47.5696 54.2103C47.9613 53.7198 47.8814 53.0051 47.392 52.6123L42.1363 48.4078V42.1365C42.1363 41.5083 41.6281 41.0001 40.9999 41.0001C40.3718 41.0001 39.8635 41.5082 39.8635 42.1364V48.4086L34.6079 52.6122C34.1185 53.0051 34.0386 53.7197 34.4303 54.2102C34.6556 54.4898 34.9851 54.6363 35.3192 54.6363C35.5678 54.6363 35.8187 54.5554 36.0283 54.3878L40.9999 50.4105L45.9715 54.3878C46.1812 54.5554 46.432 54.6364 46.6807 54.6364Z" fill="#E7332B"/>
</g>
<defs>
<clipPath id="clip0_153_14">
<rect width="50" height="50" fill="white" transform="translate(16 16)"/>
</clipPath>
</defs>
</svg>
