<svg width="81" height="81" viewBox="0 0 81 81" fill="none" xmlns="http://www.w3.org/2000/svg">
<circle cx="40.5" cy="40.5" r="40.5" fill="#FCE5E4"/>
<path d="M54.0387 24.5373C54.0387 23.3643 53.5809 22.26 52.7512 21.4303L48.6084 17.2875C47.7902 16.4692 46.6288 16 45.4729 16H45.2212V24.7891H54.0388L54.0387 24.5373Z" fill="#E7332B"/>
<path d="M42.7517 46.2282C43.032 45.3771 43.5213 44.5846 44.1593 43.9423L54.0774 34.0641V27.7188H43.7845C42.9748 27.7188 42.3672 27.0636 42.3672 26.2539V16H20.3945C17.9713 16 16 17.9713 16 20.3945V61.6055C16 64.0287 17.9713 66 20.3945 66H49.6438C52.0671 66 54.0774 64.0287 54.0774 61.6055V50.6728L52.4677 52.2435C51.8154 52.89 51.0516 53.3606 50.1903 53.6482L45.5326 55.2032L44.823 55.2419C43.65 55.2419 42.5399 54.6711 41.8505 53.7155C41.1667 52.7643 40.9808 51.5312 41.3526 50.4168L42.7517 46.2282ZM23.3242 42.3672H37.9251C38.7348 42.3672 39.3899 43.0224 39.3899 43.832C39.3899 44.6417 38.7348 45.2969 37.9251 45.2969H23.3242C22.5146 45.2969 21.8594 44.6417 21.8594 43.832C21.8594 43.0224 22.5146 42.3672 23.3242 42.3672ZM21.8594 37.9727C21.8594 37.163 22.5146 36.5078 23.3242 36.5078H37.9251C38.7348 36.5078 39.3899 37.163 39.3899 37.9727C39.3899 38.7823 38.7348 39.4375 37.9251 39.4375H23.3242C22.5146 39.4375 21.8594 38.7823 21.8594 37.9727ZM21.8594 49.6914C21.8594 48.8817 22.5146 48.2266 23.3242 48.2266H37.9251C38.7348 48.2266 39.3899 48.8817 39.3899 49.6914C39.3899 50.5011 38.7348 51.1562 37.9251 51.1562H23.3242C22.5146 51.1562 21.8594 50.5011 21.8594 49.6914ZM43.7845 57.0156C44.5941 57.0156 45.2493 57.6708 45.2493 58.4805C45.2493 59.2901 44.5942 59.9453 43.7845 59.9453H34.9954C34.1857 59.9453 33.5306 59.2901 33.5306 58.4805C33.5306 57.6708 34.1857 57.0156 34.9954 57.0156H43.7845ZM23.3242 33.5781C22.5146 33.5781 21.8594 32.9229 21.8594 32.1133C21.8594 31.3036 22.5146 30.6484 23.3242 30.6484H43.7845C44.5941 30.6484 45.2493 31.3036 45.2493 32.1133C45.2493 32.9229 44.5941 33.5781 43.7845 33.5781H23.3242Z" fill="#E7332B"/>
<path d="M45.405 47.5241L44.1306 51.3475C43.9396 51.9202 44.4846 52.465 45.0574 52.2737L48.8785 50.9976L45.405 47.5241Z" fill="#E7332B"/>
<path d="M56.7819 35.4634L47.1345 45.1108L51.2952 49.2714C53.4756 47.0906 57.7183 42.8473 60.942 39.6236L56.7819 35.4634Z" fill="#E7332B"/>
<path d="M65.1388 31.2621C64.6239 30.7443 63.8657 30.4482 63.0617 30.4482C62.2577 30.4482 61.4996 30.7443 60.9817 31.2636L58.8531 33.3922L63.013 37.5522C64.1784 36.3868 64.9838 35.5813 65.1419 35.4234C66.2861 34.2774 66.286 32.4108 65.1388 31.2621Z" fill="#E7332B"/>
<path d="M65.1422 35.4234C65.1423 35.4234 65.1423 35.4233 65.1424 35.4232C65.1461 35.4195 65.1478 35.4178 65.1508 35.4148C65.1478 35.4179 65.1461 35.4196 65.1422 35.4234Z" fill="#E7332B"/>
<path d="M65.1509 35.4148C65.1556 35.4102 65.1611 35.4047 65.1639 35.4019C65.161 35.4048 65.1556 35.4102 65.1509 35.4148Z" fill="#E7332B"/>
<path d="M65.1641 35.4018C65.1735 35.3924 65.1737 35.3922 65.1641 35.4018V35.4018Z" fill="#E7332B"/>
</svg>
