<svg width="21" height="15" viewBox="0 0 21 15" fill="none" xmlns="http://www.w3.org/2000/svg">
<path d="M20.593 2.72132C20.4791 2.29872 20.2565 1.91332 19.9473 1.60349C19.6382 1.29365 19.2533 1.07018 18.831 0.955318C17.265 0.525318 11 0.518318 11 0.518318C11 0.518318 4.73596 0.511318 3.16896 0.922318C2.74689 1.04246 2.36279 1.2691 2.05353 1.58045C1.74427 1.89181 1.52025 2.27744 1.40296 2.70032C0.989964 4.26632 0.985963 7.51432 0.985963 7.51432C0.985963 7.51432 0.981963 10.7783 1.39196 12.3283C1.62196 13.1853 2.29696 13.8623 3.15496 14.0933C4.73696 14.5233 10.985 14.5303 10.985 14.5303C10.985 14.5303 17.25 14.5373 18.816 14.1273C19.2385 14.0127 19.6237 13.7897 19.9336 13.4805C20.2435 13.1713 20.4673 12.7866 20.583 12.3643C20.997 10.7993 21 7.55232 21 7.55232C21 7.55232 21.02 4.28732 20.593 2.72132V2.72132ZM8.99596 10.5233L9.00096 4.52332L14.208 7.52832L8.99596 10.5233V10.5233Z" fill="#CECECE"/>
</svg>
