<svg width="1440" height="803" viewBox="0 0 1440 803" fill="none" xmlns="http://www.w3.org/2000/svg">
<rect width="1440" height="800" fill="#FFFAFA"/>
<path d="M1004.31 771C883.708 735.326 688.948 654.338 874.69 615.774C1106.87 567.57 433.875 343.778 818.353 263.954C1125.93 200.094 877.594 43.0665 714.977 -27.4651M1078.16 770.778C957.561 735.102 762.811 654.098 948.581 615.488C1180.79 567.225 507.817 343.408 892.353 263.487C1199.98 199.55 951.672 42.4732 789.064 -28.0731M1152.48 769.784C1031.88 734.113 837.111 653.14 1022.82 614.623C1254.97 566.478 581.959 342.71 966.377 262.983C1273.91 199.201 1025.54 42.222 862.916 -28.2948M1226.33 769.563C1105.73 733.889 910.974 652.9 1096.72 614.337C1328.89 566.133 655.901 342.341 1040.38 262.516C1347.96 198.657 1099.62 41.629 937.002 -28.9025M1300.18 769.341C1179.59 733.665 984.837 652.66 1170.61 614.05C1402.82 565.787 729.843 341.971 1114.38 262.05C1422.01 198.113 1173.7 41.0358 1011.09 -29.5105M1374.27 768.733C1253.67 733.059 1058.91 652.07 1244.65 613.507C1476.83 565.303 803.84 341.511 1188.32 261.686C1495.9 197.827 1247.56 40.7991 1084.94 -29.7325M1448.36 768.125C1327.76 732.453 1132.99 651.48 1318.7 612.964C1550.84 564.818 877.837 341.051 1262.25 261.323C1569.79 197.541 1321.42 40.5623 1158.79 -29.9545M1522.21 767.903C1401.61 732.227 1206.86 651.222 1392.63 612.612C1624.85 564.35 951.869 340.533 1336.4 260.612C1644.03 196.675 1395.72 39.5978 1233.12 -30.9485M1596.3 767.295C1475.7 731.621 1280.94 650.632 1466.68 612.069C1698.86 563.865 1025.87 340.073 1410.34 260.249C1717.92 196.389 1469.58 39.3613 1306.97 -31.1703M1670.15 767.073C1549.55 731.399 1354.79 650.411 1540.53 611.847C1772.71 563.643 1099.72 339.851 1484.19 260.027C1791.78 196.167 1543.44 39.1395 1380.82 -31.392M1744 766.851C1623.4 731.175 1428.65 650.171 1614.42 611.561C1846.64 563.298 1173.66 339.481 1558.2 259.56C1865.82 195.623 1617.51 38.5463 1454.91 -32" stroke="#F8E0DF"/>
</svg>
