<svg width="130" height="104" viewBox="0 0 130 104" fill="none" xmlns="http://www.w3.org/2000/svg">
<rect width="130" height="104" fill="white"/>
<path d="M11.6953 55.9922V55.9375L17.1016 48.3516V46.6328H9.03906V48.6484H14.1172V48.7031L8.82031 56.2422V58H17.1172V55.9922H11.6953ZM23.9453 50.1875V53.9766C23.9453 54.7031 23.7734 55.2656 23.4453 55.6562C23.1094 56.0547 22.6953 56.25 22.2109 56.25C21.7109 56.25 21.3516 56.1094 21.1328 55.8281C20.9141 55.5469 20.8125 55.0469 20.8125 54.3438V50.1875H18.7188V54.8906C18.7188 55.4766 18.7812 55.9766 18.9219 56.3984C19.0625 56.8203 19.2578 57.1562 19.5234 57.4062C19.7891 57.6562 20.0859 57.8438 20.4297 57.9609C20.7656 58.0781 21.1562 58.1328 21.5938 58.1328C22.0391 58.1328 22.4609 58.0469 22.8594 57.8594C23.2578 57.6719 23.6094 57.4062 23.9141 57.0469H23.9453V58H26.0391V50.1875H23.9453ZM32.5703 50.0547C32.1016 50.0547 31.6719 50.1719 31.2656 50.3906C30.8594 50.6094 30.5078 50.9297 30.2109 51.3359H30.1875V50.1875H28.0938V58H30.1875V54.375C30.1875 53.7812 30.3594 53.2891 30.7109 52.9062C31.0625 52.5312 31.5547 52.3359 32.1797 52.3359C32.3359 52.3359 32.5234 52.3438 32.7344 52.3594V50.0625C32.7031 50.0625 32.6484 50.0547 32.5703 50.0547ZM35.2344 49.0859C35.5859 49.0859 35.8906 48.9609 36.1484 48.7109C36.3984 48.4609 36.5312 48.1641 36.5312 47.8047C36.5312 47.4609 36.3984 47.1562 36.1484 46.9062C35.8906 46.6562 35.5859 46.5312 35.2344 46.5312C34.875 46.5312 34.5625 46.6562 34.3125 46.9062C34.0625 47.1562 33.9375 47.4609 33.9375 47.8047C33.9375 48.0391 33.9922 48.2578 34.1094 48.4531C34.2188 48.6484 34.375 48.8047 34.5781 48.9141C34.7812 49.0312 35 49.0859 35.2344 49.0859ZM34.1875 58H36.2812V50.1875H34.1875V58ZM47.1953 58H49.4609V46.6328H47.1953V58ZM56.4688 50.0547C55.9844 50.0547 55.5234 50.1562 55.0859 50.3516C54.6484 50.5469 54.2734 50.8281 53.9609 51.1953H53.9375V50.1875H51.8438V58H53.9375V54.0703C53.9375 53.3906 54.0938 52.8672 54.4141 52.4922C54.7344 52.125 55.1641 51.9375 55.7109 51.9375C56.2188 51.9375 56.5938 52.0859 56.8438 52.375C57.0859 52.6719 57.2109 53.1719 57.2109 53.8906V58.0078H59.3047V53.3672C59.3047 52.7812 59.2344 52.2734 59.1016 51.8359C58.9609 51.4062 58.7656 51.0625 58.5078 50.8047C58.25 50.5547 57.9531 50.3672 57.6172 50.2422C57.2812 50.1172 56.8984 50.0547 56.4688 50.0547ZM63.7422 58.1328C64.2188 58.1328 64.6094 58.0938 64.9141 58.0078C65.2109 57.9297 65.5156 57.8047 65.8125 57.6406L65.2734 55.9688C64.9141 56.1562 64.5859 56.2422 64.2891 56.2422C64.0391 56.2422 63.8672 56.1641 63.7578 56C63.6484 55.8438 63.6016 55.5859 63.6016 55.2422V51.9219H65.7266V50.1875H63.6016V47.4062L61.5078 47.6328V50.1875H60.5859V51.9219H61.5078V55.5312C61.5078 56.3906 61.7031 57.0391 62.1016 57.4766C62.5 57.9141 63.0469 58.1328 63.7422 58.1328ZM74.1719 54.0234C74.1719 53.2656 74.0078 52.5859 73.6953 51.9844C73.375 51.3828 72.9219 50.9141 72.3438 50.5703C71.7578 50.2266 71.0859 50.0547 70.3359 50.0547C69.7891 50.0547 69.2734 50.1562 68.7969 50.3516C68.3125 50.5547 67.9062 50.8281 67.5625 51.1797C67.2188 51.5312 66.9531 51.9609 66.7578 52.4609C66.5547 52.9609 66.4609 53.5078 66.4609 54.0859C66.4609 54.8828 66.6328 55.5938 66.9844 56.2109C67.3359 56.8359 67.8203 57.3125 68.4297 57.6406C69.0391 57.9688 69.7188 58.1328 70.4844 58.1328C71.2344 58.1328 71.8906 58 72.4688 57.7344C73.0391 57.4688 73.5 57.1094 73.8594 56.6562L72.5 55.3906C72.0078 55.9844 71.3828 56.2812 70.6328 56.2734C70.1328 56.2734 69.7031 56.1328 69.3516 55.8672C69 55.6016 68.7656 55.2422 68.6406 54.7734H74.1172C74.1484 54.6484 74.1719 54.3984 74.1719 54.0234ZM70.4062 51.8984C70.8438 51.8984 71.2109 52.0234 71.5 52.2656C71.7812 52.5078 71.9844 52.8438 72.0938 53.2656H68.6484C68.7656 52.8281 68.9766 52.4844 69.2891 52.25C69.6016 52.0156 69.9688 51.8984 70.4062 51.8984ZM80.3203 50.0547C79.8516 50.0547 79.4219 50.1719 79.0156 50.3906C78.6094 50.6094 78.2578 50.9297 77.9609 51.3359H77.9375V50.1875H75.8438V58H77.9375V54.375C77.9375 53.7812 78.1094 53.2891 78.4609 52.9062C78.8125 52.5312 79.3047 52.3359 79.9297 52.3359C80.0859 52.3359 80.2734 52.3438 80.4844 52.3594V50.0625C80.4531 50.0625 80.3984 50.0547 80.3203 50.0547ZM86.4688 50.0547C85.9844 50.0547 85.5234 50.1562 85.0859 50.3516C84.6484 50.5469 84.2734 50.8281 83.9609 51.1953H83.9375V50.1875H81.8438V58H83.9375V54.0703C83.9375 53.3906 84.0938 52.8672 84.4141 52.4922C84.7344 52.125 85.1641 51.9375 85.7109 51.9375C86.2188 51.9375 86.5938 52.0859 86.8438 52.375C87.0859 52.6719 87.2109 53.1719 87.2109 53.8906V58.0078H89.3047V53.3672C89.3047 52.7812 89.2344 52.2734 89.1016 51.8359C88.9609 51.4062 88.7656 51.0625 88.5078 50.8047C88.25 50.5547 87.9531 50.3672 87.6172 50.2422C87.2812 50.1172 86.8984 50.0547 86.4688 50.0547ZM93.8359 58.1328C94.8203 58.1328 95.5703 57.9141 96.0859 57.4609C96.6016 57.0156 96.8672 56.4297 96.8672 55.7031C96.8672 55.5156 96.8516 55.3359 96.8203 55.1797C96.7188 54.6641 96.4141 54.2422 95.9141 53.9297C95.6172 53.7422 95.0391 53.4922 94.1797 53.1719C93.7656 53.0156 93.4688 52.875 93.2812 52.75C93.0938 52.625 93.0078 52.4844 93.0078 52.3281C93.0078 52.1406 93.0859 52 93.2422 51.8984C93.3984 51.7969 93.5703 51.7422 93.7734 51.7422C94.0703 51.7422 94.3828 51.8125 94.7109 51.9531C95.0391 52.0938 95.3438 52.2969 95.6406 52.5703L96.6562 51.0391C96.2109 50.6953 95.7578 50.4453 95.3047 50.2891C94.8438 50.1328 94.3438 50.0547 93.7969 50.0547C93.2656 50.0547 92.7812 50.1562 92.3594 50.3438C91.9375 50.5391 91.6016 50.8125 91.3516 51.1719C91.1016 51.5312 90.9844 51.9375 90.9844 52.3984C90.9844 52.6484 91.0078 52.875 91.0703 53.0781C91.125 53.2891 91.2109 53.4766 91.3203 53.6328C91.4297 53.7969 91.5547 53.9453 91.6953 54.0703C91.8359 54.2031 92 54.3203 92.1953 54.4297C92.3828 54.5391 92.5703 54.625 92.7578 54.7031C92.9453 54.7812 93.1562 54.8594 93.3906 54.9375C93.7578 55.0625 94.0312 55.1562 94.2188 55.2344C94.4062 55.3125 94.5469 55.3984 94.6562 55.4922C94.7578 55.5859 94.8125 55.6875 94.8125 55.8047C94.8125 56 94.7266 56.1562 94.5547 56.2734C94.3828 56.3984 94.1484 56.4531 93.8516 56.4531C93.0547 56.4531 92.3359 56.1484 91.6875 55.5391L90.6719 56.9844C91.5391 57.75 92.5938 58.1328 93.8359 58.1328ZM103.148 50.0547C102.641 50.0547 102.172 50.1484 101.734 50.3281C101.297 50.5156 100.922 50.7812 100.609 51.1328H100.578V46.2188H98.4844V58H100.578V54.0391C100.578 53.3516 100.734 52.8359 101.062 52.4766C101.383 52.1172 101.828 51.9375 102.406 51.9375C102.922 51.9375 103.305 52.0859 103.555 52.3672C103.805 52.6562 103.93 53.1484 103.93 53.8359V58.0078H106.031V53.3047C106.031 52.7266 105.961 52.2188 105.82 51.7969C105.68 51.375 105.477 51.0312 105.219 50.7812C104.953 50.5312 104.656 50.3516 104.312 50.2344C103.969 50.1172 103.586 50.0547 103.148 50.0547ZM109.172 49.0859C109.523 49.0859 109.828 48.9609 110.086 48.7109C110.336 48.4609 110.469 48.1641 110.469 47.8047C110.469 47.4609 110.336 47.1562 110.086 46.9062C109.828 46.6562 109.523 46.5312 109.172 46.5312C108.812 46.5312 108.5 46.6562 108.25 46.9062C108 47.1562 107.875 47.4609 107.875 47.8047C107.875 48.0391 107.93 48.2578 108.047 48.4531C108.156 48.6484 108.312 48.8047 108.516 48.9141C108.719 49.0312 108.938 49.0859 109.172 49.0859ZM108.125 58H110.219V50.1875H108.125V58ZM116.93 50.0547C115.93 50.0547 115.141 50.3984 114.562 51.0859H114.531V50.1875H112.438V61.1641H114.531V57.125H114.562C115.117 57.7969 115.883 58.1328 116.867 58.1328C117.398 58.1328 117.898 58.0391 118.359 57.8438C118.82 57.6562 119.219 57.3828 119.547 57.0391C119.875 56.6953 120.141 56.2656 120.328 55.7656C120.516 55.2656 120.609 54.7109 120.609 54.1172C120.609 53.6484 120.547 53.2109 120.43 52.7891C120.305 52.3672 120.133 51.9922 119.914 51.6641C119.695 51.3359 119.43 51.0469 119.133 50.8047C118.828 50.5625 118.484 50.375 118.109 50.25C117.734 50.125 117.336 50.0547 116.93 50.0547ZM116.484 56.2578C116.102 56.2578 115.758 56.1719 115.445 56C115.133 55.8281 114.891 55.5703 114.711 55.2422C114.531 54.9141 114.445 54.5469 114.445 54.125C114.445 53.8203 114.492 53.5312 114.594 53.2578C114.695 52.9922 114.836 52.7578 115.016 52.5625C115.188 52.375 115.406 52.2188 115.656 52.1094C115.906 52 116.188 51.9375 116.484 51.9375C117.055 51.9375 117.531 52.1406 117.914 52.5391C118.289 52.9453 118.484 53.4688 118.484 54.125C118.484 54.7578 118.297 55.2734 117.922 55.6641C117.547 56.0625 117.07 56.2578 116.484 56.2578Z" fill="black"/>
<path d="M42.2461 58.1992C42.7734 58.1992 43.2305 58.0117 43.6055 57.6367C43.9805 57.2617 44.1797 56.8164 44.1797 56.2891C44.1797 55.7734 43.9805 55.3164 43.6055 54.9414C43.2305 54.5664 42.7734 54.3672 42.2461 54.3672C41.6953 54.3672 41.2266 54.5547 40.8516 54.9297C40.4766 55.3047 40.2891 55.7617 40.2891 56.2891C40.2891 56.8281 40.4766 57.2734 40.8516 57.6484C41.2266 58.0234 41.6953 58.1992 42.2461 58.1992Z" fill="#E7332B"/>
</svg>
