<svg width="122" height="104" viewBox="0 0 122 104" fill="none" xmlns="http://www.w3.org/2000/svg">
<rect width="122" height="104" fill="white"/>
<path d="M21.6953 55.9922V55.9375L27.1016 48.3516V46.6328H19.0391V48.6484H24.1172V48.7031L18.8203 56.2422V58H27.1172V55.9922H21.6953ZM33.9453 50.1875V53.9766C33.9453 54.7031 33.7734 55.2656 33.4453 55.6562C33.1094 56.0547 32.6953 56.25 32.2109 56.25C31.7109 56.25 31.3516 56.1094 31.1328 55.8281C30.9141 55.5469 30.8125 55.0469 30.8125 54.3438V50.1875H28.7188V54.8906C28.7188 55.4766 28.7812 55.9766 28.9219 56.3984C29.0625 56.8203 29.2578 57.1562 29.5234 57.4062C29.7891 57.6562 30.0859 57.8438 30.4297 57.9609C30.7656 58.0781 31.1562 58.1328 31.5938 58.1328C32.0391 58.1328 32.4609 58.0469 32.8594 57.8594C33.2578 57.6719 33.6094 57.4062 33.9141 57.0469H33.9453V58H36.0391V50.1875H33.9453ZM42.5703 50.0547C42.1016 50.0547 41.6719 50.1719 41.2656 50.3906C40.8594 50.6094 40.5078 50.9297 40.2109 51.3359H40.1875V50.1875H38.0938V58H40.1875V54.375C40.1875 53.7812 40.3594 53.2891 40.7109 52.9062C41.0625 52.5312 41.5547 52.3359 42.1797 52.3359C42.3359 52.3359 42.5234 52.3438 42.7344 52.3594V50.0625C42.7031 50.0625 42.6484 50.0547 42.5703 50.0547ZM45.2344 49.0859C45.5859 49.0859 45.8906 48.9609 46.1484 48.7109C46.3984 48.4609 46.5312 48.1641 46.5312 47.8047C46.5312 47.4609 46.3984 47.1562 46.1484 46.9062C45.8906 46.6562 45.5859 46.5312 45.2344 46.5312C44.875 46.5312 44.5625 46.6562 44.3125 46.9062C44.0625 47.1562 43.9375 47.4609 43.9375 47.8047C43.9375 48.0391 43.9922 48.2578 44.1094 48.4531C44.2188 48.6484 44.375 48.8047 44.5781 48.9141C44.7812 49.0312 45 49.0859 45.2344 49.0859ZM44.1875 58H46.2812V50.1875H44.1875V58ZM59.4766 58H61.7188V48.6484H64.8672V46.6328H56.3438V48.6484H59.4766V58ZM70.5703 50.1875V51.0703H70.5391C69.9531 50.3984 69.1875 50.0547 68.2344 50.0547C67.7188 50.0547 67.2266 50.1562 66.7734 50.3594C66.3203 50.5625 65.9297 50.8438 65.6016 51.1953C65.2734 51.5547 65.0234 51.9844 64.8359 52.4844C64.6484 52.9922 64.5547 53.5391 64.5547 54.1172C64.5547 54.7109 64.6484 55.2656 64.8359 55.7656C65.0234 56.2656 65.2812 56.6953 65.6094 57.0391C65.9375 57.3828 66.3359 57.6562 66.7969 57.8438C67.2578 58.0391 67.7578 58.1328 68.2969 58.1328C69.2969 58.1328 70.0703 57.7734 70.6328 57.0547H70.6719V58H72.6641V50.1875H70.5703ZM68.6797 56.2578C68.0859 56.2578 67.6094 56.0625 67.2344 55.6641C66.8594 55.2734 66.6797 54.7578 66.6797 54.125C66.6797 53.4688 66.8672 52.9453 67.25 52.5391C67.6328 52.1406 68.1094 51.9375 68.6875 51.9375C69.25 51.9375 69.7188 52.1484 70.0938 52.5625C70.4688 52.9844 70.6562 53.5 70.6562 54.125C70.6562 54.7578 70.4609 55.2734 70.0859 55.6641C69.7031 56.0625 69.2344 56.2578 68.6797 56.2578ZM74.8125 58H76.9062V46.2188H74.8125V58ZM86.4062 54.0234C86.4062 53.2656 86.2422 52.5859 85.9297 51.9844C85.6094 51.3828 85.1562 50.9141 84.5781 50.5703C83.9922 50.2266 83.3203 50.0547 82.5703 50.0547C82.0234 50.0547 81.5078 50.1562 81.0312 50.3516C80.5469 50.5547 80.1406 50.8281 79.7969 51.1797C79.4531 51.5312 79.1875 51.9609 78.9922 52.4609C78.7891 52.9609 78.6953 53.5078 78.6953 54.0859C78.6953 54.8828 78.8672 55.5938 79.2188 56.2109C79.5703 56.8359 80.0547 57.3125 80.6641 57.6406C81.2734 57.9688 81.9531 58.1328 82.7188 58.1328C83.4688 58.1328 84.125 58 84.7031 57.7344C85.2734 57.4688 85.7344 57.1094 86.0938 56.6562L84.7344 55.3906C84.2422 55.9844 83.6172 56.2812 82.8672 56.2734C82.3672 56.2734 81.9375 56.1328 81.5859 55.8672C81.2344 55.6016 81 55.2422 80.875 54.7734H86.3516C86.3828 54.6484 86.4062 54.3984 86.4062 54.0234ZM82.6406 51.8984C83.0781 51.8984 83.4453 52.0234 83.7344 52.2656C84.0156 52.5078 84.2188 52.8438 84.3281 53.2656H80.8828C81 52.8281 81.2109 52.4844 81.5234 52.25C81.8359 52.0156 82.2031 51.8984 82.6406 51.8984ZM92.7031 50.0547C92.2188 50.0547 91.7578 50.1562 91.3203 50.3516C90.8828 50.5469 90.5078 50.8281 90.1953 51.1953H90.1719V50.1875H88.0781V58H90.1719V54.0703C90.1719 53.3906 90.3281 52.8672 90.6484 52.4922C90.9688 52.125 91.3984 51.9375 91.9453 51.9375C92.4531 51.9375 92.8281 52.0859 93.0781 52.375C93.3203 52.6719 93.4453 53.1719 93.4453 53.8906V58.0078H95.5391V53.3672C95.5391 52.7812 95.4688 52.2734 95.3359 51.8359C95.1953 51.4062 95 51.0625 94.7422 50.8047C94.4844 50.5547 94.1875 50.3672 93.8516 50.2422C93.5156 50.1172 93.1328 50.0547 92.7031 50.0547ZM99.9766 58.1328C100.453 58.1328 100.844 58.0938 101.148 58.0078C101.445 57.9297 101.75 57.8047 102.047 57.6406L101.508 55.9688C101.148 56.1562 100.82 56.2422 100.523 56.2422C100.273 56.2422 100.102 56.1641 99.9922 56C99.8828 55.8438 99.8359 55.5859 99.8359 55.2422V51.9219H101.961V50.1875H99.8359V47.4062L97.7422 47.6328V50.1875H96.8203V51.9219H97.7422V55.5312C97.7422 56.3906 97.9375 57.0391 98.3359 57.4766C98.7344 57.9141 99.2812 58.1328 99.9766 58.1328Z" fill="black"/>
<path d="M53.2461 58.1992C53.7734 58.1992 54.2305 58.0117 54.6055 57.6367C54.9805 57.2617 55.1797 56.8164 55.1797 56.2891C55.1797 55.7734 54.9805 55.3164 54.6055 54.9414C54.2305 54.5664 53.7734 54.3672 53.2461 54.3672C52.6953 54.3672 52.2266 54.5547 51.8516 54.9297C51.4766 55.3047 51.2891 55.7617 51.2891 56.2891C51.2891 56.8281 51.4766 57.2734 51.8516 57.6484C52.2266 58.0234 52.6953 58.1992 53.2461 58.1992Z" fill="#E7332B"/>
</svg>
